<?xml version="1.0" encoding="UTF-8" standalone="no"?>
<!DOCTYPE svg PUBLIC "-//W3C//DTD SVG 1.1//EN" "http://www.w3.org/Graphics/SVG/1.1/DTD/svg11.dtd">
<svg xmlns="http://www.w3.org/2000/svg" version="1.1" viewBox="0.00 0.00 943.00 943.00">
<g stroke-width="2.00" fill="none" stroke-linecap="butt">
<path stroke="#80b4cd" vector-effect="non-scaling-stroke" d="
  M 310.71 202.04
  Q 230.88 249.05 150.94 295.90
  Q 148.66 297.23 150.17 299.81"
/>
<path stroke="#c5eff3" vector-effect="non-scaling-stroke" d="
  M 150.17 299.81
  Q 150.16 390.56 150.27 481.33
  Q 150.27 482.00 150.52 482.53
  Q 150.95 483.44 152.04 483.37
  A 2.14 2.11 -61.7 0 0 153.01 483.07
  L 312.27 389.63"
/>
<path stroke="#8580a6" vector-effect="non-scaling-stroke" d="
  M 312.27 389.63
  L 473.23 294.90"
/>
<path stroke="#adc3d3" vector-effect="non-scaling-stroke" d="
  M 473.23 294.90
  L 639.00 387.50"
/>
<path stroke="#80b4cd" vector-effect="non-scaling-stroke" d="
  M 639.00 387.50
  L 800.23 478.17
  Q 801.19 478.71 801.66 477.71
  Q 801.87 477.27 801.86 476.25
  Q 801.02 385.87 800.50 295.57"
/>
<path stroke="#8580a6" vector-effect="non-scaling-stroke" d="
  M 800.50 295.57
  Q 800.19 291.98 798.65 291.10
  Q 718.05 245.26 637.18 199.61"
/>
<path stroke="#adc3d3" vector-effect="non-scaling-stroke" d="
  M 637.18 199.61
  L 636.53 199.60"
/>
<path stroke="#c5eff3" vector-effect="non-scaling-stroke" d="
  M 636.53 199.60
  L 473.06 108.43"
/>
<path stroke="#adc3d3" vector-effect="non-scaling-stroke" d="
  M 473.06 108.43
  Q 472.90 108.33 472.69 108.31
  Q 472.53 108.30 472.34 108.40
  Q 391.55 155.24 310.71 202.04"
/>
<path stroke="#73b3c6" vector-effect="non-scaling-stroke" d="
  M 473.06 108.43
  Q 472.64 108.89 472.64 109.13
  Q 473.75 199.27 475.13 289.41
  C 475.15 290.48 475.01 291.51 475.76 292.34
  A 1.87 1.86 -36.1 0 0 478.08 292.70
  L 636.53 199.60"
/>
<path stroke="#33447a" vector-effect="non-scaling-stroke" d="
  M 637.18 199.61
  L 639.83 384.53"
/>
<path stroke="#2e78a0" vector-effect="non-scaling-stroke" d="
  M 639.83 384.53
  Q 641.05 386.13 639.00 387.50"
/>
<path stroke="#33447a" vector-effect="non-scaling-stroke" d="
  M 473.23 294.90
  Q 473.23 294.73 473.33 294.66
  Q 473.37 294.63 473.32 294.60
  L 313.67 204.10"
/>
<path stroke="#2e78a0" vector-effect="non-scaling-stroke" d="
  M 313.67 204.10
  Q 311.75 203.39 310.71 202.04"
/>
<path stroke="#053574" vector-effect="non-scaling-stroke" d="
  M 800.50 295.57
  Q 798.80 295.35 797.22 295.02
  Q 795.48 294.65 794.48 295.24
  Q 719.22 339.50 643.95 383.76
  C 642.48 384.63 641.49 384.58 639.83 384.53"
/>
<path stroke="#4a6f9a" vector-effect="non-scaling-stroke" d="
  M 312.27 389.63
  L 311.36 387.52"
/>
<path stroke="#053574" vector-effect="non-scaling-stroke" d="
  M 313.67 204.10
  Q 311.10 206.64 311.09 207.75
  Q 310.73 252.17 311.36 387.52"
/>
<path stroke="#45a4c0" vector-effect="non-scaling-stroke" d="
  M 311.36 387.52
  Q 306.79 386.89 304.62 385.66
  Q 228.77 342.71 152.92 299.74
  C 151.87 299.15 151.17 299.33 150.17 299.81"
/>
<path stroke="#adc3d3" vector-effect="non-scaling-stroke" d="
  M 478.92 671.19
  L 313.52 579.04"
/>
<path stroke="#80b4cd" vector-effect="non-scaling-stroke" d="
  M 313.52 579.04
  Q 312.59 578.12 311.69 577.81"
/>
<path stroke="#8580a6" vector-effect="non-scaling-stroke" d="
  M 311.69 577.81
  Q 232.13 532.86 152.23 487.72
  A 1.49 1.49 0.0 0 0 150.26 488.19
  Q 150.12 488.39 150.13 489.00
  Q 150.77 581.37 151.50 673.75
  Q 151.51 673.97 151.75 673.97"
/>
<path stroke="#80b4cd" vector-effect="non-scaling-stroke" d="
  M 151.75 673.97
  L 314.61 766.47"
/>
<path stroke="#adc3d3" vector-effect="non-scaling-stroke" d="
  M 314.61 766.47
  L 315.99 766.79"
/>
<path stroke="#c5eff3" vector-effect="non-scaling-stroke" d="
  M 315.99 766.79
  L 479.75 858.87"
/>
<path stroke="#adc3d3" vector-effect="non-scaling-stroke" d="
  M 479.75 858.87
  L 639.40 764.85"
/>
<path stroke="#80b4cd" vector-effect="non-scaling-stroke" d="
  M 639.40 764.85
  L 801.20 669.98"
/>
<path stroke="#8580a6" vector-effect="non-scaling-stroke" d="
  M 801.20 669.98
  Q 803.65 667.95 803.63 665.76
  Q 802.88 575.25 802.28 483.51
  A 1.69 1.68 10.3 0 0 801.18 481.93
  Q 800.76 481.78 799.82 482.33
  Q 639.36 576.75 478.92 671.19"
/>
<path stroke="#053574" vector-effect="non-scaling-stroke" d="
  M 801.20 669.98
  Q 799.43 665.90 796.98 664.51
  Q 721.27 621.63 645.58 578.71
  C 643.59 577.58 641.30 577.27 640.05 579.41
  Q 639.42 580.50 639.45 583.20
  Q 641.21 708.99 641.07 758.50
  Q 641.06 760.72 638.63 762.13"
/>
<path stroke="#33447a" vector-effect="non-scaling-stroke" d="
  M 638.63 762.13
  L 478.92 671.19"
/>
<path stroke="#73b3c6" vector-effect="non-scaling-stroke" d="
  M 479.75 858.87
  Q 479.62 858.79 479.55 858.71
  Q 479.53 858.69 479.53 858.50
  L 477.95 676.97
  A 3.36 3.35 -15.5 0 0 472.89 674.11
  Q 398.40 717.91 322.32 762.66
  C 319.73 764.18 316.76 762.49 315.99 766.79"
/>
<path stroke="#2e78a0" vector-effect="non-scaling-stroke" d="
  M 639.40 764.85
  L 638.63 762.13"
/>
<path stroke="#2e78a0" vector-effect="non-scaling-stroke" d="
  M 313.52 579.04
  Q 311.38 580.36 311.20 582.22
  C 311.05 583.71 312.45 585.28 312.47 587.25
  Q 313.54 677.09 314.61 766.47"
/>
<path stroke="#053574" vector-effect="non-scaling-stroke" d="
  M 311.69 577.81
  Q 308.96 581.10 306.69 582.43
  Q 229.35 627.76 152.26 673.49
  Q 151.99 673.64 151.75 673.97"
/>
</g>
<path fill="#ffffff" d="
  M 943.00 464.13
  L 943.00 480.00
  Q 942.24 490.44 941.98 500.91
  C 941.91 504.07 941.37 507.12 941.18 510.25
  Q 940.96 514.04 940.64 517.26
  Q 932.86 596.88 899.64 668.85
  Q 860.57 753.51 792.68 816.65
  Q 737.16 868.28 669.08 899.58
  Q 579.61 940.71 479.82 943.00
  L 464.00 943.00
  Q 457.17 942.51 450.33 942.22
  Q 440.59 941.80 436.68 941.50
  C 334.47 933.72 237.52 892.82 160.87 825.37
  C 122.59 791.68 89.40 751.34 63.81 706.60
  Q 3.76 601.63 1.08 478.47
  C 0.83 467.27 1.60 456.71 1.91 445.83
  C 2.06 440.63 2.62 435.48 3.09 430.27
  Q 10.30 349.46 43.93 276.00
  Q 73.08 212.29 119.66 159.80
  Q 191.13 79.25 291.15 37.32
  Q 357.38 9.56 430.32 3.11
  C 434.85 2.71 439.36 2.12 443.89 1.99
  C 453.72 1.69 464.23 0.90 474.02 1.06
  Q 513.84 1.71 546.00 6.99
  Q 665.07 26.51 760.00 99.58
  Q 811.30 139.07 850.29 191.79
  Q 911.13 274.06 932.68 374.83
  Q 937.88 399.14 940.67 426.82
  Q 941.01 430.17 941.20 433.65
  C 941.36 436.67 941.88 439.61 941.96 442.62
  Q 942.24 453.39 943.00 464.13
  Z
  M 310.71 202.04
  Q 230.88 249.05 150.94 295.90
  Q 148.66 297.23 150.17 299.81
  Q 150.16 390.56 150.27 481.33
  Q 150.27 482.00 150.52 482.53
  Q 150.95 483.44 152.04 483.37
  A 2.14 2.11 -61.7 0 0 153.01 483.07
  L 312.27 389.63
  L 473.23 294.90
  L 639.00 387.50
  L 800.23 478.17
  Q 801.19 478.71 801.66 477.71
  Q 801.87 477.27 801.86 476.25
  Q 801.02 385.87 800.50 295.57
  Q 800.19 291.98 798.65 291.10
  Q 718.05 245.26 637.18 199.61
  L 636.53 199.60
  L 473.06 108.43
  Q 472.90 108.33 472.69 108.31
  Q 472.53 108.30 472.34 108.40
  Q 391.55 155.24 310.71 202.04
  Z
  M 478.92 671.19
  L 313.52 579.04
  Q 312.59 578.12 311.69 577.81
  Q 232.13 532.86 152.23 487.72
  A 1.49 1.49 0.0 0 0 150.26 488.19
  Q 150.12 488.39 150.13 489.00
  Q 150.77 581.37 151.50 673.75
  Q 151.51 673.97 151.75 673.97
  L 314.61 766.47
  L 315.99 766.79
  L 479.75 858.87
  L 639.40 764.85
  L 801.20 669.98
  Q 803.65 667.95 803.63 665.76
  Q 802.88 575.25 802.28 483.51
  A 1.69 1.68 10.3 0 0 801.18 481.93
  Q 800.76 481.78 799.82 482.33
  Q 639.36 576.75 478.92 671.19
  Z"
/>
<path fill="#5b87a6" d="
  M 473.06 108.43
  Q 472.64 108.89 472.64 109.13
  Q 473.75 199.27 475.13 289.41
  C 475.15 290.48 475.01 291.51 475.76 292.34
  A 1.87 1.86 -36.1 0 0 478.08 292.70
  L 636.53 199.60
  L 637.18 199.61
  L 639.83 384.53
  Q 641.05 386.13 639.00 387.50
  L 473.23 294.90
  Q 473.23 294.73 473.33 294.66
  Q 473.37 294.63 473.32 294.60
  L 313.67 204.10
  Q 311.75 203.39 310.71 202.04
  Q 391.55 155.24 472.34 108.40
  Q 472.53 108.30 472.69 108.31
  Q 472.90 108.33 473.06 108.43
  Z"
/>
<path fill="#8adee6" d="
  M 473.06 108.43
  L 636.53 199.60
  L 478.08 292.70
  A 1.87 1.86 -36.1 0 1 475.76 292.34
  C 475.01 291.51 475.15 290.48 475.13 289.41
  Q 473.75 199.27 472.64 109.13
  Q 472.64 108.89 473.06 108.43
  Z"
/>
<path fill="#0a004d" d="
  M 637.18 199.61
  Q 718.05 245.26 798.65 291.10
  Q 800.19 291.98 800.50 295.57
  Q 798.80 295.35 797.22 295.02
  Q 795.48 294.65 794.48 295.24
  Q 719.22 339.50 643.95 383.76
  C 642.48 384.63 641.49 384.58 639.83 384.53
  L 637.18 199.61
  Z"
/>
<path fill="#00699a" d="
  M 310.71 202.04
  Q 311.75 203.39 313.67 204.10
  Q 311.10 206.64 311.09 207.75
  Q 310.73 252.17 311.36 387.52
  Q 306.79 386.89 304.62 385.66
  Q 228.77 342.71 152.92 299.74
  C 151.87 299.15 151.17 299.33 150.17 299.81
  Q 148.66 297.23 150.94 295.90
  Q 230.88 249.05 310.71 202.04
  Z"
/>
<path fill="#0a004d" d="
  M 313.67 204.10
  L 473.32 294.60
  Q 473.37 294.63 473.33 294.66
  Q 473.23 294.73 473.23 294.90
  L 312.27 389.63
  L 311.36 387.52
  Q 310.73 252.17 311.09 207.75
  Q 311.10 206.64 313.67 204.10
  Z"
/>
<path fill="#00699a" d="
  M 800.50 295.57
  Q 801.02 385.87 801.86 476.25
  Q 801.87 477.27 801.66 477.71
  Q 801.19 478.71 800.23 478.17
  L 639.00 387.50
  Q 641.05 386.13 639.83 384.53
  C 641.49 384.58 642.48 384.63 643.95 383.76
  Q 719.22 339.50 794.48 295.24
  Q 795.48 294.65 797.22 295.02
  Q 798.80 295.35 800.50 295.57
  Z"
/>
<path fill="#8adee6" d="
  M 311.36 387.52
  L 312.27 389.63
  L 153.01 483.07
  A 2.14 2.11 -61.7 0 1 152.04 483.37
  Q 150.95 483.44 150.52 482.53
  Q 150.27 482.00 150.27 481.33
  Q 150.16 390.56 150.17 299.81
  C 151.17 299.33 151.87 299.15 152.92 299.74
  Q 228.77 342.71 304.62 385.66
  Q 306.79 386.89 311.36 387.52
  Z"
/>
<path fill="#0a004d" d="
  M 801.20 669.98
  Q 799.43 665.90 796.98 664.51
  Q 721.27 621.63 645.58 578.71
  C 643.59 577.58 641.30 577.27 640.05 579.41
  Q 639.42 580.50 639.45 583.20
  Q 641.21 708.99 641.07 758.50
  Q 641.06 760.72 638.63 762.13
  L 478.92 671.19
  Q 639.36 576.75 799.82 482.33
  Q 800.76 481.78 801.18 481.93
  A 1.69 1.68 10.3 0 1 802.28 483.51
  Q 802.88 575.25 803.63 665.76
  Q 803.65 667.95 801.20 669.98
  Z"
/>
<path fill="#0a004d" d="
  M 311.69 577.81
  Q 308.96 581.10 306.69 582.43
  Q 229.35 627.76 152.26 673.49
  Q 151.99 673.64 151.75 673.97
  Q 151.51 673.97 151.50 673.75
  Q 150.77 581.37 150.13 489.00
  Q 150.12 488.39 150.26 488.19
  A 1.49 1.49 0.0 0 1 152.23 487.72
  Q 232.13 532.86 311.69 577.81
  Z"
/>
<path fill="#00699a" d="
  M 311.69 577.81
  Q 312.59 578.12 313.52 579.04
  Q 311.38 580.36 311.20 582.22
  C 311.05 583.71 312.45 585.28 312.47 587.25
  Q 313.54 677.09 314.61 766.47
  L 151.75 673.97
  Q 151.99 673.64 152.26 673.49
  Q 229.35 627.76 306.69 582.43
  Q 308.96 581.10 311.69 577.81
  Z"
/>
<path fill="#00699a" d="
  M 801.20 669.98
  L 639.40 764.85
  L 638.63 762.13
  Q 641.06 760.72 641.07 758.50
  Q 641.21 708.99 639.45 583.20
  Q 639.42 580.50 640.05 579.41
  C 641.30 577.27 643.59 577.58 645.58 578.71
  Q 721.27 621.63 796.98 664.51
  Q 799.43 665.90 801.20 669.98
  Z"
/>
<path fill="#5b87a6" d="
  M 313.52 579.04
  L 478.92 671.19
  L 638.63 762.13
  L 639.40 764.85
  L 479.75 858.87
  Q 479.62 858.79 479.55 858.71
  Q 479.53 858.69 479.53 858.50
  L 477.95 676.97
  A 3.36 3.35 -15.5 0 0 472.89 674.11
  Q 398.40 717.91 322.32 762.66
  C 319.73 764.18 316.76 762.49 315.99 766.79
  L 314.61 766.47
  Q 313.54 677.09 312.47 587.25
  C 312.45 585.28 311.05 583.71 311.20 582.22
  Q 311.38 580.36 313.52 579.04
  Z"
/>
<path fill="#8adee6" d="
  M 479.75 858.87
  L 315.99 766.79
  C 316.76 762.49 319.73 764.18 322.32 762.66
  Q 398.40 717.91 472.89 674.11
  A 3.36 3.35 -15.5 0 1 477.95 676.97
  L 479.53 858.50
  Q 479.53 858.69 479.55 858.71
  Q 479.62 858.79 479.75 858.87
  Z"
/>
</svg>
