<?xml version="1.0" encoding="UTF-8" standalone="no"?>
<!DOCTYPE svg PUBLIC "-//W3C//DTD SVG 1.1//EN" "http://www.w3.org/Graphics/SVG/1.1/DTD/svg11.dtd">
<svg xmlns="http://www.w3.org/2000/svg" version="1.1" viewBox="0.00 0.00 500.00 500.00">
<g stroke-width="2.00" fill="none" stroke-linecap="butt">
<path stroke="#72b3c6" vector-effect="non-scaling-stroke" d="
  M 251.00 1.42
  Q 251.31 61.87 251.84 121.50
  Q 251.85 123.05 253.72 123.59
  Q 254.21 123.73 254.67 123.50
  Q 255.77 122.93 256.83 122.31
  Q 308.10 92.34 358.88 62.48
  Q 359.21 62.28 359.40 61.96
  Q 359.48 61.82 359.60 61.65"
/>
<path stroke="#33447a" vector-effect="non-scaling-stroke" d="
  M 361.05 61.99
  C 360.59 63.26 360.13 64.46 360.29 65.78
  C 360.64 68.77 360.89 71.66 360.87 74.69
  Q 360.58 128.96 361.76 183.35"
/>
<path stroke="#2d789f" vector-effect="non-scaling-stroke" d="
  M 361.76 183.35
  Q 361.37 184.76 359.50 185.74"
/>
<path stroke="#33447a" vector-effect="non-scaling-stroke" d="
  M 251.30 125.52
  L 144.68 64.94"
/>
<path stroke="#2d789f" vector-effect="non-scaling-stroke" d="
  M 144.68 64.94
  Q 143.16 65.92 142.67 63.38"
/>
<path stroke="#063473" vector-effect="non-scaling-stroke" d="
  M 144.68 64.94
  Q 142.71 66.90 142.71 68.50
  Q 142.74 100.16 143.57 185.97
  Q 143.58 186.54 144.19 187.75"
/>
<path stroke="#45a4bf" vector-effect="non-scaling-stroke" d="
  M 144.19 187.75
  Q 143.63 188.01 143.24 187.80
  Q 89.48 157.71 35.68 127.65
  Q 35.38 127.48 35.32 127.14
  L 35.24 126.72"
/>
<path stroke="#063473" vector-effect="non-scaling-stroke" d="
  M 469.65 123.95
  Q 468.66 124.09 467.69 124.65
  Q 417.63 153.97 367.54 183.22
  C 365.70 184.29 363.18 185.14 361.76 183.35"
/>
<path stroke="#4b709a" vector-effect="non-scaling-stroke" d="
  M 144.43 188.11
  Q 144.38 187.77 144.19 187.75"
/>
<path stroke="#063473" vector-effect="non-scaling-stroke" d="
  M 470.28 375.74
  Q 466.21 371.38 461.68 368.83
  Q 415.21 342.65 372.02 318.44
  C 368.48 316.46 362.07 312.30 362.21 320.63
  Q 363.28 388.82 363.01 434.00
  Q 363.00 435.60 361.81 437.07"
/>
<path stroke="#33447a" vector-effect="non-scaling-stroke" d="
  M 361.81 437.07
  Q 360.22 436.53 358.94 435.81
  Q 308.76 407.35 258.45 379.11
  Q 257.15 378.38 255.84 375.97"
/>
<path stroke="#063473" vector-effect="non-scaling-stroke" d="
  M 142.22 313.35
  Q 140.65 316.87 138.56 318.10
  Q 90.44 346.48 42.32 374.83
  Q 40.26 376.04 37.46 378.62"
/>
<path stroke="#2d789f" vector-effect="non-scaling-stroke" d="
  M 144.81 315.39
  Q 144.11 316.61 144.13 317.50
  Q 144.83 370.47 144.85 422.57
  C 144.85 428.11 146.11 433.41 145.59 438.90"
/>
<path stroke="#45a4bf" vector-effect="non-scaling-stroke" d="
  M 145.59 438.90
  Q 144.69 439.20 145.00 439.67"
/>
<path stroke="#72b3c6" vector-effect="non-scaling-stroke" d="
  M 253.00 376.27
  Q 252.39 377.71 251.30 378.35
  Q 205.27 405.40 159.31 432.58
  Q 151.55 437.17 145.59 438.90"
/>
<path stroke="#2d789f" vector-effect="non-scaling-stroke" d="
  M 362.70 438.78
  L 361.81 437.07"
/>
<path stroke="#72b3c6" vector-effect="non-scaling-stroke" d="
  M 255.17 500.00
  Q 255.28 495.01 255.23 490.00
  Q 254.71 433.63 254.35 377.25
  Q 254.35 376.49 253.72 376.34"
/>
</g>
<path fill="#5a87a6" d="
  M 251.00 1.42
  Q 251.31 61.87 251.84 121.50
  Q 251.85 123.05 253.72 123.59
  Q 254.21 123.73 254.67 123.50
  Q 255.77 122.93 256.83 122.31
  Q 308.10 92.34 358.88 62.48
  Q 359.21 62.28 359.40 61.96
  Q 359.48 61.82 359.60 61.65
  Q 360.76 62.31 361.05 61.99
  C 360.59 63.26 360.13 64.46 360.29 65.78
  C 360.64 68.77 360.89 71.66 360.87 74.69
  Q 360.58 128.96 361.76 183.35
  Q 361.37 184.76 359.50 185.74
  L 251.30 125.52
  L 144.68 64.94
  Q 143.16 65.92 142.67 63.38
  Q 145.78 61.73 148.87 59.93
  Q 198.66 30.97 248.05 1.33
  Q 248.84 0.86 249.49 0.82
  Q 250.62 0.76 251.00 1.42
  Z"
/>
<path fill="#8adfe6" d="
  M 251.00 1.42
  L 359.60 61.65
  Q 359.48 61.82 359.40 61.96
  Q 359.21 62.28 358.88 62.48
  Q 308.10 92.34 256.83 122.31
  Q 255.77 122.93 254.67 123.50
  Q 254.21 123.73 253.72 123.59
  Q 251.85 123.05 251.84 121.50
  Q 251.31 61.87 251.00 1.42
  Z"
/>
<path fill="#0b004e" d="
  M 361.05 61.99
  L 469.65 123.95
  Q 468.66 124.09 467.69 124.65
  Q 417.63 153.97 367.54 183.22
  C 365.70 184.29 363.18 185.14 361.76 183.35
  Q 360.58 128.96 360.87 74.69
  C 360.89 71.66 360.64 68.77 360.29 65.78
  C 360.13 64.46 360.59 63.26 361.05 61.99
  Z"
/>
<path fill="#006898" d="
  M 142.67 63.38
  Q 143.16 65.92 144.68 64.94
  Q 142.71 66.90 142.71 68.50
  Q 142.74 100.16 143.57 185.97
  Q 143.58 186.54 144.19 187.75
  Q 143.63 188.01 143.24 187.80
  Q 89.48 157.71 35.68 127.65
  Q 35.38 127.48 35.32 127.14
  L 35.24 126.72
  L 142.67 63.38
  Z"
/>
<path fill="#0b004e" d="
  M 144.68 64.94
  L 251.30 125.52
  Q 198.25 156.71 145.49 187.97
  Q 145.23 188.12 144.99 188.14
  Q 144.72 188.15 144.43 188.11
  Q 144.38 187.77 144.19 187.75
  Q 143.58 186.54 143.57 185.97
  Q 142.74 100.16 142.71 68.50
  Q 142.71 66.90 144.68 64.94
  Z"
/>
<path fill="#006898" d="
  M 469.65 123.95
  Q 469.88 185.49 470.41 247.00
  Q 470.41 247.52 470.20 247.66
  A 0.72 0.71 -47.7 0 1 469.44 247.70
  Q 414.41 216.75 359.50 185.74
  Q 361.37 184.76 361.76 183.35
  C 363.18 185.14 365.70 184.29 367.54 183.22
  Q 417.63 153.97 467.69 124.65
  Q 468.66 124.09 469.65 123.95
  Z"
/>
<path fill="#8adfe6" d="
  M 35.24 126.72
  L 35.32 127.14
  Q 35.38 127.48 35.68 127.65
  Q 89.48 157.71 143.24 187.80
  Q 143.63 188.01 144.19 187.75
  Q 144.38 187.77 144.43 188.11
  L 37.88 250.14
  Q 35.48 251.54 35.46 248.76
  L 34.63 127.57
  Q 34.62 127.21 34.90 126.99
  L 35.24 126.72
  Z"
/>
<path fill="#0b004e" d="
  M 470.28 375.74
  Q 466.21 371.38 461.68 368.83
  Q 415.21 342.65 372.02 318.44
  C 368.48 316.46 362.07 312.30 362.21 320.63
  Q 363.28 388.82 363.01 434.00
  Q 363.00 435.60 361.81 437.07
  Q 360.22 436.53 358.94 435.81
  Q 308.76 407.35 258.45 379.11
  Q 257.15 378.38 255.84 375.97
  L 470.15 250.35
  A 0.41 0.40 73.7 0 1 470.76 250.69
  Q 471.28 279.08 471.25 310.01
  C 471.23 331.46 471.90 355.94 471.81 373.25
  Q 471.80 374.55 470.28 375.74
  Z"
/>
<path fill="#0b004e" d="
  M 142.22 313.35
  Q 140.65 316.87 138.56 318.10
  Q 90.44 346.48 42.32 374.83
  Q 40.26 376.04 37.46 378.62
  Q 36.32 378.22 36.31 377.25
  Q 35.83 316.14 35.30 255.36
  A 1.26 1.25 -75.6 0 1 37.17 254.25
  L 142.22 313.35
  Z"
/>
<path fill="#006898" d="
  M 142.22 313.35
  L 144.81 315.39
  Q 144.11 316.61 144.13 317.50
  Q 144.83 370.47 144.85 422.57
  C 144.85 428.11 146.11 433.41 145.59 438.90
  Q 144.69 439.20 145.00 439.67
  L 37.46 378.62
  Q 40.26 376.04 42.32 374.83
  Q 90.44 346.48 138.56 318.10
  Q 140.65 316.87 142.22 313.35
  Z"
/>
<path fill="#5a87a6" d="
  M 144.81 315.39
  L 253.00 376.27
  Q 252.39 377.71 251.30 378.35
  Q 205.27 405.40 159.31 432.58
  Q 151.55 437.17 145.59 438.90
  C 146.11 433.41 144.85 428.11 144.85 422.57
  Q 144.83 370.47 144.13 317.50
  Q 144.11 316.61 144.81 315.39
  Z"
/>
<path fill="#006898" d="
  M 470.28 375.74
  L 362.70 438.78
  L 361.81 437.07
  Q 363.00 435.60 363.01 434.00
  Q 363.28 388.82 362.21 320.63
  C 362.07 312.30 368.48 316.46 372.02 318.44
  Q 415.21 342.65 461.68 368.83
  Q 466.21 371.38 470.28 375.74
  Z"
/>
<path fill="#5a87a6" d="
  M 255.84 375.97
  Q 257.15 378.38 258.45 379.11
  Q 308.76 407.35 358.94 435.81
  Q 360.22 436.53 361.81 437.07
  L 362.70 438.78
  L 257.60 500.00
  L 255.17 500.00
  Q 255.28 495.01 255.23 490.00
  Q 254.71 433.63 254.35 377.25
  Q 254.35 376.49 253.72 376.34
  L 255.84 375.97
  Z"
/>
<path fill="#8adfe6" d="
  M 253.00 376.27
  Q 253.28 376.23 253.72 376.34
  Q 254.35 376.49 254.35 377.25
  Q 254.71 433.63 255.23 490.00
  Q 255.28 495.01 255.17 500.00
  L 250.87 500.00
  L 145.00 439.67
  Q 144.69 439.20 145.59 438.90
  Q 151.55 437.17 159.31 432.58
  Q 205.27 405.40 251.30 378.35
  Q 252.39 377.71 253.00 376.27
  Z"
/>
</svg>
