<?xml version="1.0" encoding="UTF-8" standalone="no"?>
<!DOCTYPE svg PUBLIC "-//W3C//DTD SVG 1.1//EN" "http://www.w3.org/Graphics/SVG/1.1/DTD/svg11.dtd">
<svg xmlns="http://www.w3.org/2000/svg" version="1.1" viewBox="0.00 0.00 464.00 464.00">
<g stroke-width="2.00" fill="none" stroke-linecap="butt">
<path stroke="#80b4cd" vector-effect="non-scaling-stroke" d="
  M 190.53 82.66
  L 150.67 106.18
  A 0.46 0.46 0.0 0 0 150.47 106.41
  Q 150.34 106.78 150.58 107.02"
/>
<path stroke="#c5eff3" vector-effect="non-scaling-stroke" d="
  M 150.58 107.02
  L 150.59 152.33
  Q 150.59 153.14 151.29 152.73
  L 191.21 129.31"
/>
<path stroke="#8580a6" vector-effect="non-scaling-stroke" d="
  M 191.21 129.31
  L 231.34 105.68"
/>
<path stroke="#adc3d3" vector-effect="non-scaling-stroke" d="
  M 231.34 105.68
  L 273.02 129.02"
/>
<path stroke="#80b4cd" vector-effect="non-scaling-stroke" d="
  M 273.02 129.02
  L 313.04 151.67
  Q 313.52 151.93 313.51 151.39
  Q 313.35 128.37 313.13 105.25
  Q 313.12 104.73 312.55 104.73"
/>
<path stroke="#8580a6" vector-effect="non-scaling-stroke" d="
  M 312.55 104.73
  L 272.01 81.96"
/>
<path stroke="#c5eff3" vector-effect="non-scaling-stroke" d="
  M 272.01 81.96
  L 231.20 58.90"
/>
<path stroke="#adc3d3" vector-effect="non-scaling-stroke" d="
  M 231.20 58.90
  Q 231.32 59.14 230.82 59.18
  Q 230.44 59.21 230.11 59.40
  L 190.53 82.66"
/>
<path stroke="#73b3c6" vector-effect="non-scaling-stroke" d="
  M 231.20 58.90
  Q 231.31 82.06 231.60 104.23
  A 0.95 0.95 0.0 0 0 232.12 105.06
  Q 232.37 105.18 232.74 104.97
  Q 252.28 93.51 272.01 81.96"
/>
<path stroke="#33447a" vector-effect="non-scaling-stroke" d="
  M 272.01 81.96
  L 272.77 127.78"
/>
<path stroke="#2e78a0" vector-effect="non-scaling-stroke" d="
  M 272.77 127.78
  L 273.02 129.02"
/>
<path stroke="#33447a" vector-effect="non-scaling-stroke" d="
  M 231.34 105.68
  L 191.22 82.94"
/>
<path stroke="#2e78a0" vector-effect="non-scaling-stroke" d="
  M 191.22 82.94
  L 190.53 82.66"
/>
<path stroke="#4a6f9a" vector-effect="non-scaling-stroke" d="
  M 191.21 129.31
  Q 190.93 129.28 190.88 128.95"
/>
<path stroke="#053574" vector-effect="non-scaling-stroke" d="
  M 191.22 82.94
  Q 190.79 83.06 190.79 83.75
  Q 190.76 104.54 191.15 125.34
  C 191.17 126.49 190.90 127.74 190.88 128.95"
/>
<path stroke="#45a4c0" vector-effect="non-scaling-stroke" d="
  M 190.88 128.95
  Q 190.49 128.67 189.90 128.62
  Q 189.41 128.58 188.98 128.34
  Q 170.13 117.66 151.27 106.99
  Q 150.85 106.75 150.58 107.02"
/>
<path stroke="#053574" vector-effect="non-scaling-stroke" d="
  M 312.55 104.73
  C 312.18 105.22 311.93 105.66 311.40 105.97
  Q 292.52 117.05 273.65 128.16
  Q 273.24 128.41 272.77 127.78"
/>
<path stroke="#adc3d3" vector-effect="non-scaling-stroke" d="
  M 232.67 199.85
  L 190.69 176.35"
/>
<path stroke="#8580a6" vector-effect="non-scaling-stroke" d="
  M 190.69 176.35
  L 150.90 153.81
  A 0.20 0.19 14.5 0 0 150.61 153.98
  L 150.91 200.48"
/>
<path stroke="#80b4cd" vector-effect="non-scaling-stroke" d="
  M 150.91 200.48
  L 191.79 223.67"
/>
<path stroke="#adc3d3" vector-effect="non-scaling-stroke" d="
  M 191.79 223.67
  L 192.15 223.71"
/>
<path stroke="#c5eff3" vector-effect="non-scaling-stroke" d="
  M 192.15 223.71
  L 232.88 246.75"
/>
<path stroke="#adc3d3" vector-effect="non-scaling-stroke" d="
  M 232.88 246.75
  L 273.09 223.12"
/>
<path stroke="#80b4cd" vector-effect="non-scaling-stroke" d="
  M 273.09 223.12
  L 313.12 199.57"
/>
<path stroke="#8580a6" vector-effect="non-scaling-stroke" d="
  M 313.12 199.57
  L 313.52 199.26
  Q 313.89 198.98 313.89 198.52
  L 313.54 152.96
  Q 313.54 152.28 312.94 152.63
  L 232.67 199.85"
/>
<path stroke="#053574" vector-effect="non-scaling-stroke" d="
  M 313.12 199.57
  Q 313.22 198.71 312.61 198.36
  Q 293.30 187.42 274.00 176.48
  A 0.75 0.75 0.0 0 0 272.88 177.14
  Q 273.23 199.12 273.27 221.25
  Q 273.27 222.50 272.56 222.49"
/>
<path stroke="#33447a" vector-effect="non-scaling-stroke" d="
  M 272.56 222.49
  L 232.67 199.85"
/>
<path stroke="#2e78a0" vector-effect="non-scaling-stroke" d="
  M 272.56 222.49
  Q 272.48 222.85 273.09 223.12"
/>
<path stroke="#73b3c6" vector-effect="non-scaling-stroke" d="
  M 232.88 246.75
  L 232.47 201.21
  A 0.82 0.82 0.0 0 0 231.23 200.51
  L 192.15 223.71"
/>
<path stroke="#2e78a0" vector-effect="non-scaling-stroke" d="
  M 191.79 223.67
  Q 191.47 217.23 191.54 210.88
  C 191.66 199.66 191.18 189.30 191.18 178.51
  Q 191.18 176.47 190.33 176.98"
/>
<path stroke="#33447a" vector-effect="non-scaling-stroke" d="
  M 190.69 176.35
  Q 191.17 176.48 190.33 176.98"
/>
<path stroke="#053574" vector-effect="non-scaling-stroke" d="
  M 190.33 176.98
  L 150.91 200.48"
/>
<path stroke="#8580a6" vector-effect="non-scaling-stroke" d="
  M 115.81 279.37
  C 116.03 270.06 105.89 269.09 98.79 269.70
  C 93.10 270.18 87.48 272.33 87.61 279.16
  Q 87.73 285.31 87.65 291.05
  Q 87.56 296.87 92.78 298.68
  C 99.46 300.99 116.03 301.83 115.79 290.66
  Q 115.67 285.00 115.81 279.37"
/>
<path stroke="#8580a6" vector-effect="non-scaling-stroke" d="
  M 246.78 278.04
  Q 246.73 274.81 250.06 274.72
  Q 257.33 274.52 262.22 275.43
  Q 262.49 275.48 262.49 275.21
  L 262.50 270.50
  Q 262.51 270.21 262.21 270.17
  C 256.65 269.45 248.17 268.73 243.04 271.42
  C 239.53 273.26 239.48 277.00 239.81 280.48
  C 240.45 287.00 247.27 287.22 252.16 287.00
  C 254.85 286.88 257.01 287.33 256.93 290.76
  C 256.89 292.30 256.84 293.94 255.06 294.47
  C 250.73 295.75 245.34 294.67 240.92 293.98
  A 0.49 0.49 0.0 0 0 240.35 294.46
  L 240.33 298.73
  Q 240.33 299.26 240.86 299.34
  Q 247.00 300.25 253.34 300.01
  C 258.32 299.82 263.29 298.28 263.92 292.43
  C 265.08 281.57 258.49 281.50 250.14 281.68
  Q 246.67 281.76 246.77 278.29
  Q 246.78 278.16 246.78 278.04"
/>
<path stroke="#8580a6" vector-effect="non-scaling-stroke" d="
  M 300.40 279.89
  L 300.50 278.04
  A 0.46 0.46 0.0 0 0 300.04 277.55
  L 294.76 277.57
  Q 294.16 277.57 294.16 278.18
  L 294.18 299.31
  A 0.39 0.38 90.0 0 0 294.56 299.70
  L 300.46 299.69
  A 0.31 0.30 90.0 0 0 300.76 299.38
  C 300.76 295.27 300.91 290.92 300.74 286.60
  C 300.58 282.55 305.13 282.34 308.07 282.65
  Q 308.61 282.70 308.61 282.16
  L 308.59 277.71
  Q 308.58 277.24 308.11 277.17
  Q 303.39 276.56 300.89 280.06
  Q 300.35 280.80 300.40 279.89"
/>
<path stroke="#8580a6" vector-effect="non-scaling-stroke" d="
  M 368.15 280.02
  L 368.13 278.22
  Q 368.13 277.56 367.47 277.56
  L 362.49 277.56
  Q 361.79 277.56 361.79 278.26
  L 361.79 299.24
  A 0.45 0.45 0.0 0 0 362.24 299.69
  L 368.02 299.69
  Q 368.45 299.69 368.45 299.26
  Q 368.48 293.09 368.45 286.43
  C 368.44 282.81 372.56 282.17 375.23 282.63
  Q 376.26 282.80 376.26 281.75
  L 376.26 277.88
  Q 376.26 277.17 375.55 277.11
  Q 370.67 276.74 368.59 280.14
  Q 368.16 280.84 368.15 280.02"
/>
<path stroke="#8580a6" vector-effect="non-scaling-stroke" d="
  M 128.26 279.01
  L 128.22 278.01
  Q 128.20 277.56 127.76 277.56
  L 122.01 277.55
  Q 121.58 277.55 121.58 277.99
  L 121.59 299.27
  Q 121.59 299.69 122.02 299.69
  L 127.77 299.69
  Q 128.23 299.69 128.23 299.23
  L 128.24 283.51
  Q 128.24 281.26 130.49 281.25
  L 133.26 281.23
  Q 135.31 281.21 135.31 283.26
  L 135.31 299.26
  Q 135.31 299.70 135.76 299.70
  L 141.53 299.69
  Q 141.99 299.68 141.99 299.22
  L 141.99 283.50
  Q 141.99 281.24 144.25 281.24
  L 147.15 281.24
  Q 149.06 281.23 149.07 283.15
  L 149.07 299.26
  A 0.44 0.44 0.0 0 0 149.51 299.70
  L 155.26 299.70
  Q 155.75 299.70 155.75 299.21
  Q 155.70 291.82 155.78 283.94
  C 155.81 280.20 154.82 277.54 150.45 277.20
  C 147.61 276.99 143.39 276.93 142.03 279.54
  Q 141.64 280.30 141.19 279.57
  C 139.15 276.25 130.98 276.29 128.78 279.17
  Q 128.30 279.80 128.26 279.01"
/>
<path stroke="#8580a6" vector-effect="non-scaling-stroke" d="
  M 169.39 290.37
  L 181.70 290.36
  Q 182.25 290.36 182.28 289.82
  Q 182.52 284.97 182.05 282.47
  C 180.94 276.60 172.91 276.76 168.28 277.43
  Q 161.40 278.42 161.30 284.89
  Q 161.24 289.28 161.38 293.59
  C 161.66 301.85 176.33 300.27 181.20 299.35
  Q 181.72 299.25 181.72 298.73
  L 181.74 295.53
  A 0.42 0.42 0.0 0 0 181.22 295.12
  Q 176.24 296.38 170.93 295.74
  Q 168.80 295.49 168.23 293.43
  Q 168.07 292.87 167.92 292.31
  Q 167.37 290.37 169.39 290.37"
/>
<path stroke="#8580a6" vector-effect="non-scaling-stroke" d="
  M 203.05 297.98
  C 203.18 300.61 203.52 304.25 200.25 305.07
  C 196.71 305.97 192.78 305.28 188.99 305.02
  Q 188.76 305.00 188.76 305.24
  L 188.76 309.04
  Q 188.76 309.32 189.04 309.35
  Q 196.20 310.27 202.84 309.07
  Q 209.78 307.83 209.74 300.31
  Q 209.70 288.87 209.73 278.21
  Q 209.73 277.56 209.07 277.56
  L 203.79 277.55
  Q 203.20 277.55 203.29 278.13
  Q 203.37 278.71 203.34 279.27
  Q 203.30 280.07 202.85 279.41
  Q 201.31 277.15 197.69 277.13
  C 193.32 277.11 187.32 276.97 187.27 283.10
  Q 187.24 287.67 187.15 293.04
  Q 187.11 295.34 187.83 296.94
  C 189.46 300.59 195.75 300.31 199.13 299.89
  Q 201.21 299.63 202.52 297.82
  Q 203.01 297.16 203.05 297.98"
/>
<path stroke="#8580a6" vector-effect="non-scaling-stroke" d="
  M 228.60 298.72
  L 228.57 299.25
  Q 228.55 299.71 229.00 299.71
  L 234.54 299.68
  A 0.45 0.45 0.0 0 0 234.99 299.23
  Q 235.04 291.06 234.96 283.73
  Q 234.90 278.48 230.04 277.65
  Q 224.30 276.67 215.97 277.55
  Q 215.73 277.57 215.74 277.81
  L 215.75 281.47
  Q 215.75 281.75 216.03 281.71
  Q 220.35 281.11 225.67 281.28
  Q 227.65 281.34 228.14 283.25
  Q 228.30 283.91 228.43 284.39
  Q 228.88 286.15 227.06 286.13
  Q 224.22 286.08 221.47 286.01
  C 214.62 285.85 213.62 289.22 214.06 295.21
  Q 214.38 299.64 218.85 300.00
  Q 223.18 300.34 226.39 299.54
  Q 226.80 299.43 227.13 299.13
  Q 227.52 298.77 227.92 298.40
  Q 228.65 297.74 228.60 298.72"
/>
<path stroke="#8580a6" vector-effect="non-scaling-stroke" d="
  M 276.13 290.37
  L 288.24 290.37
  Q 288.66 290.37 288.67 289.95
  C 288.78 284.80 289.61 278.86 282.93 277.55
  C 278.97 276.77 271.94 276.66 269.06 280.23
  C 266.86 282.97 267.79 288.81 267.64 292.38
  C 267.24 302.02 281.99 300.45 287.79 299.26
  A 0.30 0.30 0.0 0 0 288.03 298.97
  L 288.02 295.28
  Q 288.02 295.01 287.75 295.08
  Q 283.97 296.02 278.25 295.96
  Q 275.50 295.94 274.53 293.37
  Q 274.51 293.33 274.36 292.93
  Q 273.39 290.37 276.13 290.37"
/>
<path stroke="#8580a6" vector-effect="non-scaling-stroke" d="
  M 343.57 290.37
  L 355.73 290.36
  Q 356.26 290.36 356.29 289.83
  Q 356.47 286.16 356.14 283.05
  C 355.44 276.51 346.77 276.69 341.92 277.49
  Q 335.29 278.58 335.28 285.20
  Q 335.28 289.54 335.37 293.26
  C 335.58 301.83 349.57 300.42 355.46 299.26
  Q 355.72 299.21 355.72 298.95
  L 355.73 295.31
  Q 355.73 295.01 355.44 295.08
  Q 350.83 296.28 345.46 295.83
  Q 342.72 295.61 342.08 292.93
  Q 342.04 292.78 341.99 292.63
  Q 341.18 290.37 343.57 290.37"
/>
<path stroke="#8580a6" vector-effect="non-scaling-stroke" d="
  M 326.40 277.56
  A 0.31 0.31 0.0 0 0 326.10 277.78
  L 321.79 292.00
  A 0.31 0.31 0.0 0 1 321.20 292.00
  L 316.71 277.77
  A 0.31 0.31 0.0 0 0 316.41 277.55
  L 310.06 277.58
  A 0.31 0.31 0.0 0 0 309.77 278.00
  L 317.93 299.50
  A 0.31 0.31 0.0 0 0 318.22 299.70
  L 324.50 299.69
  A 0.31 0.31 0.0 0 0 324.79 299.49
  L 332.69 277.98
  A 0.31 0.31 0.0 0 0 332.40 277.56
  L 326.40 277.56"
/>
<path stroke="#8580a6" vector-effect="non-scaling-stroke" d="
  M 200.41 332.40
  L 200.47 328.19
  Q 200.48 327.65 199.94 327.62
  L 198.97 327.57
  Q 198.49 327.54 198.49 328.03
  L 198.49 342.73
  Q 198.49 343.23 198.98 343.22
  L 200.00 343.21
  Q 200.45 343.20 200.45 342.75
  L 200.45 335.25
  Q 200.45 333.69 202.00 333.67
  L 204.05 333.63
  Q 205.74 333.61 205.75 335.30
  L 205.75 342.48
  Q 205.75 343.21 206.48 343.22
  L 206.97 343.24
  Q 207.70 343.25 207.70 342.53
  L 207.71 334.78
  A 2.38 2.37 8.5 0 0 206.01 332.49
  Q 203.44 331.73 201.05 332.82
  Q 200.39 333.13 200.41 332.40"
/>
<path stroke="#8580a6" vector-effect="non-scaling-stroke" d="
  M 298.50 332.48
  L 298.53 328.06
  Q 298.54 327.58 298.06 327.59
  L 296.96 327.63
  Q 296.56 327.65 296.56 328.04
  L 296.57 342.76
  Q 296.57 343.21 297.01 343.20
  L 298.03 343.20
  Q 298.51 343.20 298.51 342.72
  L 298.53 335.31
  Q 298.53 333.65 300.19 333.65
  L 302.24 333.65
  Q 303.82 333.65 303.83 335.24
  L 303.86 342.53
  Q 303.86 343.20 304.53 343.21
  L 305.23 343.22
  Q 305.77 343.23 305.78 342.68
  Q 305.83 339.08 305.80 335.04
  C 305.77 331.42 301.10 331.88 299.09 332.85
  Q 298.50 333.14 298.50 332.48"
/>
<path stroke="#8580a6" vector-effect="non-scaling-stroke" d="
  M 216.18 330.63
  A 0.72 0.71 -88.3 0 0 216.67 330.16
  Q 217.16 328.60 215.56 328.46
  A 0.93 0.92 -88.4 0 0 214.55 329.42
  Q 214.57 329.76 214.63 330.10
  Q 214.72 330.61 215.22 330.68
  Q 215.72 330.76 216.18 330.63"
/>
<path stroke="#8580a6" vector-effect="non-scaling-stroke" d="
  M 264.39 330.07
  A 0.75 0.74 0.7 0 0 264.94 330.63
  Q 265.52 330.78 266.06 330.53
  Q 266.49 330.32 266.54 329.81
  Q 266.62 329.11 266.14 328.67
  A 1.05 1.04 -59.7 0 0 264.44 329.12
  Q 264.29 329.56 264.39 330.07"
/>
<path stroke="#8580a6" vector-effect="non-scaling-stroke" d="
  M 189.00 331.87
  L 189.03 329.77
  Q 189.03 329.00 188.27 329.00
  L 187.75 329.00
  Q 187.00 329.00 187.00 329.75
  L 187.02 331.97
  A 0.50 0.50 0.0 0 1 186.53 332.47
  L 185.06 332.49
  Q 184.74 332.50 184.57 332.77
  Q 184.46 332.94 184.51 333.10
  Q 184.67 333.53 185.12 333.62
  Q 185.75 333.74 186.39 333.69
  Q 187.00 333.64 187.00 334.25
  L 187.02 340.93
  A 2.29 2.28 7.2 0 0 188.74 343.14
  Q 190.51 343.58 192.52 343.20
  Q 193.02 343.11 192.97 342.60
  L 192.94 342.30
  Q 192.91 342.00 192.60 342.00
  L 190.28 342.01
  A 1.23 1.23 0.0 0 1 189.04 340.78
  L 189.01 334.21
  Q 189.01 333.67 189.54 333.68
  L 192.51 333.72
  Q 192.99 333.72 192.96 333.24
  L 192.93 332.82
  Q 192.91 332.43 192.52 332.44
  L 189.62 332.48
  A 0.61 0.61 0.0 0 1 189.00 331.87"
/>
<path stroke="#8580a6" vector-effect="non-scaling-stroke" d="
  M 118.50 338.23
  L 124.52 338.23
  Q 125.09 338.23 125.14 337.66
  Q 125.33 335.53 124.72 333.86
  Q 124.43 333.07 123.64 332.76
  C 121.54 331.95 116.23 331.54 116.02 334.97
  Q 115.87 337.47 115.91 340.28
  A 2.86 2.86 0.0 0 0 118.13 343.02
  Q 120.92 343.66 124.09 343.09
  Q 124.76 342.97 124.75 342.28
  L 124.74 342.01
  Q 124.73 341.38 124.13 341.55
  Q 121.45 342.29 119.02 341.66
  A 1.20 1.19 84.5 0 1 118.23 341.00
  Q 117.76 340.04 117.86 338.83
  Q 117.91 338.23 118.50 338.23"
/>
<path stroke="#8580a6" vector-effect="non-scaling-stroke" d="
  M 134.98 340.70
  L 132.53 333.21
  Q 132.33 332.60 131.70 332.49
  L 131.01 332.35
  Q 130.07 332.18 130.39 333.08
  L 133.81 342.53
  A 1.02 1.02 0.0 0 0 134.55 343.18
  Q 135.26 343.33 135.98 343.16
  Q 136.46 343.05 136.62 342.59
  L 139.89 333.18
  Q 140.12 332.50 139.42 332.38
  L 139.08 332.32
  Q 138.31 332.19 138.08 332.93
  L 135.61 340.70
  Q 135.30 341.68 134.98 340.70"
/>
<path stroke="#8580a6" vector-effect="non-scaling-stroke" d="
  M 147.54 338.24
  L 153.22 338.23
  Q 154.41 338.22 154.36 337.03
  L 154.28 334.92
  Q 154.20 333.08 152.44 332.57
  C 150.71 332.06 147.14 331.78 145.84 333.53
  C 144.72 335.04 145.20 338.00 145.13 339.78
  C 144.95 344.16 150.87 343.55 153.40 343.07
  A 0.75 0.75 0.0 0 0 154.00 342.29
  L 153.99 341.95
  Q 153.95 341.31 153.34 341.51
  Q 150.68 342.38 148.12 341.57
  Q 147.31 341.32 147.24 340.48
  L 147.10 338.71
  Q 147.06 338.24 147.54 338.24"
/>
<path stroke="#8580a6" vector-effect="non-scaling-stroke" d="
  M 162.94 332.96
  Q 162.50 332.07 161.52 332.35
  Q 160.99 332.49 160.99 333.04
  L 161.00 342.48
  Q 161.00 343.21 161.73 343.21
  L 162.26 343.22
  Q 163.00 343.22 163.00 342.48
  L 163.02 335.15
  A 0.96 0.96 0.0 0 1 163.83 334.20
  L 166.53 333.74
  A 0.49 0.49 0.0 0 0 166.94 333.22
  L 166.92 332.89
  Q 166.87 332.22 166.21 332.17
  Q 164.67 332.05 163.65 333.08
  Q 163.21 333.51 162.94 332.96"
/>
<path stroke="#8580a6" vector-effect="non-scaling-stroke" d="
  M 175.99 340.42
  A 0.31 0.31 0.0 0 1 175.40 340.43
  L 172.74 332.58
  A 0.31 0.31 0.0 0 0 172.42 332.37
  L 170.97 332.51
  A 0.31 0.31 0.0 0 0 170.71 332.93
  L 174.65 343.23
  A 0.31 0.31 0.0 0 1 174.65 343.45
  L 173.17 347.28
  A 0.31 0.31 0.0 0 0 173.42 347.70
  L 174.76 347.86
  A 0.31 0.31 0.0 0 0 175.09 347.66
  L 180.29 332.87
  A 0.31 0.31 0.0 0 0 180.00 332.46
  L 178.64 332.48
  A 0.31 0.31 0.0 0 0 178.34 332.70
  L 175.99 340.42"
/>
<path stroke="#8580a6" vector-effect="non-scaling-stroke" d="
  M 216.5015 332.8985
  A 0.56 0.56 0.0 0 0 215.9405 332.3394
  L 215.3005 332.3406
  A 0.56 0.56 0.0 0 0 214.7415 332.9015
  L 214.7585 342.6215
  A 0.56 0.56 0.0 0 0 215.3195 343.1806
  L 215.9595 343.1794
  A 0.56 0.56 0.0 0 0 216.5185 342.6185
  L 216.5015 332.8985"
/>
<path stroke="#8580a6" vector-effect="non-scaling-stroke" d="
  M 227.17 333.65
  L 229.11 333.59
  Q 230.86 333.53 230.86 335.28
  L 230.87 342.54
  Q 230.87 343.20 231.54 343.21
  L 232.30 343.22
  Q 232.84 343.23 232.84 342.70
  L 232.82 334.75
  A 2.46 2.45 4.5 0 0 230.75 332.33
  Q 228.66 332.00 226.69 332.56
  Q 226.12 332.72 225.54 332.63
  L 224.27 332.42
  Q 223.60 332.30 223.60 332.98
  L 223.59 342.52
  A 0.70 0.70 0.0 0 0 224.28 343.22
  L 224.90 343.22
  Q 225.53 343.23 225.53 342.60
  L 225.54 335.33
  Q 225.55 333.71 227.17 333.65"
/>
<path stroke="#8580a6" vector-effect="non-scaling-stroke" d="
  M 246.96 343.09
  C 247.77 347.73 243.27 346.90 240.57 346.44
  A 0.42 0.42 0.0 0 0 240.08 346.82
  L 240.05 347.17
  A 0.67 0.67 0.0 0 0 240.65 347.89
  C 243.55 348.21 248.89 348.78 248.94 344.43
  Q 248.99 339.13 248.99 333.12
  Q 248.99 332.67 248.60 332.45
  Q 248.00 332.10 247.44 332.55
  Q 247.01 332.90 246.50 332.71
  C 244.34 331.93 239.54 331.60 239.43 335.13
  Q 239.34 338.27 239.50 341.05
  A 2.24 2.24 0.0 0 0 241.25 343.12
  Q 244.16 343.79 246.35 342.77
  Q 246.86 342.54 246.96 343.09"
/>
<path stroke="#8580a6" vector-effect="non-scaling-stroke" d="
  M 275.92 333.66
  Q 278.22 333.29 280.58 333.75
  Q 280.93 333.81 281.00 333.47
  L 281.08 333.07
  Q 281.22 332.41 280.54 332.33
  C 278.31 332.06 273.45 331.61 272.97 334.68
  C 272.31 338.77 276.14 338.15 278.57 338.41
  A 1.18 1.17 1.2 0 1 279.61 339.49
  L 279.68 340.40
  Q 279.79 341.82 278.37 341.93
  Q 276.05 342.10 273.67 341.72
  Q 273.29 341.66 273.25 342.04
  L 273.21 342.46
  Q 273.16 343.06 273.76 343.15
  C 276.83 343.61 282.07 344.13 281.58 339.37
  C 281.25 336.23 278.03 336.98 275.85 336.70
  Q 274.99 336.59 274.98 335.73
  L 274.96 334.80
  Q 274.94 333.82 275.92 333.66"
/>
<path stroke="#8580a6" vector-effect="non-scaling-stroke" d="
  M 315.51 338.24
  L 320.22 338.23
  Q 321.66 338.22 321.60 336.78
  L 321.52 335.05
  Q 321.42 332.95 319.37 332.47
  C 316.95 331.90 312.60 331.81 312.44 335.29
  Q 312.34 337.49 312.36 339.88
  C 312.39 344.10 317.83 343.60 320.73 343.04
  Q 321.30 342.92 321.25 342.34
  L 321.22 341.96
  A 0.39 0.39 0.0 0 0 320.79 341.61
  L 316.78 342.04
  Q 314.77 342.25 314.48 340.25
  Q 314.45 340.04 314.38 339.84
  Q 313.81 338.24 315.51 338.24"
/>
<path stroke="#8580a6" vector-effect="non-scaling-stroke" d="
  M 329.93 332.98
  Q 329.54 332.24 328.63 332.30
  A 0.70 0.70 0.0 0 0 327.98 333.00
  L 327.99 342.46
  Q 327.99 343.19 328.71 343.20
  L 329.26 343.21
  Q 329.99 343.22 329.99 342.49
  L 330.01 335.17
  A 0.99 0.99 0.0 0 1 330.82 334.20
  L 333.54 333.71
  Q 333.97 333.64 333.94 333.20
  L 333.91 332.88
  Q 333.87 332.24 333.23 332.18
  Q 331.67 332.04 330.64 333.08
  Q 330.22 333.51 329.93 332.98"
/>
<path stroke="#8580a6" vector-effect="non-scaling-stroke" d="
  M 341.85 338.24
  L 346.80 338.22
  Q 348.33 338.22 348.22 336.70
  L 348.10 334.94
  Q 347.97 332.92 345.99 332.47
  C 343.54 331.92 339.05 331.88 338.99 335.27
  Q 338.95 337.75 338.94 340.22
  C 338.92 344.02 344.78 343.48 347.08 343.12
  Q 347.75 343.01 347.78 342.33
  L 347.80 342.05
  A 0.52 0.52 0.0 0 0 347.13 341.53
  Q 344.68 342.26 342.33 341.74
  Q 341.03 341.45 340.99 340.12
  L 340.97 339.15
  Q 340.94 338.24 341.85 338.24"
/>
<path stroke="#8580a6" vector-effect="non-scaling-stroke" d="
  M 266.41 332.87
  A 0.42 0.42 0.0 0 0 265.99 332.45
  L 264.89 332.45
  A 0.42 0.42 0.0 0 0 264.47 332.87
  L 264.47 342.79
  A 0.42 0.42 0.0 0 0 264.89 343.21
  L 265.99 343.21
  A 0.42 0.42 0.0 0 0 266.41 342.79
  L 266.41 332.87"
/>
<path stroke="#8580a6" vector-effect="non-scaling-stroke" d="
  M 108.67 278.56
  A 3.84 3.84 0.0 0 0 104.83 274.72
  L 98.59 274.72
  A 3.84 3.84 0.0 0 0 94.75 278.56
  L 94.75 291.16
  A 3.84 3.84 0.0 0 0 98.59 295.00
  L 104.83 295.00
  A 3.84 3.84 0.0 0 0 108.67 291.16
  L 108.67 278.56"
/>
<path stroke="#8580a6" vector-effect="non-scaling-stroke" d="
  M 168.41 286.60
  L 175.63 286.60
  A 0.43 0.43 0.0 0 0 176.06 286.17
  L 176.06 283.62
  A 2.52 2.38 -0.0 0 0 173.54 281.24
  L 170.50 281.24
  A 2.52 2.38 0.0 0 0 167.98 283.62
  L 167.98 286.17
  A 0.43 0.43 0.0 0 0 168.41 286.60"
/>
<path stroke="#8580a6" vector-effect="non-scaling-stroke" d="
  M 203.0671 283.6962
  A 2.42 2.42 0.0 0 0 200.6556 281.2677
  L 196.2556 281.2524
  A 2.42 2.42 0.0 0 0 193.8272 283.6639
  L 193.7929 293.5038
  A 2.42 2.42 0.0 0 0 196.2044 295.9323
  L 200.6044 295.9476
  A 2.42 2.42 0.0 0 0 203.0328 293.5361
  L 203.0671 283.6962"
/>
<path stroke="#8580a6" vector-effect="non-scaling-stroke" d="
  M 220.71 290.83
  Q 220.22 292.94 220.68 294.99
  A 0.88 0.86 89.9 0 0 221.34 295.66
  Q 224.55 296.41 227.58 295.64
  A 0.98 0.97 -7.1 0 0 228.31 294.71
  L 228.36 290.28
  Q 228.37 289.69 227.78 289.70
  L 222.05 289.75
  Q 220.96 289.76 220.71 290.83"
/>
<path stroke="#8580a6" vector-effect="non-scaling-stroke" d="
  M 274.66 286.60
  L 282.02 286.58
  A 0.37 0.37 0.0 0 0 282.39 286.21
  L 282.39 283.63
  A 2.61 2.41 -0.1 0 0 279.78 281.23
  L 276.90 281.23
  A 2.61 2.41 -0.1 0 0 274.29 283.65
  L 274.29 286.23
  A 0.37 0.37 0.0 0 0 274.66 286.60"
/>
<path stroke="#8580a6" vector-effect="non-scaling-stroke" d="
  M 342.35 286.61
  L 349.69 286.59
  A 0.37 0.37 0.0 0 0 350.06 286.22
  L 350.06 283.56
  A 2.57 2.33 -0.1 0 0 347.49 281.24
  L 344.55 281.24
  A 2.57 2.33 -0.1 0 0 341.98 283.58
  L 341.98 286.24
  A 0.37 0.37 0.0 0 0 342.35 286.61"
/>
<path stroke="#8580a6" vector-effect="non-scaling-stroke" d="
  M 118.48 336.92
  L 122.56 336.94
  A 0.62 0.62 0.0 0 0 123.18 336.32
  L 123.19 335.30
  A 1.87 1.76 0.3 0 0 121.33 333.53
  L 119.75 333.53
  A 1.87 1.76 0.3 0 0 117.87 335.28
  L 117.86 336.30
  A 0.62 0.62 0.0 0 0 118.48 336.92"
/>
<path stroke="#8580a6" vector-effect="non-scaling-stroke" d="
  M 147.56 336.90
  L 151.96 336.94
  A 0.47 0.47 0.0 0 0 152.43 336.47
  L 152.44 335.31
  A 1.99 1.77 0.5 0 0 150.46 333.53
  L 149.10 333.51
  A 1.99 1.77 0.5 0 0 147.10 335.27
  L 147.09 336.43
  A 0.47 0.47 0.0 0 0 147.56 336.90"
/>
<path stroke="#8580a6" vector-effect="non-scaling-stroke" d="
  M 246.9708 335.1501
  A 1.58 1.58 0.0 0 0 245.3853 333.5756
  L 242.8653 333.5844
  A 1.58 1.58 0.0 0 0 241.2908 335.1699
  L 241.3092 340.4299
  A 1.58 1.58 0.0 0 0 242.8947 342.0044
  L 245.4147 341.9956
  A 1.58 1.58 0.0 0 0 246.9892 340.4101
  L 246.9708 335.1501"
/>
<path stroke="#8580a6" vector-effect="non-scaling-stroke" d="
  M 314.80 336.92
  L 319.20 336.92
  A 0.47 0.47 0.0 0 0 319.67 336.45
  L 319.67 335.32
  A 1.89 1.80 0.1 0 0 317.78 333.52
  L 316.22 333.52
  A 1.89 1.80 0.1 0 0 314.33 335.32
  L 314.33 336.45
  A 0.47 0.47 0.0 0 0 314.80 336.92"
/>
<path stroke="#8580a6" vector-effect="non-scaling-stroke" d="
  M 341.43 336.91
  L 345.77 336.95
  A 0.48 0.48 0.0 0 0 346.25 336.47
  L 346.26 335.23
  A 1.96 1.68 0.5 0 0 344.31 333.54
  L 342.93 333.52
  A 1.96 1.68 0.5 0 0 340.96 335.19
  L 340.95 336.43
  A 0.48 0.48 0.0 0 0 341.43 336.91"
/>
</g>
<path fill="#ffffff" d="
  M 0.00 0.00
  L 464.00 0.00
  L 464.00 464.00
  L 0.00 464.00
  L 0.00 0.00
  Z
  M 190.53 82.66
  L 150.67 106.18
  A 0.46 0.46 0.0 0 0 150.47 106.41
  Q 150.34 106.78 150.58 107.02
  L 150.59 152.33
  Q 150.59 153.14 151.29 152.73
  L 191.21 129.31
  L 231.34 105.68
  L 273.02 129.02
  L 313.04 151.67
  Q 313.52 151.93 313.51 151.39
  Q 313.35 128.37 313.13 105.25
  Q 313.12 104.73 312.55 104.73
  L 272.01 81.96
  L 231.20 58.90
  Q 231.32 59.14 230.82 59.18
  Q 230.44 59.21 230.11 59.40
  L 190.53 82.66
  Z
  M 232.67 199.85
  L 190.69 176.35
  L 150.90 153.81
  A 0.20 0.19 14.5 0 0 150.61 153.98
  L 150.91 200.48
  L 191.79 223.67
  L 192.15 223.71
  L 232.88 246.75
  L 273.09 223.12
  L 313.12 199.57
  L 313.52 199.26
  Q 313.89 198.98 313.89 198.52
  L 313.54 152.96
  Q 313.54 152.28 312.94 152.63
  L 232.67 199.85
  Z
  M 115.81 279.37
  C 116.03 270.06 105.89 269.09 98.79 269.70
  C 93.10 270.18 87.48 272.33 87.61 279.16
  Q 87.73 285.31 87.65 291.05
  Q 87.56 296.87 92.78 298.68
  C 99.46 300.99 116.03 301.83 115.79 290.66
  Q 115.67 285.00 115.81 279.37
  Z
  M 246.78 278.04
  Q 246.73 274.81 250.06 274.72
  Q 257.33 274.52 262.22 275.43
  Q 262.49 275.48 262.49 275.21
  L 262.50 270.50
  Q 262.51 270.21 262.21 270.17
  C 256.65 269.45 248.17 268.73 243.04 271.42
  C 239.53 273.26 239.48 277.00 239.81 280.48
  C 240.45 287.00 247.27 287.22 252.16 287.00
  C 254.85 286.88 257.01 287.33 256.93 290.76
  C 256.89 292.30 256.84 293.94 255.06 294.47
  C 250.73 295.75 245.34 294.67 240.92 293.98
  A 0.49 0.49 0.0 0 0 240.35 294.46
  L 240.33 298.73
  Q 240.33 299.26 240.86 299.34
  Q 247.00 300.25 253.34 300.01
  C 258.32 299.82 263.29 298.28 263.92 292.43
  C 265.08 281.57 258.49 281.50 250.14 281.68
  Q 246.67 281.76 246.77 278.29
  Q 246.78 278.16 246.78 278.04
  Z
  M 300.40 279.89
  L 300.50 278.04
  A 0.46 0.46 0.0 0 0 300.04 277.55
  L 294.76 277.57
  Q 294.16 277.57 294.16 278.18
  L 294.18 299.31
  A 0.39 0.38 90.0 0 0 294.56 299.70
  L 300.46 299.69
  A 0.31 0.30 90.0 0 0 300.76 299.38
  C 300.76 295.27 300.91 290.92 300.74 286.60
  C 300.58 282.55 305.13 282.34 308.07 282.65
  Q 308.61 282.70 308.61 282.16
  L 308.59 277.71
  Q 308.58 277.24 308.11 277.17
  Q 303.39 276.56 300.89 280.06
  Q 300.35 280.80 300.40 279.89
  Z
  M 368.15 280.02
  L 368.13 278.22
  Q 368.13 277.56 367.47 277.56
  L 362.49 277.56
  Q 361.79 277.56 361.79 278.26
  L 361.79 299.24
  A 0.45 0.45 0.0 0 0 362.24 299.69
  L 368.02 299.69
  Q 368.45 299.69 368.45 299.26
  Q 368.48 293.09 368.45 286.43
  C 368.44 282.81 372.56 282.17 375.23 282.63
  Q 376.26 282.80 376.26 281.75
  L 376.26 277.88
  Q 376.26 277.17 375.55 277.11
  Q 370.67 276.74 368.59 280.14
  Q 368.16 280.84 368.15 280.02
  Z
  M 128.26 279.01
  L 128.22 278.01
  Q 128.20 277.56 127.76 277.56
  L 122.01 277.55
  Q 121.58 277.55 121.58 277.99
  L 121.59 299.27
  Q 121.59 299.69 122.02 299.69
  L 127.77 299.69
  Q 128.23 299.69 128.23 299.23
  L 128.24 283.51
  Q 128.24 281.26 130.49 281.25
  L 133.26 281.23
  Q 135.31 281.21 135.31 283.26
  L 135.31 299.26
  Q 135.31 299.70 135.76 299.70
  L 141.53 299.69
  Q 141.99 299.68 141.99 299.22
  L 141.99 283.50
  Q 141.99 281.24 144.25 281.24
  L 147.15 281.24
  Q 149.06 281.23 149.07 283.15
  L 149.07 299.26
  A 0.44 0.44 0.0 0 0 149.51 299.70
  L 155.26 299.70
  Q 155.75 299.70 155.75 299.21
  Q 155.70 291.82 155.78 283.94
  C 155.81 280.20 154.82 277.54 150.45 277.20
  C 147.61 276.99 143.39 276.93 142.03 279.54
  Q 141.64 280.30 141.19 279.57
  C 139.15 276.25 130.98 276.29 128.78 279.17
  Q 128.30 279.80 128.26 279.01
  Z
  M 169.39 290.37
  L 181.70 290.36
  Q 182.25 290.36 182.28 289.82
  Q 182.52 284.97 182.05 282.47
  C 180.94 276.60 172.91 276.76 168.28 277.43
  Q 161.40 278.42 161.30 284.89
  Q 161.24 289.28 161.38 293.59
  C 161.66 301.85 176.33 300.27 181.20 299.35
  Q 181.72 299.25 181.72 298.73
  L 181.74 295.53
  A 0.42 0.42 0.0 0 0 181.22 295.12
  Q 176.24 296.38 170.93 295.74
  Q 168.80 295.49 168.23 293.43
  Q 168.07 292.87 167.92 292.31
  Q 167.37 290.37 169.39 290.37
  Z
  M 203.05 297.98
  C 203.18 300.61 203.52 304.25 200.25 305.07
  C 196.71 305.97 192.78 305.28 188.99 305.02
  Q 188.76 305.00 188.76 305.24
  L 188.76 309.04
  Q 188.76 309.32 189.04 309.35
  Q 196.20 310.27 202.84 309.07
  Q 209.78 307.83 209.74 300.31
  Q 209.70 288.87 209.73 278.21
  Q 209.73 277.56 209.07 277.56
  L 203.79 277.55
  Q 203.20 277.55 203.29 278.13
  Q 203.37 278.71 203.34 279.27
  Q 203.30 280.07 202.85 279.41
  Q 201.31 277.15 197.69 277.13
  C 193.32 277.11 187.32 276.97 187.27 283.10
  Q 187.24 287.67 187.15 293.04
  Q 187.11 295.34 187.83 296.94
  C 189.46 300.59 195.75 300.31 199.13 299.89
  Q 201.21 299.63 202.52 297.82
  Q 203.01 297.16 203.05 297.98
  Z
  M 228.60 298.72
  L 228.57 299.25
  Q 228.55 299.71 229.00 299.71
  L 234.54 299.68
  A 0.45 0.45 0.0 0 0 234.99 299.23
  Q 235.04 291.06 234.96 283.73
  Q 234.90 278.48 230.04 277.65
  Q 224.30 276.67 215.97 277.55
  Q 215.73 277.57 215.74 277.81
  L 215.75 281.47
  Q 215.75 281.75 216.03 281.71
  Q 220.35 281.11 225.67 281.28
  Q 227.65 281.34 228.14 283.25
  Q 228.30 283.91 228.43 284.39
  Q 228.88 286.15 227.06 286.13
  Q 224.22 286.08 221.47 286.01
  C 214.62 285.85 213.62 289.22 214.06 295.21
  Q 214.38 299.64 218.85 300.00
  Q 223.18 300.34 226.39 299.54
  Q 226.80 299.43 227.13 299.13
  Q 227.52 298.77 227.92 298.40
  Q 228.65 297.74 228.60 298.72
  Z
  M 276.13 290.37
  L 288.24 290.37
  Q 288.66 290.37 288.67 289.95
  C 288.78 284.80 289.61 278.86 282.93 277.55
  C 278.97 276.77 271.94 276.66 269.06 280.23
  C 266.86 282.97 267.79 288.81 267.64 292.38
  C 267.24 302.02 281.99 300.45 287.79 299.26
  A 0.30 0.30 0.0 0 0 288.03 298.97
  L 288.02 295.28
  Q 288.02 295.01 287.75 295.08
  Q 283.97 296.02 278.25 295.96
  Q 275.50 295.94 274.53 293.37
  Q 274.51 293.33 274.36 292.93
  Q 273.39 290.37 276.13 290.37
  Z
  M 343.57 290.37
  L 355.73 290.36
  Q 356.26 290.36 356.29 289.83
  Q 356.47 286.16 356.14 283.05
  C 355.44 276.51 346.77 276.69 341.92 277.49
  Q 335.29 278.58 335.28 285.20
  Q 335.28 289.54 335.37 293.26
  C 335.58 301.83 349.57 300.42 355.46 299.26
  Q 355.72 299.21 355.72 298.95
  L 355.73 295.31
  Q 355.73 295.01 355.44 295.08
  Q 350.83 296.28 345.46 295.83
  Q 342.72 295.61 342.08 292.93
  Q 342.04 292.78 341.99 292.63
  Q 341.18 290.37 343.57 290.37
  Z
  M 326.40 277.56
  A 0.31 0.31 0.0 0 0 326.10 277.78
  L 321.79 292.00
  A 0.31 0.31 0.0 0 1 321.20 292.00
  L 316.71 277.77
  A 0.31 0.31 0.0 0 0 316.41 277.55
  L 310.06 277.58
  A 0.31 0.31 0.0 0 0 309.77 278.00
  L 317.93 299.50
  A 0.31 0.31 0.0 0 0 318.22 299.70
  L 324.50 299.69
  A 0.31 0.31 0.0 0 0 324.79 299.49
  L 332.69 277.98
  A 0.31 0.31 0.0 0 0 332.40 277.56
  L 326.40 277.56
  Z
  M 200.41 332.40
  L 200.47 328.19
  Q 200.48 327.65 199.94 327.62
  L 198.97 327.57
  Q 198.49 327.54 198.49 328.03
  L 198.49 342.73
  Q 198.49 343.23 198.98 343.22
  L 200.00 343.21
  Q 200.45 343.20 200.45 342.75
  L 200.45 335.25
  Q 200.45 333.69 202.00 333.67
  L 204.05 333.63
  Q 205.74 333.61 205.75 335.30
  L 205.75 342.48
  Q 205.75 343.21 206.48 343.22
  L 206.97 343.24
  Q 207.70 343.25 207.70 342.53
  L 207.71 334.78
  A 2.38 2.37 8.5 0 0 206.01 332.49
  Q 203.44 331.73 201.05 332.82
  Q 200.39 333.13 200.41 332.40
  Z
  M 298.50 332.48
  L 298.53 328.06
  Q 298.54 327.58 298.06 327.59
  L 296.96 327.63
  Q 296.56 327.65 296.56 328.04
  L 296.57 342.76
  Q 296.57 343.21 297.01 343.20
  L 298.03 343.20
  Q 298.51 343.20 298.51 342.72
  L 298.53 335.31
  Q 298.53 333.65 300.19 333.65
  L 302.24 333.65
  Q 303.82 333.65 303.83 335.24
  L 303.86 342.53
  Q 303.86 343.20 304.53 343.21
  L 305.23 343.22
  Q 305.77 343.23 305.78 342.68
  Q 305.83 339.08 305.80 335.04
  C 305.77 331.42 301.10 331.88 299.09 332.85
  Q 298.50 333.14 298.50 332.48
  Z
  M 216.18 330.63
  A 0.72 0.71 -88.3 0 0 216.67 330.16
  Q 217.16 328.60 215.56 328.46
  A 0.93 0.92 -88.4 0 0 214.55 329.42
  Q 214.57 329.76 214.63 330.10
  Q 214.72 330.61 215.22 330.68
  Q 215.72 330.76 216.18 330.63
  Z
  M 264.39 330.07
  A 0.75 0.74 0.7 0 0 264.94 330.63
  Q 265.52 330.78 266.06 330.53
  Q 266.49 330.32 266.54 329.81
  Q 266.62 329.11 266.14 328.67
  A 1.05 1.04 -59.7 0 0 264.44 329.12
  Q 264.29 329.56 264.39 330.07
  Z
  M 189.00 331.87
  L 189.03 329.77
  Q 189.03 329.00 188.27 329.00
  L 187.75 329.00
  Q 187.00 329.00 187.00 329.75
  L 187.02 331.97
  A 0.50 0.50 0.0 0 1 186.53 332.47
  L 185.06 332.49
  Q 184.74 332.50 184.57 332.77
  Q 184.46 332.94 184.51 333.10
  Q 184.67 333.53 185.12 333.62
  Q 185.75 333.74 186.39 333.69
  Q 187.00 333.64 187.00 334.25
  L 187.02 340.93
  A 2.29 2.28 7.2 0 0 188.74 343.14
  Q 190.51 343.58 192.52 343.20
  Q 193.02 343.11 192.97 342.60
  L 192.94 342.30
  Q 192.91 342.00 192.60 342.00
  L 190.28 342.01
  A 1.23 1.23 0.0 0 1 189.04 340.78
  L 189.01 334.21
  Q 189.01 333.67 189.54 333.68
  L 192.51 333.72
  Q 192.99 333.72 192.96 333.24
  L 192.93 332.82
  Q 192.91 332.43 192.52 332.44
  L 189.62 332.48
  A 0.61 0.61 0.0 0 1 189.00 331.87
  Z
  M 118.50 338.23
  L 124.52 338.23
  Q 125.09 338.23 125.14 337.66
  Q 125.33 335.53 124.72 333.86
  Q 124.43 333.07 123.64 332.76
  C 121.54 331.95 116.23 331.54 116.02 334.97
  Q 115.87 337.47 115.91 340.28
  A 2.86 2.86 0.0 0 0 118.13 343.02
  Q 120.92 343.66 124.09 343.09
  Q 124.76 342.97 124.75 342.28
  L 124.74 342.01
  Q 124.73 341.38 124.13 341.55
  Q 121.45 342.29 119.02 341.66
  A 1.20 1.19 84.5 0 1 118.23 341.00
  Q 117.76 340.04 117.86 338.83
  Q 117.91 338.23 118.50 338.23
  Z
  M 134.98 340.70
  L 132.53 333.21
  Q 132.33 332.60 131.70 332.49
  L 131.01 332.35
  Q 130.07 332.18 130.39 333.08
  L 133.81 342.53
  A 1.02 1.02 0.0 0 0 134.55 343.18
  Q 135.26 343.33 135.98 343.16
  Q 136.46 343.05 136.62 342.59
  L 139.89 333.18
  Q 140.12 332.50 139.42 332.38
  L 139.08 332.32
  Q 138.31 332.19 138.08 332.93
  L 135.61 340.70
  Q 135.30 341.68 134.98 340.70
  Z
  M 147.54 338.24
  L 153.22 338.23
  Q 154.41 338.22 154.36 337.03
  L 154.28 334.92
  Q 154.20 333.08 152.44 332.57
  C 150.71 332.06 147.14 331.78 145.84 333.53
  C 144.72 335.04 145.20 338.00 145.13 339.78
  C 144.95 344.16 150.87 343.55 153.40 343.07
  A 0.75 0.75 0.0 0 0 154.00 342.29
  L 153.99 341.95
  Q 153.95 341.31 153.34 341.51
  Q 150.68 342.38 148.12 341.57
  Q 147.31 341.32 147.24 340.48
  L 147.10 338.71
  Q 147.06 338.24 147.54 338.24
  Z
  M 162.94 332.96
  Q 162.50 332.07 161.52 332.35
  Q 160.99 332.49 160.99 333.04
  L 161.00 342.48
  Q 161.00 343.21 161.73 343.21
  L 162.26 343.22
  Q 163.00 343.22 163.00 342.48
  L 163.02 335.15
  A 0.96 0.96 0.0 0 1 163.83 334.20
  L 166.53 333.74
  A 0.49 0.49 0.0 0 0 166.94 333.22
  L 166.92 332.89
  Q 166.87 332.22 166.21 332.17
  Q 164.67 332.05 163.65 333.08
  Q 163.21 333.51 162.94 332.96
  Z
  M 175.99 340.42
  A 0.31 0.31 0.0 0 1 175.40 340.43
  L 172.74 332.58
  A 0.31 0.31 0.0 0 0 172.42 332.37
  L 170.97 332.51
  A 0.31 0.31 0.0 0 0 170.71 332.93
  L 174.65 343.23
  A 0.31 0.31 0.0 0 1 174.65 343.45
  L 173.17 347.28
  A 0.31 0.31 0.0 0 0 173.42 347.70
  L 174.76 347.86
  A 0.31 0.31 0.0 0 0 175.09 347.66
  L 180.29 332.87
  A 0.31 0.31 0.0 0 0 180.00 332.46
  L 178.64 332.48
  A 0.31 0.31 0.0 0 0 178.34 332.70
  L 175.99 340.42
  Z
  M 216.5015 332.8985
  A 0.56 0.56 0.0 0 0 215.9405 332.3394
  L 215.3005 332.3406
  A 0.56 0.56 0.0 0 0 214.7415 332.9015
  L 214.7585 342.6215
  A 0.56 0.56 0.0 0 0 215.3195 343.1806
  L 215.9595 343.1794
  A 0.56 0.56 0.0 0 0 216.5185 342.6185
  L 216.5015 332.8985
  Z
  M 227.17 333.65
  L 229.11 333.59
  Q 230.86 333.53 230.86 335.28
  L 230.87 342.54
  Q 230.87 343.20 231.54 343.21
  L 232.30 343.22
  Q 232.84 343.23 232.84 342.70
  L 232.82 334.75
  A 2.46 2.45 4.5 0 0 230.75 332.33
  Q 228.66 332.00 226.69 332.56
  Q 226.12 332.72 225.54 332.63
  L 224.27 332.42
  Q 223.60 332.30 223.60 332.98
  L 223.59 342.52
  A 0.70 0.70 0.0 0 0 224.28 343.22
  L 224.90 343.22
  Q 225.53 343.23 225.53 342.60
  L 225.54 335.33
  Q 225.55 333.71 227.17 333.65
  Z
  M 246.96 343.09
  C 247.77 347.73 243.27 346.90 240.57 346.44
  A 0.42 0.42 0.0 0 0 240.08 346.82
  L 240.05 347.17
  A 0.67 0.67 0.0 0 0 240.65 347.89
  C 243.55 348.21 248.89 348.78 248.94 344.43
  Q 248.99 339.13 248.99 333.12
  Q 248.99 332.67 248.60 332.45
  Q 248.00 332.10 247.44 332.55
  Q 247.01 332.90 246.50 332.71
  C 244.34 331.93 239.54 331.60 239.43 335.13
  Q 239.34 338.27 239.50 341.05
  A 2.24 2.24 0.0 0 0 241.25 343.12
  Q 244.16 343.79 246.35 342.77
  Q 246.86 342.54 246.96 343.09
  Z
  M 275.92 333.66
  Q 278.22 333.29 280.58 333.75
  Q 280.93 333.81 281.00 333.47
  L 281.08 333.07
  Q 281.22 332.41 280.54 332.33
  C 278.31 332.06 273.45 331.61 272.97 334.68
  C 272.31 338.77 276.14 338.15 278.57 338.41
  A 1.18 1.17 1.2 0 1 279.61 339.49
  L 279.68 340.40
  Q 279.79 341.82 278.37 341.93
  Q 276.05 342.10 273.67 341.72
  Q 273.29 341.66 273.25 342.04
  L 273.21 342.46
  Q 273.16 343.06 273.76 343.15
  C 276.83 343.61 282.07 344.13 281.58 339.37
  C 281.25 336.23 278.03 336.98 275.85 336.70
  Q 274.99 336.59 274.98 335.73
  L 274.96 334.80
  Q 274.94 333.82 275.92 333.66
  Z
  M 315.51 338.24
  L 320.22 338.23
  Q 321.66 338.22 321.60 336.78
  L 321.52 335.05
  Q 321.42 332.95 319.37 332.47
  C 316.95 331.90 312.60 331.81 312.44 335.29
  Q 312.34 337.49 312.36 339.88
  C 312.39 344.10 317.83 343.60 320.73 343.04
  Q 321.30 342.92 321.25 342.34
  L 321.22 341.96
  A 0.39 0.39 0.0 0 0 320.79 341.61
  L 316.78 342.04
  Q 314.77 342.25 314.48 340.25
  Q 314.45 340.04 314.38 339.84
  Q 313.81 338.24 315.51 338.24
  Z
  M 329.93 332.98
  Q 329.54 332.24 328.63 332.30
  A 0.70 0.70 0.0 0 0 327.98 333.00
  L 327.99 342.46
  Q 327.99 343.19 328.71 343.20
  L 329.26 343.21
  Q 329.99 343.22 329.99 342.49
  L 330.01 335.17
  A 0.99 0.99 0.0 0 1 330.82 334.20
  L 333.54 333.71
  Q 333.97 333.64 333.94 333.20
  L 333.91 332.88
  Q 333.87 332.24 333.23 332.18
  Q 331.67 332.04 330.64 333.08
  Q 330.22 333.51 329.93 332.98
  Z
  M 341.85 338.24
  L 346.80 338.22
  Q 348.33 338.22 348.22 336.70
  L 348.10 334.94
  Q 347.97 332.92 345.99 332.47
  C 343.54 331.92 339.05 331.88 338.99 335.27
  Q 338.95 337.75 338.94 340.22
  C 338.92 344.02 344.78 343.48 347.08 343.12
  Q 347.75 343.01 347.78 342.33
  L 347.80 342.05
  A 0.52 0.52 0.0 0 0 347.13 341.53
  Q 344.68 342.26 342.33 341.74
  Q 341.03 341.45 340.99 340.12
  L 340.97 339.15
  Q 340.94 338.24 341.85 338.24
  Z
  M 266.41 332.87
  A 0.42 0.42 0.0 0 0 265.99 332.45
  L 264.89 332.45
  A 0.42 0.42 0.0 0 0 264.47 332.87
  L 264.47 342.79
  A 0.42 0.42 0.0 0 0 264.89 343.21
  L 265.99 343.21
  A 0.42 0.42 0.0 0 0 266.41 342.79
  L 266.41 332.87
  Z"
/>
<path fill="#5b87a6" d="
  M 231.20 58.90
  Q 231.31 82.06 231.60 104.23
  A 0.95 0.95 0.0 0 0 232.12 105.06
  Q 232.37 105.18 232.74 104.97
  Q 252.28 93.51 272.01 81.96
  L 272.77 127.78
  L 273.02 129.02
  L 231.34 105.68
  L 191.22 82.94
  L 190.53 82.66
  L 230.11 59.40
  Q 230.44 59.21 230.82 59.18
  Q 231.32 59.14 231.20 58.90
  Z"
/>
<path fill="#8adee6" d="
  M 231.20 58.90
  L 272.01 81.96
  Q 252.28 93.51 232.74 104.97
  Q 232.37 105.18 232.12 105.06
  A 0.95 0.95 0.0 0 1 231.60 104.23
  Q 231.31 82.06 231.20 58.90
  Z"
/>
<path fill="#0a004d" d="
  M 272.01 81.96
  L 312.55 104.73
  C 312.18 105.22 311.93 105.66 311.40 105.97
  Q 292.52 117.05 273.65 128.16
  Q 273.24 128.41 272.77 127.78
  L 272.01 81.96
  Z"
/>
<path fill="#00699a" d="
  M 190.53 82.66
  L 191.22 82.94
  Q 190.79 83.06 190.79 83.75
  Q 190.76 104.54 191.15 125.34
  C 191.17 126.49 190.90 127.74 190.88 128.95
  Q 190.49 128.67 189.90 128.62
  Q 189.41 128.58 188.98 128.34
  Q 170.13 117.66 151.27 106.99
  Q 150.85 106.75 150.58 107.02
  Q 150.34 106.78 150.47 106.41
  A 0.46 0.46 0.0 0 1 150.67 106.18
  L 190.53 82.66
  Z"
/>
<path fill="#0a004d" d="
  M 191.22 82.94
  L 231.34 105.68
  L 191.21 129.31
  Q 190.93 129.28 190.88 128.95
  C 190.90 127.74 191.17 126.49 191.15 125.34
  Q 190.76 104.54 190.79 83.75
  Q 190.79 83.06 191.22 82.94
  Z"
/>
<path fill="#00699a" d="
  M 312.55 104.73
  Q 313.12 104.73 313.13 105.25
  Q 313.35 128.37 313.51 151.39
  Q 313.52 151.93 313.04 151.67
  L 273.02 129.02
  L 272.77 127.78
  Q 273.24 128.41 273.65 128.16
  Q 292.52 117.05 311.40 105.97
  C 311.93 105.66 312.18 105.22 312.55 104.73
  Z"
/>
<path fill="#8adee6" d="
  M 150.58 107.02
  Q 150.85 106.75 151.27 106.99
  Q 170.13 117.66 188.98 128.34
  Q 189.41 128.58 189.90 128.62
  Q 190.49 128.67 190.88 128.95
  Q 190.93 129.28 191.21 129.31
  L 151.29 152.73
  Q 150.59 153.14 150.59 152.33
  L 150.58 107.02
  Z"
/>
<path fill="#0a004d" d="
  M 313.12 199.57
  Q 313.22 198.71 312.61 198.36
  Q 293.30 187.42 274.00 176.48
  A 0.75 0.75 0.0 0 0 272.88 177.14
  Q 273.23 199.12 273.27 221.25
  Q 273.27 222.50 272.56 222.49
  L 232.67 199.85
  L 312.94 152.63
  Q 313.54 152.28 313.54 152.96
  L 313.89 198.52
  Q 313.89 198.98 313.52 199.26
  L 313.12 199.57
  Z"
/>
<path fill="#0a004d" d="
  M 190.69 176.35
  Q 191.17 176.48 190.33 176.98
  L 150.91 200.48
  L 150.61 153.98
  A 0.20 0.19 14.5 0 1 150.90 153.81
  L 190.69 176.35
  Z"
/>
<path fill="#5b87a6" d="
  M 190.69 176.35
  L 232.67 199.85
  L 272.56 222.49
  Q 272.48 222.85 273.09 223.12
  L 232.88 246.75
  L 232.47 201.21
  A 0.82 0.82 0.0 0 0 231.23 200.51
  L 192.15 223.71
  L 191.79 223.67
  Q 191.47 217.23 191.54 210.88
  C 191.66 199.66 191.18 189.30 191.18 178.51
  Q 191.18 176.47 190.33 176.98
  Q 191.17 176.48 190.69 176.35
  Z"
/>
<path fill="#00699a" d="
  M 313.12 199.57
  L 273.09 223.12
  Q 272.48 222.85 272.56 222.49
  Q 273.27 222.50 273.27 221.25
  Q 273.23 199.12 272.88 177.14
  A 0.75 0.75 0.0 0 1 274.00 176.48
  Q 293.30 187.42 312.61 198.36
  Q 313.22 198.71 313.12 199.57
  Z"
/>
<path fill="#00699a" d="
  M 190.33 176.98
  Q 191.18 176.47 191.18 178.51
  C 191.18 189.30 191.66 199.66 191.54 210.88
  Q 191.47 217.23 191.79 223.67
  L 150.91 200.48
  L 190.33 176.98
  Z"
/>
<path fill="#8adee6" d="
  M 232.88 246.75
  L 192.15 223.71
  L 231.23 200.51
  A 0.82 0.82 0.0 0 1 232.47 201.21
  L 232.88 246.75
  Z"
/>
<path fill="#0a004d" d="
  M 98.79 269.70
  C 105.89 269.09 116.03 270.06 115.81 279.37
  Q 115.67 285.00 115.79 290.66
  C 116.03 301.83 99.46 300.99 92.78 298.68
  Q 87.56 296.87 87.65 291.05
  Q 87.73 285.31 87.61 279.16
  C 87.48 272.33 93.10 270.18 98.79 269.70
  Z
  M 108.67 278.56
  A 3.84 3.84 0.0 0 0 104.83 274.72
  L 98.59 274.72
  A 3.84 3.84 0.0 0 0 94.75 278.56
  L 94.75 291.16
  A 3.84 3.84 0.0 0 0 98.59 295.00
  L 104.83 295.00
  A 3.84 3.84 0.0 0 0 108.67 291.16
  L 108.67 278.56
  Z"
/>
<path fill="#0a004d" d="
  M 246.78 278.04
  Q 246.78 278.16 246.77 278.29
  Q 246.67 281.76 250.14 281.68
  C 258.49 281.50 265.08 281.57 263.92 292.43
  C 263.29 298.28 258.32 299.82 253.34 300.01
  Q 247.00 300.25 240.86 299.34
  Q 240.33 299.26 240.33 298.73
  L 240.35 294.46
  A 0.49 0.49 0.0 0 1 240.92 293.98
  C 245.34 294.67 250.73 295.75 255.06 294.47
  C 256.84 293.94 256.89 292.30 256.93 290.76
  C 257.01 287.33 254.85 286.88 252.16 287.00
  C 247.27 287.22 240.45 287.00 239.81 280.48
  C 239.48 277.00 239.53 273.26 243.04 271.42
  C 248.17 268.73 256.65 269.45 262.21 270.17
  Q 262.51 270.21 262.50 270.50
  L 262.49 275.21
  Q 262.49 275.48 262.22 275.43
  Q 257.33 274.52 250.06 274.72
  Q 246.73 274.81 246.78 278.04
  Z"
/>
<rect fill="#ffffff" x="94.75" y="274.72" width="13.92" height="20.28" rx="3.84"/>
<path fill="#0a004d" d="
  M 300.89 280.06
  Q 303.39 276.56 308.11 277.17
  Q 308.58 277.24 308.59 277.71
  L 308.61 282.16
  Q 308.61 282.70 308.07 282.65
  C 305.13 282.34 300.58 282.55 300.74 286.60
  C 300.91 290.92 300.76 295.27 300.76 299.38
  A 0.31 0.30 -90.0 0 1 300.46 299.69
  L 294.56 299.70
  A 0.39 0.38 -90.0 0 1 294.18 299.31
  L 294.16 278.18
  Q 294.16 277.57 294.76 277.57
  L 300.04 277.55
  A 0.46 0.46 0.0 0 1 300.50 278.04
  L 300.40 279.89
  Q 300.35 280.80 300.89 280.06
  Z"
/>
<path fill="#0a004d" d="
  M 368.59 280.14
  Q 370.67 276.74 375.55 277.11
  Q 376.26 277.17 376.26 277.88
  L 376.26 281.75
  Q 376.26 282.80 375.23 282.63
  C 372.56 282.17 368.44 282.81 368.45 286.43
  Q 368.48 293.09 368.45 299.26
  Q 368.45 299.69 368.02 299.69
  L 362.24 299.69
  A 0.45 0.45 0.0 0 1 361.79 299.24
  L 361.79 278.26
  Q 361.79 277.56 362.49 277.56
  L 367.47 277.56
  Q 368.13 277.56 368.13 278.22
  L 368.15 280.02
  Q 368.16 280.84 368.59 280.14
  Z"
/>
<path fill="#0a004d" d="
  M 128.78 279.17
  C 130.98 276.29 139.15 276.25 141.19 279.57
  Q 141.64 280.30 142.03 279.54
  C 143.39 276.93 147.61 276.99 150.45 277.20
  C 154.82 277.54 155.81 280.20 155.78 283.94
  Q 155.70 291.82 155.75 299.21
  Q 155.75 299.70 155.26 299.70
  L 149.51 299.70
  A 0.44 0.44 0.0 0 1 149.07 299.26
  L 149.07 283.15
  Q 149.06 281.23 147.15 281.24
  L 144.25 281.24
  Q 141.99 281.24 141.99 283.50
  L 141.99 299.22
  Q 141.99 299.68 141.53 299.69
  L 135.76 299.70
  Q 135.31 299.70 135.31 299.26
  L 135.31 283.26
  Q 135.31 281.21 133.26 281.23
  L 130.49 281.25
  Q 128.24 281.26 128.24 283.51
  L 128.23 299.23
  Q 128.23 299.69 127.77 299.69
  L 122.02 299.69
  Q 121.59 299.69 121.59 299.27
  L 121.58 277.99
  Q 121.58 277.55 122.01 277.55
  L 127.76 277.56
  Q 128.20 277.56 128.22 278.01
  L 128.26 279.01
  Q 128.30 279.80 128.78 279.17
  Z"
/>
<path fill="#0a004d" d="
  M 169.39 290.37
  Q 167.37 290.37 167.92 292.31
  Q 168.07 292.87 168.23 293.43
  Q 168.80 295.49 170.93 295.74
  Q 176.24 296.38 181.22 295.12
  A 0.42 0.42 0.0 0 1 181.74 295.53
  L 181.72 298.73
  Q 181.72 299.25 181.20 299.35
  C 176.33 300.27 161.66 301.85 161.38 293.59
  Q 161.24 289.28 161.30 284.89
  Q 161.40 278.42 168.28 277.43
  C 172.91 276.76 180.94 276.60 182.05 282.47
  Q 182.52 284.97 182.28 289.82
  Q 182.25 290.36 181.70 290.36
  L 169.39 290.37
  Z
  M 168.41 286.60
  L 175.63 286.60
  A 0.43 0.43 0.0 0 0 176.06 286.17
  L 176.06 283.62
  A 2.52 2.38 -0.0 0 0 173.54 281.24
  L 170.50 281.24
  A 2.52 2.38 0.0 0 0 167.98 283.62
  L 167.98 286.17
  A 0.43 0.43 0.0 0 0 168.41 286.60
  Z"
/>
<path fill="#0a004d" d="
  M 202.52 297.82
  Q 201.21 299.63 199.13 299.89
  C 195.75 300.31 189.46 300.59 187.83 296.94
  Q 187.11 295.34 187.15 293.04
  Q 187.24 287.67 187.27 283.10
  C 187.32 276.97 193.32 277.11 197.69 277.13
  Q 201.31 277.15 202.85 279.41
  Q 203.30 280.07 203.34 279.27
  Q 203.37 278.71 203.29 278.13
  Q 203.20 277.55 203.79 277.55
  L 209.07 277.56
  Q 209.73 277.56 209.73 278.21
  Q 209.70 288.87 209.74 300.31
  Q 209.78 307.83 202.84 309.07
  Q 196.20 310.27 189.04 309.35
  Q 188.76 309.32 188.76 309.04
  L 188.76 305.24
  Q 188.76 305.00 188.99 305.02
  C 192.78 305.28 196.71 305.97 200.25 305.07
  C 203.52 304.25 203.18 300.61 203.05 297.98
  Q 203.01 297.16 202.52 297.82
  Z
  M 203.0671 283.6962
  A 2.42 2.42 0.0 0 0 200.6556 281.2677
  L 196.2556 281.2524
  A 2.42 2.42 0.0 0 0 193.8272 283.6639
  L 193.7929 293.5038
  A 2.42 2.42 0.0 0 0 196.2044 295.9323
  L 200.6044 295.9476
  A 2.42 2.42 0.0 0 0 203.0328 293.5361
  L 203.0671 283.6962
  Z"
/>
<path fill="#0a004d" d="
  M 227.92 298.40
  Q 227.52 298.77 227.13 299.13
  Q 226.80 299.43 226.39 299.54
  Q 223.18 300.34 218.85 300.00
  Q 214.38 299.64 214.06 295.21
  C 213.62 289.22 214.62 285.85 221.47 286.01
  Q 224.22 286.08 227.06 286.13
  Q 228.88 286.15 228.43 284.39
  Q 228.30 283.91 228.14 283.25
  Q 227.65 281.34 225.67 281.28
  Q 220.35 281.11 216.03 281.71
  Q 215.75 281.75 215.75 281.47
  L 215.74 277.81
  Q 215.73 277.57 215.97 277.55
  Q 224.30 276.67 230.04 277.65
  Q 234.90 278.48 234.96 283.73
  Q 235.04 291.06 234.99 299.23
  A 0.45 0.45 0.0 0 1 234.54 299.68
  L 229.00 299.71
  Q 228.55 299.71 228.57 299.25
  L 228.60 298.72
  Q 228.65 297.74 227.92 298.40
  Z
  M 220.71 290.83
  Q 220.22 292.94 220.68 294.99
  A 0.88 0.86 89.9 0 0 221.34 295.66
  Q 224.55 296.41 227.58 295.64
  A 0.98 0.97 -7.1 0 0 228.31 294.71
  L 228.36 290.28
  Q 228.37 289.69 227.78 289.70
  L 222.05 289.75
  Q 220.96 289.76 220.71 290.83
  Z"
/>
<path fill="#0a004d" d="
  M 276.13 290.37
  Q 273.39 290.37 274.36 292.93
  Q 274.51 293.33 274.53 293.37
  Q 275.50 295.94 278.25 295.96
  Q 283.97 296.02 287.75 295.08
  Q 288.02 295.01 288.02 295.28
  L 288.03 298.97
  A 0.30 0.30 0.0 0 1 287.79 299.26
  C 281.99 300.45 267.24 302.02 267.64 292.38
  C 267.79 288.81 266.86 282.97 269.06 280.23
  C 271.94 276.66 278.97 276.77 282.93 277.55
  C 289.61 278.86 288.78 284.80 288.67 289.95
  Q 288.66 290.37 288.24 290.37
  L 276.13 290.37
  Z
  M 274.66 286.60
  L 282.02 286.58
  A 0.37 0.37 0.0 0 0 282.39 286.21
  L 282.39 283.63
  A 2.61 2.41 -0.1 0 0 279.78 281.23
  L 276.90 281.23
  A 2.61 2.41 -0.1 0 0 274.29 283.65
  L 274.29 286.23
  A 0.37 0.37 0.0 0 0 274.66 286.60
  Z"
/>
<path fill="#0a004d" d="
  M 343.57 290.37
  Q 341.18 290.37 341.99 292.63
  Q 342.04 292.78 342.08 292.93
  Q 342.72 295.61 345.46 295.83
  Q 350.83 296.28 355.44 295.08
  Q 355.73 295.01 355.73 295.31
  L 355.72 298.95
  Q 355.72 299.21 355.46 299.26
  C 349.57 300.42 335.58 301.83 335.37 293.26
  Q 335.28 289.54 335.28 285.20
  Q 335.29 278.58 341.92 277.49
  C 346.77 276.69 355.44 276.51 356.14 283.05
  Q 356.47 286.16 356.29 289.83
  Q 356.26 290.36 355.73 290.36
  L 343.57 290.37
  Z
  M 342.35 286.61
  L 349.69 286.59
  A 0.37 0.37 0.0 0 0 350.06 286.22
  L 350.06 283.56
  A 2.57 2.33 -0.1 0 0 347.49 281.24
  L 344.55 281.24
  A 2.57 2.33 -0.1 0 0 341.98 283.58
  L 341.98 286.24
  A 0.37 0.37 0.0 0 0 342.35 286.61
  Z"
/>
<path fill="#0a004d" d="
  M 326.40 277.56
  L 332.40 277.56
  A 0.31 0.31 0.0 0 1 332.69 277.98
  L 324.79 299.49
  A 0.31 0.31 0.0 0 1 324.50 299.69
  L 318.22 299.70
  A 0.31 0.31 0.0 0 1 317.93 299.50
  L 309.77 278.00
  A 0.31 0.31 0.0 0 1 310.06 277.58
  L 316.41 277.55
  A 0.31 0.31 0.0 0 1 316.71 277.77
  L 321.20 292.00
  A 0.31 0.31 0.0 0 0 321.79 292.00
  L 326.10 277.78
  A 0.31 0.31 0.0 0 1 326.40 277.56
  Z"
/>
<path fill="#ffffff" d="
  M 168.41 286.60
  A 0.43 0.43 0.0 0 1 167.98 286.17
  L 167.98 283.62
  A 2.52 2.38 0.0 0 1 170.50 281.24
  L 173.54 281.24
  A 2.52 2.38 -0.0 0 1 176.06 283.62
  L 176.06 286.17
  A 0.43 0.43 0.0 0 1 175.63 286.60
  L 168.41 286.60
  Z"
/>
<rect fill="#ffffff" x="-4.62" y="-7.34" transform="translate(198.43,288.60) rotate(0.2)" width="9.24" height="14.68" rx="2.42"/>
<path fill="#ffffff" d="
  M 274.66 286.60
  A 0.37 0.37 0.0 0 1 274.29 286.23
  L 274.29 283.65
  A 2.61 2.41 -0.1 0 1 276.90 281.23
  L 279.78 281.23
  A 2.61 2.41 -0.1 0 1 282.39 283.63
  L 282.39 286.21
  A 0.37 0.37 0.0 0 1 282.02 286.58
  L 274.66 286.60
  Z"
/>
<path fill="#ffffff" d="
  M 342.35 286.61
  A 0.37 0.37 0.0 0 1 341.98 286.24
  L 341.98 283.58
  A 2.57 2.33 -0.1 0 1 344.55 281.24
  L 347.49 281.24
  A 2.57 2.33 -0.1 0 1 350.06 283.56
  L 350.06 286.22
  A 0.37 0.37 0.0 0 1 349.69 286.59
  L 342.35 286.61
  Z"
/>
<path fill="#ffffff" d="
  M 220.71 290.83
  Q 220.96 289.76 222.05 289.75
  L 227.78 289.70
  Q 228.37 289.69 228.36 290.28
  L 228.31 294.71
  A 0.98 0.97 -7.1 0 1 227.58 295.64
  Q 224.55 296.41 221.34 295.66
  A 0.88 0.86 89.9 0 1 220.68 294.99
  Q 220.22 292.94 220.71 290.83
  Z"
/>
<path fill="#0a004d" d="
  M 201.05 332.82
  Q 203.44 331.73 206.01 332.49
  A 2.38 2.37 8.5 0 1 207.71 334.78
  L 207.70 342.53
  Q 207.70 343.25 206.97 343.24
  L 206.48 343.22
  Q 205.75 343.21 205.75 342.48
  L 205.75 335.30
  Q 205.74 333.61 204.05 333.63
  L 202.00 333.67
  Q 200.45 333.69 200.45 335.25
  L 200.45 342.75
  Q 200.45 343.20 200.00 343.21
  L 198.98 343.22
  Q 198.49 343.23 198.49 342.73
  L 198.49 328.03
  Q 198.49 327.54 198.97 327.57
  L 199.94 327.62
  Q 200.48 327.65 200.47 328.19
  L 200.41 332.40
  Q 200.39 333.13 201.05 332.82
  Z"
/>
<path fill="#0a004d" d="
  M 299.09 332.85
  C 301.10 331.88 305.77 331.42 305.80 335.04
  Q 305.83 339.08 305.78 342.68
  Q 305.77 343.23 305.23 343.22
  L 304.53 343.21
  Q 303.86 343.20 303.86 342.53
  L 303.83 335.24
  Q 303.82 333.65 302.24 333.65
  L 300.19 333.65
  Q 298.53 333.65 298.53 335.31
  L 298.51 342.72
  Q 298.51 343.20 298.03 343.20
  L 297.01 343.20
  Q 296.57 343.21 296.57 342.76
  L 296.56 328.04
  Q 296.56 327.65 296.96 327.63
  L 298.06 327.59
  Q 298.54 327.58 298.53 328.06
  L 298.50 332.48
  Q 298.50 333.14 299.09 332.85
  Z"
/>
<path fill="#0a004d" d="
  M 216.18 330.63
  Q 215.72 330.76 215.22 330.68
  Q 214.72 330.61 214.63 330.10
  Q 214.57 329.76 214.55 329.42
  A 0.93 0.92 -88.4 0 1 215.56 328.46
  Q 217.16 328.60 216.67 330.16
  A 0.72 0.71 -88.3 0 1 216.18 330.63
  Z"
/>
<path fill="#0a004d" d="
  M 264.39 330.07
  Q 264.29 329.56 264.44 329.12
  A 1.05 1.04 -59.7 0 1 266.14 328.67
  Q 266.62 329.11 266.54 329.81
  Q 266.49 330.32 266.06 330.53
  Q 265.52 330.78 264.94 330.63
  A 0.75 0.74 0.7 0 1 264.39 330.07
  Z"
/>
<path fill="#0a004d" d="
  M 189.62 332.48
  L 192.52 332.44
  Q 192.91 332.43 192.93 332.82
  L 192.96 333.24
  Q 192.99 333.72 192.51 333.72
  L 189.54 333.68
  Q 189.01 333.67 189.01 334.21
  L 189.04 340.78
  A 1.23 1.23 0.0 0 0 190.28 342.01
  L 192.60 342.00
  Q 192.91 342.00 192.94 342.30
  L 192.97 342.60
  Q 193.02 343.11 192.52 343.20
  Q 190.51 343.58 188.74 343.14
  A 2.29 2.28 7.2 0 1 187.02 340.93
  L 187.00 334.25
  Q 187.00 333.64 186.39 333.69
  Q 185.75 333.74 185.12 333.62
  Q 184.67 333.53 184.51 333.10
  Q 184.46 332.94 184.57 332.77
  Q 184.74 332.50 185.06 332.49
  L 186.53 332.47
  A 0.50 0.50 0.0 0 0 187.02 331.97
  L 187.00 329.75
  Q 187.00 329.00 187.75 329.00
  L 188.27 329.00
  Q 189.03 329.00 189.03 329.77
  L 189.00 331.87
  A 0.61 0.61 0.0 0 0 189.62 332.48
  Z"
/>
<path fill="#0a004d" d="
  M 117.86 338.83
  Q 117.76 340.04 118.23 341.00
  A 1.20 1.19 84.5 0 0 119.02 341.66
  Q 121.45 342.29 124.13 341.55
  Q 124.73 341.38 124.74 342.01
  L 124.75 342.28
  Q 124.76 342.97 124.09 343.09
  Q 120.92 343.66 118.13 343.02
  A 2.86 2.86 0.0 0 1 115.91 340.28
  Q 115.87 337.47 116.02 334.97
  C 116.23 331.54 121.54 331.95 123.64 332.76
  Q 124.43 333.07 124.72 333.86
  Q 125.33 335.53 125.14 337.66
  Q 125.09 338.23 124.52 338.23
  L 118.50 338.23
  Q 117.91 338.23 117.86 338.83
  Z
  M 118.48 336.92
  L 122.56 336.94
  A 0.62 0.62 0.0 0 0 123.18 336.32
  L 123.19 335.30
  A 1.87 1.76 0.3 0 0 121.33 333.53
  L 119.75 333.53
  A 1.87 1.76 0.3 0 0 117.87 335.28
  L 117.86 336.30
  A 0.62 0.62 0.0 0 0 118.48 336.92
  Z"
/>
<path fill="#0a004d" d="
  M 135.61 340.70
  L 138.08 332.93
  Q 138.31 332.19 139.08 332.32
  L 139.42 332.38
  Q 140.12 332.50 139.89 333.18
  L 136.62 342.59
  Q 136.46 343.05 135.98 343.16
  Q 135.26 343.33 134.55 343.18
  A 1.02 1.02 0.0 0 1 133.81 342.53
  L 130.39 333.08
  Q 130.07 332.18 131.01 332.35
  L 131.70 332.49
  Q 132.33 332.60 132.53 333.21
  L 134.98 340.70
  Q 135.30 341.68 135.61 340.70
  Z"
/>
<path fill="#0a004d" d="
  M 147.10 338.71
  L 147.24 340.48
  Q 147.31 341.32 148.12 341.57
  Q 150.68 342.38 153.34 341.51
  Q 153.95 341.31 153.99 341.95
  L 154.00 342.29
  A 0.75 0.75 0.0 0 1 153.40 343.07
  C 150.87 343.55 144.95 344.16 145.13 339.78
  C 145.20 338.00 144.72 335.04 145.84 333.53
  C 147.14 331.78 150.71 332.06 152.44 332.57
  Q 154.20 333.08 154.28 334.92
  L 154.36 337.03
  Q 154.41 338.22 153.22 338.23
  L 147.54 338.24
  Q 147.06 338.24 147.10 338.71
  Z
  M 147.56 336.90
  L 151.96 336.94
  A 0.47 0.47 0.0 0 0 152.43 336.47
  L 152.44 335.31
  A 1.99 1.77 0.5 0 0 150.46 333.53
  L 149.10 333.51
  A 1.99 1.77 0.5 0 0 147.10 335.27
  L 147.09 336.43
  A 0.47 0.47 0.0 0 0 147.56 336.90
  Z"
/>
<path fill="#0a004d" d="
  M 163.65 333.08
  Q 164.67 332.05 166.21 332.17
  Q 166.87 332.22 166.92 332.89
  L 166.94 333.22
  A 0.49 0.49 0.0 0 1 166.53 333.74
  L 163.83 334.20
  A 0.96 0.96 0.0 0 0 163.02 335.15
  L 163.00 342.48
  Q 163.00 343.22 162.26 343.22
  L 161.73 343.21
  Q 161.00 343.21 161.00 342.48
  L 160.99 333.04
  Q 160.99 332.49 161.52 332.35
  Q 162.50 332.07 162.94 332.96
  Q 163.21 333.51 163.65 333.08
  Z"
/>
<path fill="#0a004d" d="
  M 175.99 340.42
  L 178.34 332.70
  A 0.31 0.31 0.0 0 1 178.64 332.48
  L 180.00 332.46
  A 0.31 0.31 0.0 0 1 180.29 332.87
  L 175.09 347.66
  A 0.31 0.31 0.0 0 1 174.76 347.86
  L 173.42 347.70
  A 0.31 0.31 0.0 0 1 173.17 347.28
  L 174.65 343.45
  A 0.31 0.31 0.0 0 0 174.65 343.23
  L 170.71 332.93
  A 0.31 0.31 0.0 0 1 170.97 332.51
  L 172.42 332.37
  A 0.31 0.31 0.0 0 1 172.74 332.58
  L 175.40 340.43
  A 0.31 0.31 0.0 0 0 175.99 340.42
  Z"
/>
<rect fill="#0a004d" x="-0.88" y="-5.42" transform="translate(215.63,337.76) rotate(-0.1)" width="1.76" height="10.84" rx="0.56"/>
<path fill="#0a004d" d="
  M 225.54 335.33
  L 225.53 342.60
  Q 225.53 343.23 224.90 343.22
  L 224.28 343.22
  A 0.70 0.70 0.0 0 1 223.59 342.52
  L 223.60 332.98
  Q 223.60 332.30 224.27 332.42
  L 225.54 332.63
  Q 226.12 332.72 226.69 332.56
  Q 228.66 332.00 230.75 332.33
  A 2.46 2.45 4.5 0 1 232.82 334.75
  L 232.84 342.70
  Q 232.84 343.23 232.30 343.22
  L 231.54 343.21
  Q 230.87 343.20 230.87 342.54
  L 230.86 335.28
  Q 230.86 333.53 229.11 333.59
  L 227.17 333.65
  Q 225.55 333.71 225.54 335.33
  Z"
/>
<path fill="#0a004d" d="
  M 246.35 342.77
  Q 244.16 343.79 241.25 343.12
  A 2.24 2.24 0.0 0 1 239.50 341.05
  Q 239.34 338.27 239.43 335.13
  C 239.54 331.60 244.34 331.93 246.50 332.71
  Q 247.01 332.90 247.44 332.55
  Q 248.00 332.10 248.60 332.45
  Q 248.99 332.67 248.99 333.12
  Q 248.99 339.13 248.94 344.43
  C 248.89 348.78 243.55 348.21 240.65 347.89
  A 0.67 0.67 0.0 0 1 240.05 347.17
  L 240.08 346.82
  A 0.42 0.42 0.0 0 1 240.57 346.44
  C 243.27 346.90 247.77 347.73 246.96 343.09
  Q 246.86 342.54 246.35 342.77
  Z
  M 246.9708 335.1501
  A 1.58 1.58 0.0 0 0 245.3853 333.5756
  L 242.8653 333.5844
  A 1.58 1.58 0.0 0 0 241.2908 335.1699
  L 241.3092 340.4299
  A 1.58 1.58 0.0 0 0 242.8947 342.0044
  L 245.4147 341.9956
  A 1.58 1.58 0.0 0 0 246.9892 340.4101
  L 246.9708 335.1501
  Z"
/>
<path fill="#0a004d" d="
  M 274.96 334.80
  L 274.98 335.73
  Q 274.99 336.59 275.85 336.70
  C 278.03 336.98 281.25 336.23 281.58 339.37
  C 282.07 344.13 276.83 343.61 273.76 343.15
  Q 273.16 343.06 273.21 342.46
  L 273.25 342.04
  Q 273.29 341.66 273.67 341.72
  Q 276.05 342.10 278.37 341.93
  Q 279.79 341.82 279.68 340.40
  L 279.61 339.49
  A 1.18 1.17 1.2 0 0 278.57 338.41
  C 276.14 338.15 272.31 338.77 272.97 334.68
  C 273.45 331.61 278.31 332.06 280.54 332.33
  Q 281.22 332.41 281.08 333.07
  L 281.00 333.47
  Q 280.93 333.81 280.58 333.75
  Q 278.22 333.29 275.92 333.66
  Q 274.94 333.82 274.96 334.80
  Z"
/>
<path fill="#0a004d" d="
  M 315.51 338.24
  Q 313.81 338.24 314.38 339.84
  Q 314.45 340.04 314.48 340.25
  Q 314.77 342.25 316.78 342.04
  L 320.79 341.61
  A 0.39 0.39 0.0 0 1 321.22 341.96
  L 321.25 342.34
  Q 321.30 342.92 320.73 343.04
  C 317.83 343.60 312.39 344.10 312.36 339.88
  Q 312.34 337.49 312.44 335.29
  C 312.60 331.81 316.95 331.90 319.37 332.47
  Q 321.42 332.95 321.52 335.05
  L 321.60 336.78
  Q 321.66 338.22 320.22 338.23
  L 315.51 338.24
  Z
  M 314.80 336.92
  L 319.20 336.92
  A 0.47 0.47 0.0 0 0 319.67 336.45
  L 319.67 335.32
  A 1.89 1.80 0.1 0 0 317.78 333.52
  L 316.22 333.52
  A 1.89 1.80 0.1 0 0 314.33 335.32
  L 314.33 336.45
  A 0.47 0.47 0.0 0 0 314.80 336.92
  Z"
/>
<path fill="#0a004d" d="
  M 330.64 333.08
  Q 331.67 332.04 333.23 332.18
  Q 333.87 332.24 333.91 332.88
  L 333.94 333.20
  Q 333.97 333.64 333.54 333.71
  L 330.82 334.20
  A 0.99 0.99 0.0 0 0 330.01 335.17
  L 329.99 342.49
  Q 329.99 343.22 329.26 343.21
  L 328.71 343.20
  Q 327.99 343.19 327.99 342.46
  L 327.98 333.00
  A 0.70 0.70 0.0 0 1 328.63 332.30
  Q 329.54 332.24 329.93 332.98
  Q 330.22 333.51 330.64 333.08
  Z"
/>
<path fill="#0a004d" d="
  M 341.85 338.24
  Q 340.94 338.24 340.97 339.15
  L 340.99 340.12
  Q 341.03 341.45 342.33 341.74
  Q 344.68 342.26 347.13 341.53
  A 0.52 0.52 0.0 0 1 347.80 342.05
  L 347.78 342.33
  Q 347.75 343.01 347.08 343.12
  C 344.78 343.48 338.92 344.02 338.94 340.22
  Q 338.95 337.75 338.99 335.27
  C 339.05 331.88 343.54 331.92 345.99 332.47
  Q 347.97 332.92 348.10 334.94
  L 348.22 336.70
  Q 348.33 338.22 346.80 338.22
  L 341.85 338.24
  Z
  M 341.43 336.91
  L 345.77 336.95
  A 0.48 0.48 0.0 0 0 346.25 336.47
  L 346.26 335.23
  A 1.96 1.68 0.5 0 0 344.31 333.54
  L 342.93 333.52
  A 1.96 1.68 0.5 0 0 340.96 335.19
  L 340.95 336.43
  A 0.48 0.48 0.0 0 0 341.43 336.91
  Z"
/>
<rect fill="#0a004d" x="264.47" y="332.45" width="1.94" height="10.76" rx="0.42"/>
<path fill="#ffffff" d="
  M 118.48 336.92
  A 0.62 0.62 0.0 0 1 117.86 336.30
  L 117.87 335.28
  A 1.87 1.76 0.3 0 1 119.75 333.53
  L 121.33 333.53
  A 1.87 1.76 0.3 0 1 123.19 335.30
  L 123.18 336.32
  A 0.62 0.62 0.0 0 1 122.56 336.94
  L 118.48 336.92
  Z"
/>
<path fill="#ffffff" d="
  M 147.56 336.90
  A 0.47 0.47 0.0 0 1 147.09 336.43
  L 147.10 335.27
  A 1.99 1.77 0.5 0 1 149.10 333.51
  L 150.46 333.53
  A 1.99 1.77 0.5 0 1 152.44 335.31
  L 152.43 336.47
  A 0.47 0.47 0.0 0 1 151.96 336.94
  L 147.56 336.90
  Z"
/>
<rect fill="#ffffff" x="-2.84" y="-4.21" transform="translate(244.14,337.79) rotate(-0.2)" width="5.68" height="8.42" rx="1.58"/>
<path fill="#ffffff" d="
  M 314.80 336.92
  A 0.47 0.47 0.0 0 1 314.33 336.45
  L 314.33 335.32
  A 1.89 1.80 0.1 0 1 316.22 333.52
  L 317.78 333.52
  A 1.89 1.80 0.1 0 1 319.67 335.32
  L 319.67 336.45
  A 0.47 0.47 0.0 0 1 319.20 336.92
  L 314.80 336.92
  Z"
/>
<path fill="#ffffff" d="
  M 341.43 336.91
  A 0.48 0.48 0.0 0 1 340.95 336.43
  L 340.96 335.19
  A 1.96 1.68 0.5 0 1 342.93 333.52
  L 344.31 333.54
  A 1.96 1.68 0.5 0 1 346.26 335.23
  L 346.25 336.47
  A 0.48 0.48 0.0 0 1 345.77 336.95
  L 341.43 336.91
  Z"
/>
</svg>
