<?xml version="1.0" encoding="UTF-8" standalone="no"?>
<!DOCTYPE svg PUBLIC "-//W3C//DTD SVG 1.1//EN" "http://www.w3.org/Graphics/SVG/1.1/DTD/svg11.dtd">
<svg xmlns="http://www.w3.org/2000/svg" version="1.1" viewBox="0.00 0.00 1024.00 1024.00">
<g stroke-width="2.00" fill="none" stroke-linecap="butt">
<path stroke="#7a7a7a" vector-effect="non-scaling-stroke" d="
  M 62.13 0.00
  L 62.25 62.01
  A 1.99 1.99 0.0 0 0 64.24 64.00
  L 126.00 64.07"
/>
<path stroke="#878787" vector-effect="non-scaling-stroke" d="
  M 126.00 64.07
  Q 126.04 93.59 125.89 122.50
  C 125.88 124.47 125.68 127.55 127.72 128.25"
/>
<path stroke="#7a7a7a" vector-effect="non-scaling-stroke" d="
  M 127.72 128.25
  L 125.46 128.53"
/>
<path stroke="#747474" vector-effect="non-scaling-stroke" d="
  M 125.46 128.53
  L 62.93 128.26
  A 0.81 0.80 90.0 0 0 62.13 129.07
  Q 62.22 157.97 61.98 190.75
  Q 61.98 191.15 62.44 192.31"
/>
<path stroke="#878787" vector-effect="non-scaling-stroke" d="
  M 62.44 192.31
  Q 62.01 193.30 62.01 193.75
  Q 62.00 257.09 61.98 320.45"
/>
<path stroke="#7a7a7a" vector-effect="non-scaling-stroke" d="
  M 61.98 320.45
  L 0.00 320.75"
/>
<path stroke="#7a7a7a" vector-effect="non-scaling-stroke" d="
  M 318.25 0.00
  C 318.70 3.05 318.24 6.75 318.26 9.00
  Q 318.44 33.99 318.50 58.97
  Q 318.50 60.03 318.79 61.50
  Q 319.04 62.76 319.12 64.04"
/>
<path stroke="#828282" vector-effect="non-scaling-stroke" d="
  M 319.12 64.04
  L 126.00 64.07"
/>
<path stroke="#878787" vector-effect="non-scaling-stroke" d="
  M 384.63 0.00
  Q 382.50 0.21 382.50 1.24
  Q 382.60 31.87 382.68 63.06
  A 0.95 0.95 0.0 0 1 381.73 64.01
  L 319.12 64.04"
/>
<path stroke="#7c7c7c" vector-effect="non-scaling-stroke" d="
  M 510.83 0.00
  L 510.92 64.09"
/>
<path stroke="#828282" vector-effect="non-scaling-stroke" d="
  M 510.92 64.09
  L 383.44 64.11
  A 0.64 0.63 0.0 0 0 382.80 64.74
  L 382.80 127.06
  Q 382.80 128.31 381.55 128.31
  L 318.48 128.28"
/>
<path stroke="#7c7c7c" vector-effect="non-scaling-stroke" d="
  M 318.48 128.28
  L 254.56 128.28"
/>
<path stroke="#828282" vector-effect="non-scaling-stroke" d="
  M 254.56 128.28
  L 127.72 128.25"
/>
<path stroke="#7c7c7c" vector-effect="non-scaling-stroke" d="
  M 575.06 0.00
  L 575.13 64.16"
/>
<path stroke="#6e6e6e" vector-effect="non-scaling-stroke" d="
  M 575.13 64.16
  L 510.92 64.09"
/>
<path stroke="#878787" vector-effect="non-scaling-stroke" d="
  M 637.36 0.00
  Q 638.98 0.22 638.99 1.00
  Q 639.16 31.62 639.22 62.37
  A 1.60 1.59 0.2 0 0 640.81 63.96
  L 703.79 63.99"
/>
<path stroke="#828282" vector-effect="non-scaling-stroke" d="
  M 703.79 63.99
  Q 731.11 64.20 758.00 64.11
  Q 762.53 64.09 767.05 64.24
  Q 767.27 64.25 767.42 64.36
  Q 767.77 64.62 767.51 64.81"
/>
<path stroke="#7c7c7c" vector-effect="non-scaling-stroke" d="
  M 767.51 64.81
  L 767.51 127.79"
/>
<path stroke="#878787" vector-effect="non-scaling-stroke" d="
  M 767.51 127.79
  Q 767.35 128.22 766.75 128.22
  Q 704.25 128.31 641.75 128.26
  Q 639.62 128.25 637.45 128.30"
/>
<path stroke="#828282" vector-effect="non-scaling-stroke" d="
  M 637.45 128.30
  L 576.43 128.24
  A 1.31 1.30 -0.0 0 0 575.12 129.54
  L 575.14 191.73"
/>
<path stroke="#878787" vector-effect="non-scaling-stroke" d="
  M 575.14 191.73
  Q 575.13 192.07 574.93 192.27
  Q 574.78 192.42 574.43 192.42
  Q 542.63 192.32 511.05 192.31"
/>
<path stroke="#828282" vector-effect="non-scaling-stroke" d="
  M 511.05 192.31
  L 511.00 129.04
  A 0.79 0.79 0.0 0 1 511.79 128.25
  L 574.54 128.25
  A 0.73 0.73 0.0 0 0 575.27 127.52
  L 575.13 64.16"
/>
<path stroke="#7a7a7a" vector-effect="non-scaling-stroke" d="
  M 703.46 0.00
  Q 703.32 28.98 703.47 57.99
  Q 703.48 58.81 703.22 60.98
  Q 702.95 63.20 703.79 63.99"
/>
<path stroke="#7a7a7a" vector-effect="non-scaling-stroke" d="
  M 959.62 0.00
  L 959.94 63.54
  Q 959.94 64.12 959.37 64.13
  C 953.91 64.28 948.43 64.04 942.97 64.03
  Q 868.67 63.92 832.38 64.10
  Q 832.02 64.11 831.50 64.50"
/>
<path stroke="#6e6e6e" vector-effect="non-scaling-stroke" d="
  M 831.50 64.50
  Q 830.45 63.98 829.50 63.99
  Q 799.07 64.15 768.64 63.96
  Q 768.11 63.95 767.81 64.39
  L 767.51 64.81"
/>
<path stroke="#7a7a7a" vector-effect="non-scaling-stroke" d="
  M 1024.00 64.87
  Q 1020.86 63.94 1014.75 64.02
  Q 998.59 64.23 964.25 64.09
  Q 962.50 64.09 960.58 64.31
  Q 960.08 64.36 959.97 64.85
  Q 959.53 66.81 959.56 68.50
  Q 960.09 97.00 960.03 125.50
  Q 960.02 127.95 963.00 128.01
  Q 993.52 128.56 1024.00 127.95"
/>
<path stroke="#747474" vector-effect="non-scaling-stroke" d="
  M 1024.00 256.58
  L 960.75 256.34"
/>
<path stroke="#7a7a7a" vector-effect="non-scaling-stroke" d="
  M 960.75 256.34
  Q 960.03 255.80 960.02 254.75
  Q 959.61 224.18 959.81 193.86
  A 1.32 1.31 -89.8 0 0 958.50 192.53
  L 895.74 192.41"
/>
<path stroke="#878787" vector-effect="non-scaling-stroke" d="
  M 895.74 192.41
  L 895.56 129.31
  A 1.05 1.04 -0.0 0 0 894.51 128.27
  L 833.02 128.24
  A 1.62 1.62 0.0 0 0 831.40 129.86
  L 831.34 192.37"
/>
<path stroke="#7a7a7a" vector-effect="non-scaling-stroke" d="
  M 831.34 192.37
  L 640.42 192.59
  Q 639.05 192.59 639.07 193.95
  Q 639.39 214.37 639.16 233.41
  Q 639.11 237.88 638.95 243.07
  Q 638.74 249.97 639.58 256.52"
/>
<path stroke="#878787" vector-effect="non-scaling-stroke" d="
  M 639.58 256.52
  Q 639.01 257.28 639.24 258.97"
/>
<path stroke="#7a7a7a" vector-effect="non-scaling-stroke" d="
  M 639.24 258.97
  Q 639.21 257.96 638.94 257.29
  Q 638.75 256.80 638.22 256.80
  L 510.95 256.49"
/>
<path stroke="#878787" vector-effect="non-scaling-stroke" d="
  M 510.95 256.49
  L 510.92 193.09
  A 0.76 0.73 -66.8 0 0 510.73 192.59
  Q 510.64 192.49 510.54 192.40"
/>
<path stroke="#7a7a7a" vector-effect="non-scaling-stroke" d="
  M 510.54 192.40
  L 511.05 192.31"
/>
<path stroke="#7a7a7a" vector-effect="non-scaling-stroke" d="
  M 575.14 191.73
  Q 575.85 192.60 577.25 192.57
  Q 587.88 192.30 598.51 192.38
  C 612.85 192.50 625.32 192.34 638.66 192.44
  Q 639.13 192.44 639.13 191.96
  L 639.01 129.08
  Q 639.01 128.62 638.57 128.47
  Q 638.15 128.32 637.45 128.30"
/>
<path stroke="#747474" vector-effect="non-scaling-stroke" d="
  M 767.51 127.79
  Q 768.26 128.27 770.00 128.26
  Q 800.50 128.24 830.40 128.24
  Q 831.51 128.24 831.51 127.13
  L 831.50 64.50"
/>
<path stroke="#828282" vector-effect="non-scaling-stroke" d="
  M 510.54 192.40
  L 446.38 192.56"
/>
<path stroke="#7a7a7a" vector-effect="non-scaling-stroke" d="
  M 446.38 192.56
  Q 445.91 192.32 445.25 192.32
  Q 414.54 192.62 383.83 192.40
  Q 382.54 192.39 382.70 193.71"
/>
<path stroke="#6e6e6e" vector-effect="non-scaling-stroke" d="
  M 382.70 193.71
  Q 382.63 192.22 381.00 192.24
  Q 354.08 192.68 332.00 192.37
  Q 326.47 192.30 320.24 192.42
  Q 318.74 192.45 318.74 190.95
  L 318.48 128.28"
/>
<path stroke="#6e6e6e" vector-effect="non-scaling-stroke" d="
  M 125.46 128.53
  Q 125.76 128.77 125.95 129.04
  Q 126.15 129.33 126.15 129.69
  Q 126.19 159.42 126.29 187.13
  Q 126.30 189.34 126.63 191.52
  Q 126.71 192.04 126.22 192.22
  Q 125.95 192.31 125.71 192.29"
/>
<path stroke="#7c7c7c" vector-effect="non-scaling-stroke" d="
  M 125.71 192.29
  L 62.44 192.31"
/>
<path stroke="#6e6e6e" vector-effect="non-scaling-stroke" d="
  M 254.56 128.28
  Q 254.82 157.72 254.80 187.00
  Q 254.80 189.35 254.01 192.23"
/>
<path stroke="#7a7a7a" vector-effect="non-scaling-stroke" d="
  M 254.01 192.23
  L 126.04 192.54"
/>
<path stroke="#828282" vector-effect="non-scaling-stroke" d="
  M 126.04 192.54
  Q 125.81 192.43 125.71 192.29"
/>
<path stroke="#747474" vector-effect="non-scaling-stroke" d="
  M 382.70 193.71
  L 382.70 255.29"
/>
<path stroke="#6e6e6e" vector-effect="non-scaling-stroke" d="
  M 382.70 255.29
  Q 382.52 256.67 380.50 256.64
  Q 357.87 256.27 320.25 256.62
  Q 319.34 256.63 318.69 256.35"
/>
<path stroke="#747474" vector-effect="non-scaling-stroke" d="
  M 318.69 256.35
  L 318.67 193.50
  A 1.18 1.18 0.0 0 0 317.49 192.32
  L 254.01 192.23"
/>
<path stroke="#828282" vector-effect="non-scaling-stroke" d="
  M 895.74 192.41
  L 831.34 192.37"
/>
<path stroke="#7a7a7a" vector-effect="non-scaling-stroke" d="
  M 318.69 256.35
  Q 312.92 256.70 306.96 256.62
  Q 297.60 256.49 297.53 256.49
  Q 244.39 256.53 191.25 256.56
  Q 190.65 256.56 190.46 257.21"
/>
<path stroke="#878787" vector-effect="non-scaling-stroke" d="
  M 190.46 257.21
  Q 190.10 256.44 189.63 256.44
  Q 160.36 256.58 128.22 256.45
  A 1.80 1.80 0.0 0 1 126.43 254.65
  Q 126.28 226.04 126.20 197.25
  Q 126.19 195.27 126.44 193.31
  Q 126.48 192.99 126.26 192.76
  L 126.04 192.54"
/>
<path stroke="#828282" vector-effect="non-scaling-stroke" d="
  M 190.46 257.21
  L 190.50 320.70"
/>
<path stroke="#878787" vector-effect="non-scaling-stroke" d="
  M 190.50 320.70
  L 125.21 320.68"
/>
<path stroke="#828282" vector-effect="non-scaling-stroke" d="
  M 125.21 320.68
  L 61.98 320.45"
/>
<path stroke="#878787" vector-effect="non-scaling-stroke" d="
  M 446.38 192.56
  L 446.69 256.47"
/>
<path stroke="#7a7a7a" vector-effect="non-scaling-stroke" d="
  M 446.69 256.47
  Q 443.54 256.81 440.32 256.70
  Q 434.74 256.52 434.68 256.52
  Q 409.21 256.45 383.75 256.64
  Q 382.54 256.65 382.70 255.29"
/>
<path stroke="#828282" vector-effect="non-scaling-stroke" d="
  M 510.95 256.49
  L 446.69 256.47"
/>
<path stroke="#6e6e6e" vector-effect="non-scaling-stroke" d="
  M 960.75 256.34
  Q 960.20 256.39 959.75 257.31"
/>
<path stroke="#828282" vector-effect="non-scaling-stroke" d="
  M 959.75 257.31
  Q 960.30 256.62 959.50 256.65
  C 956.37 256.75 952.83 256.50 950.18 256.50
  Q 795.35 256.50 639.58 256.52"
/>
<path stroke="#828282" vector-effect="non-scaling-stroke" d="
  M 639.24 258.97
  L 639.26 319.80"
/>
<path stroke="#7a7a7a" vector-effect="non-scaling-stroke" d="
  M 639.26 319.80
  Q 639.26 320.61 638.99 320.70"
/>
<path stroke="#6e6e6e" vector-effect="non-scaling-stroke" d="
  M 638.99 320.70
  C 636.38 320.26 633.35 320.74 631.34 320.71
  Q 603.48 320.35 575.62 320.75
  Q 575.04 320.76 575.10 322.04"
/>
<path stroke="#7a7a7a" vector-effect="non-scaling-stroke" d="
  M 575.10 322.04
  Q 575.29 320.64 573.75 320.63
  Q 542.34 320.45 512.62 320.65
  A 1.62 1.62 0.0 0 0 511.01 322.26
  Q 510.89 352.89 510.97 384.00
  Q 510.97 385.10 509.28 384.79"
/>
<path stroke="#828282" vector-effect="non-scaling-stroke" d="
  M 509.28 384.79
  L 383.73 384.78
  A 0.95 0.94 -90.0 0 0 382.79 385.73
  L 382.80 447.76
  A 1.19 1.19 0.0 0 0 383.99 448.95
  L 510.75 448.95"
/>
<path stroke="#7a7a7a" vector-effect="non-scaling-stroke" d="
  M 510.75 448.95
  L 574.92 448.93"
/>
<path stroke="#6e6e6e" vector-effect="non-scaling-stroke" d="
  M 574.92 448.93
  Q 575.09 452.25 575.10 455.25
  Q 575.21 483.50 575.11 511.75
  Q 575.10 512.80 575.73 512.99"
/>
<path stroke="#828282" vector-effect="non-scaling-stroke" d="
  M 575.73 512.99
  Q 575.45 512.91 574.87 513.02"
/>
<path stroke="#7a7a7a" vector-effect="non-scaling-stroke" d="
  M 574.87 513.02
  L 384.17 513.05
  A 1.44 1.43 90.0 0 0 382.74 514.49
  L 382.76 575.51
  A 1.51 1.50 90.0 0 0 384.26 577.02
  L 445.47 577.07
  A 1.34 1.34 0.0 0 1 446.81 578.41
  Q 446.75 609.23 446.96 640.25
  Q 446.97 640.94 446.54 641.25"
/>
<path stroke="#828282" vector-effect="non-scaling-stroke" d="
  M 446.54 641.25
  L 320.05 641.25
  A 1.35 1.35 0.0 0 0 318.70 642.60
  L 318.74 705.42"
/>
<path stroke="#7a7a7a" vector-effect="non-scaling-stroke" d="
  M 318.74 705.42
  L 318.61 767.40
  A 2.09 2.08 0.1 0 0 320.70 769.49
  Q 399.25 769.54 477.76 769.51
  C 482.54 769.51 490.38 769.73 496.70 769.56
  C 500.38 769.46 506.14 769.75 510.90 769.19"
/>
<path stroke="#828282" vector-effect="non-scaling-stroke" d="
  M 510.90 769.19
  L 511.09 832.45
  A 1.13 1.12 -0.0 0 0 512.22 833.57
  L 638.06 833.68
  A 1.27 1.27 0.0 0 0 639.33 832.41
  L 639.27 769.80"
/>
<path stroke="#7a7a7a" vector-effect="non-scaling-stroke" d="
  M 639.27 769.80
  Q 639.61 768.61 639.99 768.86
  Q 641.05 769.55 642.30 769.55
  Q 731.03 769.43 819.95 769.60
  Q 822.52 769.60 825.14 769.71
  Q 828.15 769.82 831.28 769.42"
/>
<path stroke="#828282" vector-effect="non-scaling-stroke" d="
  M 831.28 769.42
  L 959.06 769.50"
/>
<path stroke="#7a7a7a" vector-effect="non-scaling-stroke" d="
  M 959.06 769.50
  Q 959.88 770.53 959.88 772.00
  Q 959.91 793.13 959.87 814.25
  Q 959.85 823.79 959.99 833.51"
/>
<path stroke="#828282" vector-effect="non-scaling-stroke" d="
  M 959.99 833.51
  L 895.40 833.75"
/>
<path stroke="#7a7a7a" vector-effect="non-scaling-stroke" d="
  M 895.40 833.75
  L 769.01 833.73
  A 1.69 1.69 0.0 0 0 767.32 835.41
  Q 767.23 857.46 767.18 879.20
  Q 767.16 886.77 767.66 896.25
  Q 767.74 897.88 766.28 897.81"
/>
<path stroke="#828282" vector-effect="non-scaling-stroke" d="
  M 766.28 897.81
  L 703.56 897.81"
/>
<path stroke="#6e6e6e" vector-effect="non-scaling-stroke" d="
  M 703.56 897.81
  L 703.28 834.87
  A 1.28 1.28 0.0 0 0 702.00 833.60
  L 640.51 833.57
  A 1.19 1.19 0.0 0 0 639.32 834.76
  L 639.30 897.69"
/>
<path stroke="#828282" vector-effect="non-scaling-stroke" d="
  M 639.30 897.69
  Q 639.53 897.75 639.75 897.80"
/>
<path stroke="#7a7a7a" vector-effect="non-scaling-stroke" d="
  M 639.75 897.80
  L 512.56 897.74
  A 1.55 1.55 0.0 0 0 511.01 899.29
  L 510.92 960.25
  A 1.69 1.68 -90.0 0 1 509.24 961.94
  L 446.79 961.98"
/>
<path stroke="#828282" vector-effect="non-scaling-stroke" d="
  M 446.79 961.98
  Q 383.59 961.98 321.00 961.98
  Q 319.20 961.98 318.48 962.68"
/>
<path stroke="#6e6e6e" vector-effect="non-scaling-stroke" d="
  M 318.48 962.68
  Q 316.55 961.65 314.00 961.68
  Q 287.56 962.02 263.00 961.87
  Q 259.71 961.85 255.85 962.06
  A 1.09 1.09 0.0 0 0 254.81 963.15
  L 254.62 1023.22
  Q 254.62 1023.61 255.00 1023.71
  L 256.16 1024.00"
/>
<path stroke="#7a7a7a" vector-effect="non-scaling-stroke" d="
  M 0.00 961.94
  L 188.96 961.96
  Q 189.87 961.96 190.11 961.08
  Q 190.40 960.04 190.43 958.50
  Q 191.06 928.08 189.94 897.74"
/>
<path stroke="#828282" vector-effect="non-scaling-stroke" d="
  M 189.94 897.74
  L 383.24 897.44"
/>
<path stroke="#7a7a7a" vector-effect="non-scaling-stroke" d="
  M 383.24 897.44
  Q 383.48 897.44 383.63 897.58
  Q 383.79 897.74 384.02 897.74
  L 445.31 897.79
  A 1.61 1.60 -0.0 0 0 446.92 896.19
  L 446.90 835.05
  A 1.28 1.27 0.0 0 0 445.62 833.78
  L 382.78 833.66"
/>
<path stroke="#828282" vector-effect="non-scaling-stroke" d="
  M 382.78 833.66
  L 62.96 833.57"
/>
<path stroke="#7a7a7a" vector-effect="non-scaling-stroke" d="
  M 62.96 833.57
  Q 62.12 832.22 62.12 830.75
  Q 62.18 800.35 62.04 769.95
  Q 62.04 769.78 61.95 769.72
  Q 61.87 769.65 61.71 769.59"
/>
<path stroke="#6e6e6e" vector-effect="non-scaling-stroke" d="
  M 61.71 769.59
  L 62.28 769.54"
/>
<path stroke="#7a7a7a" vector-effect="non-scaling-stroke" d="
  M 62.28 769.54
  L 253.16 769.50
  A 1.37 1.37 0.0 0 0 254.53 768.12
  L 254.48 707.30
  Q 254.48 705.50 252.68 705.50
  L 190.53 705.47"
/>
<path stroke="#828282" vector-effect="non-scaling-stroke" d="
  M 190.53 705.47
  L 190.48 642.28
  A 1.03 1.03 0.0 0 0 189.44 641.25
  L 125.69 641.54"
/>
<path stroke="#7a7a7a" vector-effect="non-scaling-stroke" d="
  M 125.69 641.54
  L 63.56 641.01
  Q 62.23 641.00 62.23 639.67
  L 62.11 578.04
  Q 62.11 577.28 62.87 577.22
  L 64.47 577.09"
/>
<path stroke="#828282" vector-effect="non-scaling-stroke" d="
  M 64.47 577.09
  Q 127.23 576.91 190.00 577.17
  Q 190.33 577.17 190.41 576.53"
/>
<path stroke="#6e6e6e" vector-effect="non-scaling-stroke" d="
  M 190.41 576.53
  Q 190.49 577.24 191.25 577.23
  Q 221.75 576.72 252.25 577.34
  Q 254.78 577.39 254.48 574.46"
/>
<path stroke="#828282" vector-effect="non-scaling-stroke" d="
  M 254.48 574.46
  Q 254.22 575.57 254.53 576.53
  Q 254.68 577.01 255.19 577.01
  L 317.69 577.11
  A 1.05 1.05 0.0 0 0 318.74 576.06
  L 318.74 513.94
  A 0.91 0.90 -90.0 0 0 317.84 513.03
  L 254.35 513.28"
/>
<path stroke="#6e6e6e" vector-effect="non-scaling-stroke" d="
  M 254.35 513.28
  Q 248.33 512.82 245.74 512.84
  Q 218.70 513.04 191.64 512.99
  A 0.74 0.73 -78.6 0 0 190.96 513.45
  Q 190.71 514.05 190.39 514.23"
/>
<path stroke="#828282" vector-effect="non-scaling-stroke" d="
  M 190.39 514.23
  Q 190.38 513.79 190.23 513.47"
/>
<path stroke="#7a7a7a" vector-effect="non-scaling-stroke" d="
  M 190.23 513.47
  Q 190.70 510.27 190.70 509.25
  Q 190.52 478.95 190.75 449.51
  A 0.55 0.50 -89.4 0 1 191.25 448.97
  L 317.60 448.93
  A 0.80 0.79 -83.6 0 0 318.37 448.31
  Q 318.64 447.13 318.64 446.00
  Q 318.93 395.28 318.53 334.25
  Q 318.49 327.97 318.46 321.75
  A 1.00 0.99 -0.0 0 0 317.46 320.76
  L 190.50 320.70"
/>
<path stroke="#747474" vector-effect="non-scaling-stroke" d="
  M 1024.00 320.58
  Q 994.00 320.49 964.00 320.86
  Q 961.30 320.90 959.77 319.88"
/>
<path stroke="#7c7c7c" vector-effect="non-scaling-stroke" d="
  M 959.77 319.88
  L 959.75 257.31"
/>
<path stroke="#878787" vector-effect="non-scaling-stroke" d="
  M 959.77 319.88
  Q 959.33 320.64 958.25 320.66"
/>
<path stroke="#7c7c7c" vector-effect="non-scaling-stroke" d="
  M 958.25 320.66
  L 894.94 320.68"
/>
<path stroke="#828282" vector-effect="non-scaling-stroke" d="
  M 894.94 320.68
  L 766.96 320.64"
/>
<path stroke="#878787" vector-effect="non-scaling-stroke" d="
  M 766.96 320.64
  Q 704.33 320.39 641.50 320.71
  Q 639.88 320.71 639.26 319.80"
/>
<path stroke="#7a7a7a" vector-effect="non-scaling-stroke" d="
  M 766.96 320.64
  Q 766.71 321.51 767.04 322.91
  Q 767.35 324.26 767.36 325.12
  Q 767.64 359.80 767.17 381.50
  Q 767.12 384.24 769.03 384.73"
/>
<path stroke="#878787" vector-effect="non-scaling-stroke" d="
  M 769.03 384.73
  Q 767.27 384.19 767.27 385.75
  Q 767.27 417.06 767.24 448.92"
/>
<path stroke="#7a7a7a" vector-effect="non-scaling-stroke" d="
  M 767.24 448.92
  L 639.26 448.97"
/>
<path stroke="#747474" vector-effect="non-scaling-stroke" d="
  M 639.26 448.97
  L 574.92 448.93"
/>
<path stroke="#878787" vector-effect="non-scaling-stroke" d="
  M 510.75 448.95
  Q 511.22 417.48 510.90 386.00
  Q 510.89 384.70 509.28 384.79"
/>
<path stroke="#747474" vector-effect="non-scaling-stroke" d="
  M 575.10 322.04
  L 575.09 383.57
  A 1.18 1.18 0.0 0 0 576.27 384.75
  L 638.28 384.76
  A 0.93 0.93 0.0 0 0 639.21 383.83
  L 638.99 320.70"
/>
<path stroke="#747474" vector-effect="non-scaling-stroke" d="
  M 1024.00 384.85
  Q 994.27 384.82 964.50 384.54
  Q 963.43 384.53 959.81 384.92"
/>
<path stroke="#878787" vector-effect="non-scaling-stroke" d="
  M 959.81 384.92
  Q 959.43 384.59 959.01 384.77"
/>
<path stroke="#747474" vector-effect="non-scaling-stroke" d="
  M 959.01 384.77
  Q 959.76 384.36 959.78 384.00
  Q 960.03 377.25 959.96 370.50
  Q 959.73 346.87 959.99 323.26
  Q 960.02 320.32 958.25 320.66"
/>
<path stroke="#7a7a7a" vector-effect="non-scaling-stroke" d="
  M 125.21 320.68
  L 125.75 321.27
  Q 126.11 321.65 126.10 322.16
  L 125.98 384.76"
/>
<path stroke="#828282" vector-effect="non-scaling-stroke" d="
  M 125.98 384.76
  L 0.00 384.75"
/>
<path stroke="#878787" vector-effect="non-scaling-stroke" d="
  M 190.23 513.47
  Q 189.88 513.04 189.50 513.04
  Q 126.85 513.01 63.50 513.02
  A 1.54 1.53 0.0 0 0 61.96 514.55
  L 62.09 576.10
  A 1.00 1.00 0.0 0 0 63.08 577.09
  L 64.47 577.09"
/>
<path stroke="#878787" vector-effect="non-scaling-stroke" d="
  M 125.69 641.54
  L 126.22 702.98
  Q 126.24 705.24 128.50 705.25
  L 190.53 705.47"
/>
<path stroke="#747474" vector-effect="non-scaling-stroke" d="
  M 62.28 769.54
  L 62.02 706.59
  A 1.35 1.35 0.0 0 0 60.67 705.25
  L 0.00 705.31"
/>
<path stroke="#878787" vector-effect="non-scaling-stroke" d="
  M 0.00 448.89
  L 124.77 448.96
  A 1.29 1.29 0.0 0 0 126.06 447.67
  L 125.98 384.76"
/>
<path stroke="#6e6e6e" vector-effect="non-scaling-stroke" d="
  M 894.94 320.68
  Q 895.88 323.48 895.88 324.88
  Q 895.88 352.69 895.95 380.49
  C 895.95 381.46 895.64 382.44 895.67 383.51
  Q 895.70 384.52 896.79 384.73"
/>
<path stroke="#828282" vector-effect="non-scaling-stroke" d="
  M 896.79 384.73
  L 769.03 384.73"
/>
<path stroke="#7c7c7c" vector-effect="non-scaling-stroke" d="
  M 959.01 384.77
  L 896.79 384.73"
/>
<path stroke="#747474" vector-effect="non-scaling-stroke" d="
  M 1024.00 448.81
  Q 992.63 448.92 961.11 448.93
  A 1.49 1.47 -15.6 0 1 959.85 448.23
  Q 959.83 448.19 959.86 447.47"
/>
<path stroke="#7c7c7c" vector-effect="non-scaling-stroke" d="
  M 959.86 447.47
  L 959.81 384.92"
/>
<path stroke="#878787" vector-effect="non-scaling-stroke" d="
  M 959.86 447.47
  Q 959.99 448.99 958.25 448.97
  Q 933.74 448.82 909.24 449.00
  C 905.68 449.03 899.92 448.73 895.27 449.04"
/>
<path stroke="#828282" vector-effect="non-scaling-stroke" d="
  M 895.27 449.04
  L 767.24 448.92"
/>
<path stroke="#878787" vector-effect="non-scaling-stroke" d="
  M 1024.00 513.40
  Q 1022.67 512.97 1018.25 512.98
  Q 956.74 513.03 895.75 513.00"
/>
<path stroke="#7a7a7a" vector-effect="non-scaling-stroke" d="
  M 895.75 513.00
  Q 895.84 507.47 895.71 502.00
  C 895.33 485.35 895.55 468.66 895.66 452.01
  Q 895.66 451.68 895.78 450.51
  Q 895.92 449.17 895.27 449.04"
/>
<path stroke="#6e6e6e" vector-effect="non-scaling-stroke" d="
  M 639.26 448.97
  Q 639.00 479.75 639.49 510.25
  Q 639.51 511.23 639.90 512.11
  Q 640.11 512.57 639.28 513.00"
/>
<path stroke="#7c7c7c" vector-effect="non-scaling-stroke" d="
  M 639.28 513.00
  L 575.73 512.99"
/>
<path stroke="#828282" vector-effect="non-scaling-stroke" d="
  M 895.75 513.00
  L 639.28 513.00"
/>
<path stroke="#7c7c7c" vector-effect="non-scaling-stroke" d="
  M 190.39 514.23
  L 190.41 576.53"
/>
<path stroke="#7c7c7c" vector-effect="non-scaling-stroke" d="
  M 254.35 513.28
  L 254.48 574.46"
/>
<path stroke="#878787" vector-effect="non-scaling-stroke" d="
  M 1024.00 577.16
  L 960.55 577.23
  A 0.74 0.74 0.0 0 0 959.81 577.97
  L 959.77 640.17
  A 1.02 1.02 0.0 0 1 958.75 641.19
  Q 931.02 641.35 904.48 641.08
  Q 904.36 641.08 900.53 641.28
  Q 897.75 641.42 895.79 640.50"
/>
<path stroke="#828282" vector-effect="non-scaling-stroke" d="
  M 895.79 640.50
  L 895.78 578.15
  A 1.11 1.11 0.0 0 0 894.67 577.04
  L 703.36 577.05"
/>
<path stroke="#878787" vector-effect="non-scaling-stroke" d="
  M 703.36 577.05
  L 577.39 577.03
  Q 574.98 577.03 574.98 574.61
  L 574.87 513.02"
/>
<path stroke="#7a7a7a" vector-effect="non-scaling-stroke" d="
  M 703.36 577.05
  Q 703.09 579.07 703.21 581.36
  Q 703.31 583.48 703.32 585.54
  Q 703.46 621.46 703.53 637.43
  Q 703.54 639.10 702.89 640.50
  Q 702.70 640.91 703.15 640.99
  L 704.97 641.27"
/>
<path stroke="#878787" vector-effect="non-scaling-stroke" d="
  M 704.97 641.27
  Q 672.80 641.13 640.65 641.48
  Q 640.20 641.48 639.86 641.59
  Q 638.99 641.88 639.28 642.19"
/>
<path stroke="#7a7a7a" vector-effect="non-scaling-stroke" d="
  M 639.28 642.19
  Q 636.52 640.92 631.25 641.02
  Q 619.79 641.25 575.10 641.29"
/>
<path stroke="#747474" vector-effect="non-scaling-stroke" d="
  M 575.10 641.29
  L 575.07 578.81
  A 1.71 1.70 90.0 0 0 573.37 577.10
  L 512.30 577.02
  A 1.33 1.33 0.0 0 0 510.97 578.34
  L 510.71 641.53"
/>
<path stroke="#7a7a7a" vector-effect="non-scaling-stroke" d="
  M 510.71 641.53
  L 446.96 641.47"
/>
<path stroke="#878787" vector-effect="non-scaling-stroke" d="
  M 446.96 641.47
  Q 447.13 641.20 446.54 641.25"
/>
<path stroke="#747474" vector-effect="non-scaling-stroke" d="
  M 1024.00 705.41
  Q 977.48 705.16 962.01 705.29
  Q 960.14 705.31 959.84 706.09"
/>
<path stroke="#878787" vector-effect="non-scaling-stroke" d="
  M 959.84 706.09
  Q 953.40 705.23 944.50 705.28
  Q 913.23 705.44 849.25 705.37
  Q 842.36 705.36 835.02 705.55
  Q 834.16 705.57 832.05 705.03
  Q 831.53 704.89 831.53 704.37
  L 831.52 641.29"
/>
<path stroke="#7a7a7a" vector-effect="non-scaling-stroke" d="
  M 831.52 641.29
  Q 833.67 641.18 835.75 641.18
  Q 864.13 641.17 892.50 641.40
  Q 894.16 641.41 895.79 640.50"
/>
<path stroke="#6e6e6e" vector-effect="non-scaling-stroke" d="
  M 575.10 641.29
  L 575.30 705.43"
/>
<path stroke="#7c7c7c" vector-effect="non-scaling-stroke" d="
  M 575.30 705.43
  L 512.54 705.35"
/>
<path stroke="#6e6e6e" vector-effect="non-scaling-stroke" d="
  M 512.54 705.35
  Q 511.92 705.42 511.47 705.24
  Q 510.99 705.06 510.99 704.54
  L 510.71 641.53"
/>
<path stroke="#828282" vector-effect="non-scaling-stroke" d="
  M 831.52 641.29
  L 704.97 641.27"
/>
<path stroke="#828282" vector-effect="non-scaling-stroke" d="
  M 639.28 642.19
  L 639.41 704.53"
/>
<path stroke="#7a7a7a" vector-effect="non-scaling-stroke" d="
  M 639.41 704.53
  Q 639.00 705.16 639.06 705.55"
/>
<path stroke="#828282" vector-effect="non-scaling-stroke" d="
  M 639.06 705.55
  L 575.30 705.43"
/>
<path stroke="#828282" vector-effect="non-scaling-stroke" d="
  M 446.96 641.47
  L 446.98 704.83"
/>
<path stroke="#878787" vector-effect="non-scaling-stroke" d="
  M 446.98 704.83
  L 446.77 705.09
  Q 446.51 705.43 446.09 705.43
  L 318.74 705.42"
/>
<path stroke="#828282" vector-effect="non-scaling-stroke" d="
  M 512.54 705.35
  L 510.74 705.39"
/>
<path stroke="#7a7a7a" vector-effect="non-scaling-stroke" d="
  M 510.74 705.39
  Q 472.47 705.28 450.50 705.55
  Q 448.13 705.58 446.98 704.83"
/>
<path stroke="#7c7c7c" vector-effect="non-scaling-stroke" d="
  M 959.84 706.09
  L 959.82 769.20"
/>
<path stroke="#878787" vector-effect="non-scaling-stroke" d="
  M 959.82 769.20
  Q 960.16 768.35 959.06 769.50"
/>
<path stroke="#878787" vector-effect="non-scaling-stroke" d="
  M 831.28 769.42
  L 831.26 706.92
  A 1.42 1.42 0.0 0 0 829.81 705.50
  C 824.85 705.59 819.20 705.27 814.73 705.28
  Q 682.85 705.37 639.75 705.25
  Q 639.12 705.24 639.41 704.53"
/>
<path stroke="#878787" vector-effect="non-scaling-stroke" d="
  M 639.27 769.80
  L 639.06 705.55"
/>
<path stroke="#878787" vector-effect="non-scaling-stroke" d="
  M 510.74 705.39
  L 510.90 769.19"
/>
<path stroke="#747474" vector-effect="non-scaling-stroke" d="
  M 61.71 769.59
  L 0.00 769.35"
/>
<path stroke="#747474" vector-effect="non-scaling-stroke" d="
  M 1024.00 769.44
  Q 1000.92 769.56 977.82 769.50
  Q 977.71 769.50 970.19 769.63
  Q 964.83 769.73 959.82 769.20"
/>
<path stroke="#878787" vector-effect="non-scaling-stroke" d="
  M 1024.00 833.65
  L 959.99 833.51"
/>
<path stroke="#878787" vector-effect="non-scaling-stroke" d="
  M 62.96 833.57
  Q 62.06 834.04 62.05 835.25
  Q 61.85 855.71 62.08 892.75
  Q 62.10 894.63 62.23 895.59
  A 2.45 2.44 86.1 0 0 64.65 897.71
  L 189.94 897.74"
/>
<path stroke="#878787" vector-effect="non-scaling-stroke" d="
  M 1024.00 897.69
  L 959.82 897.76"
/>
<path stroke="#828282" vector-effect="non-scaling-stroke" d="
  M 959.82 897.76
  L 895.43 897.62"
/>
<path stroke="#878787" vector-effect="non-scaling-stroke" d="
  M 895.43 897.62
  L 895.40 833.75"
/>
<path stroke="#878787" vector-effect="non-scaling-stroke" d="
  M 382.78 833.66
  Q 382.75 864.55 382.76 894.50
  Q 382.76 896.07 383.24 897.44"
/>
<path stroke="#7c7c7c" vector-effect="non-scaling-stroke" d="
  M 703.56 897.81
  L 639.30 897.69"
/>
<path stroke="#7a7a7a" vector-effect="non-scaling-stroke" d="
  M 895.43 897.62
  L 832.79 897.80
  A 1.24 1.24 0.0 0 0 831.55 899.04
  L 831.48 960.23
  A 1.78 1.78 0.0 0 1 829.70 962.01
  L 767.50 961.88"
/>
<path stroke="#878787" vector-effect="non-scaling-stroke" d="
  M 767.50 961.88
  Q 767.23 929.98 767.27 898.50
  Q 767.27 897.84 766.28 897.81"
/>
<path stroke="#7a7a7a" vector-effect="non-scaling-stroke" d="
  M 890.24 1024.00
  C 892.37 1023.61 895.58 1024.72 895.56 1021.56
  Q 895.45 992.91 895.81 963.36
  A 1.48 1.48 0.0 0 1 897.29 961.90
  Q 924.18 961.76 950.30 961.94
  Q 954.15 961.96 958.25 961.75
  A 1.66 1.66 0.0 0 0 959.83 960.09
  L 959.82 897.76"
/>
<path stroke="#7a7a7a" vector-effect="non-scaling-stroke" d="
  M 705.13 1024.00
  Q 703.33 1023.97 703.35 1022.00
  Q 703.58 993.87 703.13 965.25
  Q 703.11 964.25 702.80 963.29
  Q 702.63 962.79 702.99 962.41
  L 703.48 961.89"
/>
<path stroke="#828282" vector-effect="non-scaling-stroke" d="
  M 703.48 961.89
  L 767.50 961.88"
/>
<path stroke="#878787" vector-effect="non-scaling-stroke" d="
  M 639.75 897.80
  Q 638.91 898.01 638.91 898.63
  Q 639.08 922.78 639.17 949.25
  Q 639.19 954.99 639.27 960.25
  A 1.57 1.57 0.0 0 0 640.84 961.80
  L 703.48 961.89"
/>
<path stroke="#878787" vector-effect="non-scaling-stroke" d="
  M 446.70 1024.00
  L 446.79 961.98"
/>
<path stroke="#7c7c7c" vector-effect="non-scaling-stroke" d="
  M 318.48 962.68
  L 318.58 1024.00"
/>
</g>
<path fill="#7f7f7f" d="
  M 0.00 0.00
  L 62.13 0.00
  L 62.25 62.01
  A 1.99 1.99 0.0 0 0 64.24 64.00
  L 126.00 64.07
  Q 126.04 93.59 125.89 122.50
  C 125.88 124.47 125.68 127.55 127.72 128.25
  L 125.46 128.53
  L 62.93 128.26
  A 0.81 0.80 90.0 0 0 62.13 129.07
  Q 62.22 157.97 61.98 190.75
  Q 61.98 191.15 62.44 192.31
  Q 62.01 193.30 62.01 193.75
  Q 62.00 257.09 61.98 320.45
  L 0.00 320.75
  L 0.00 0.00
  Z"
/>
<path fill="#747474" d="
  M 62.13 0.00
  L 318.25 0.00
  C 318.70 3.05 318.24 6.75 318.26 9.00
  Q 318.44 33.99 318.50 58.97
  Q 318.50 60.03 318.79 61.50
  Q 319.04 62.76 319.12 64.04
  L 126.00 64.07
  L 64.24 64.00
  A 1.99 1.99 0.0 0 1 62.25 62.01
  L 62.13 0.00
  Z"
/>
<path fill="#7f7f7f" d="
  M 318.25 0.00
  L 384.63 0.00
  Q 382.50 0.21 382.50 1.24
  Q 382.60 31.87 382.68 63.06
  A 0.95 0.95 0.0 0 1 381.73 64.01
  L 319.12 64.04
  Q 319.04 62.76 318.79 61.50
  Q 318.50 60.03 318.50 58.97
  Q 318.44 33.99 318.26 9.00
  C 318.24 6.75 318.70 3.05 318.25 0.00
  Z"
/>
<path fill="#8f8f8f" d="
  M 384.63 0.00
  L 510.83 0.00
  L 510.92 64.09
  L 383.44 64.11
  A 0.64 0.63 0.0 0 0 382.80 64.74
  L 382.80 127.06
  Q 382.80 128.31 381.55 128.31
  L 318.48 128.28
  L 254.56 128.28
  L 127.72 128.25
  C 125.68 127.55 125.88 124.47 125.89 122.50
  Q 126.04 93.59 126.00 64.07
  L 319.12 64.04
  L 381.73 64.01
  A 0.95 0.95 0.0 0 0 382.68 63.06
  Q 382.60 31.87 382.50 1.24
  Q 382.50 0.21 384.63 0.00
  Z"
/>
<path fill="#686868" d="
  M 510.83 0.00
  L 575.06 0.00
  L 575.13 64.16
  L 510.92 64.09
  L 510.83 0.00
  Z"
/>
<path fill="#8f8f8f" d="
  M 575.06 0.00
  L 637.36 0.00
  Q 638.98 0.22 638.99 1.00
  Q 639.16 31.62 639.22 62.37
  A 1.60 1.59 0.2 0 0 640.81 63.96
  L 703.79 63.99
  Q 731.11 64.20 758.00 64.11
  Q 762.53 64.09 767.05 64.24
  Q 767.27 64.25 767.42 64.36
  Q 767.77 64.62 767.51 64.81
  L 767.51 127.79
  Q 767.35 128.22 766.75 128.22
  Q 704.25 128.31 641.75 128.26
  Q 639.62 128.25 637.45 128.30
  L 576.43 128.24
  A 1.31 1.30 -0.0 0 0 575.12 129.54
  L 575.14 191.73
  Q 575.13 192.07 574.93 192.27
  Q 574.78 192.42 574.43 192.42
  Q 542.63 192.32 511.05 192.31
  L 511.00 129.04
  A 0.79 0.79 0.0 0 1 511.79 128.25
  L 574.54 128.25
  A 0.73 0.73 0.0 0 0 575.27 127.52
  L 575.13 64.16
  L 575.06 0.00
  Z"
/>
<path fill="#7f7f7f" d="
  M 637.36 0.00
  L 703.46 0.00
  Q 703.32 28.98 703.47 57.99
  Q 703.48 58.81 703.22 60.98
  Q 702.95 63.20 703.79 63.99
  L 640.81 63.96
  A 1.60 1.59 0.2 0 1 639.22 62.37
  Q 639.16 31.62 638.99 1.00
  Q 638.98 0.22 637.36 0.00
  Z"
/>
<path fill="#747474" d="
  M 703.46 0.00
  L 959.62 0.00
  L 959.94 63.54
  Q 959.94 64.12 959.37 64.13
  C 953.91 64.28 948.43 64.04 942.97 64.03
  Q 868.67 63.92 832.38 64.10
  Q 832.02 64.11 831.50 64.50
  Q 830.45 63.98 829.50 63.99
  Q 799.07 64.15 768.64 63.96
  Q 768.11 63.95 767.81 64.39
  L 767.51 64.81
  Q 767.77 64.62 767.42 64.36
  Q 767.27 64.25 767.05 64.24
  Q 762.53 64.09 758.00 64.11
  Q 731.11 64.20 703.79 63.99
  Q 702.95 63.20 703.22 60.98
  Q 703.48 58.81 703.47 57.99
  Q 703.32 28.98 703.46 0.00
  Z"
/>
<path fill="#7f7f7f" d="
  M 959.62 0.00
  L 1024.00 0.00
  L 1024.00 64.87
  Q 1020.86 63.94 1014.75 64.02
  Q 998.59 64.23 964.25 64.09
  Q 962.50 64.09 960.58 64.31
  Q 960.08 64.36 959.97 64.85
  Q 959.53 66.81 959.56 68.50
  Q 960.09 97.00 960.03 125.50
  Q 960.02 127.95 963.00 128.01
  Q 993.52 128.56 1024.00 127.95
  L 1024.00 256.58
  L 960.75 256.34
  Q 960.03 255.80 960.02 254.75
  Q 959.61 224.18 959.81 193.86
  A 1.32 1.31 -89.8 0 0 958.50 192.53
  L 895.74 192.41
  L 895.56 129.31
  A 1.05 1.04 -0.0 0 0 894.51 128.27
  L 833.02 128.24
  A 1.62 1.62 0.0 0 0 831.40 129.86
  L 831.34 192.37
  L 640.42 192.59
  Q 639.05 192.59 639.07 193.95
  Q 639.39 214.37 639.16 233.41
  Q 639.11 237.88 638.95 243.07
  Q 638.74 249.97 639.58 256.52
  Q 639.01 257.28 639.24 258.97
  Q 639.21 257.96 638.94 257.29
  Q 638.75 256.80 638.22 256.80
  L 510.95 256.49
  L 510.92 193.09
  A 0.76 0.73 -66.8 0 0 510.73 192.59
  Q 510.64 192.49 510.54 192.40
  L 511.05 192.31
  Q 542.63 192.32 574.43 192.42
  Q 574.78 192.42 574.93 192.27
  Q 575.13 192.07 575.14 191.73
  Q 575.85 192.60 577.25 192.57
  Q 587.88 192.30 598.51 192.38
  C 612.85 192.50 625.32 192.34 638.66 192.44
  Q 639.13 192.44 639.13 191.96
  L 639.01 129.08
  Q 639.01 128.62 638.57 128.47
  Q 638.15 128.32 637.45 128.30
  Q 639.62 128.25 641.75 128.26
  Q 704.25 128.31 766.75 128.22
  Q 767.35 128.22 767.51 127.79
  Q 768.26 128.27 770.00 128.26
  Q 800.50 128.24 830.40 128.24
  Q 831.51 128.24 831.51 127.13
  L 831.50 64.50
  Q 832.02 64.11 832.38 64.10
  Q 868.67 63.92 942.97 64.03
  C 948.43 64.04 953.91 64.28 959.37 64.13
  Q 959.94 64.12 959.94 63.54
  L 959.62 0.00
  Z"
/>
<path fill="#747474" d="
  M 510.92 64.09
  L 575.13 64.16
  L 575.27 127.52
  A 0.73 0.73 0.0 0 1 574.54 128.25
  L 511.79 128.25
  A 0.79 0.79 0.0 0 0 511.00 129.04
  L 511.05 192.31
  L 510.54 192.40
  L 446.38 192.56
  Q 445.91 192.32 445.25 192.32
  Q 414.54 192.62 383.83 192.40
  Q 382.54 192.39 382.70 193.71
  Q 382.63 192.22 381.00 192.24
  Q 354.08 192.68 332.00 192.37
  Q 326.47 192.30 320.24 192.42
  Q 318.74 192.45 318.74 190.95
  L 318.48 128.28
  L 381.55 128.31
  Q 382.80 128.31 382.80 127.06
  L 382.80 64.74
  A 0.64 0.63 0.0 0 1 383.44 64.11
  L 510.92 64.09
  Z"
/>
<path fill="#686868" d="
  M 831.50 64.50
  L 831.51 127.13
  Q 831.51 128.24 830.40 128.24
  Q 800.50 128.24 770.00 128.26
  Q 768.26 128.27 767.51 127.79
  L 767.51 64.81
  L 767.81 64.39
  Q 768.11 63.95 768.64 63.96
  Q 799.07 64.15 829.50 63.99
  Q 830.45 63.98 831.50 64.50
  Z"
/>
<path fill="#747474" d="
  M 1024.00 64.87
  L 1024.00 127.95
  Q 993.52 128.56 963.00 128.01
  Q 960.02 127.95 960.03 125.50
  Q 960.09 97.00 959.56 68.50
  Q 959.53 66.81 959.97 64.85
  Q 960.08 64.36 960.58 64.31
  Q 962.50 64.09 964.25 64.09
  Q 998.59 64.23 1014.75 64.02
  Q 1020.86 63.94 1024.00 64.87
  Z"
/>
<path fill="#686868" d="
  M 125.46 128.53
  Q 125.76 128.77 125.95 129.04
  Q 126.15 129.33 126.15 129.69
  Q 126.19 159.42 126.29 187.13
  Q 126.30 189.34 126.63 191.52
  Q 126.71 192.04 126.22 192.22
  Q 125.95 192.31 125.71 192.29
  L 62.44 192.31
  Q 61.98 191.15 61.98 190.75
  Q 62.22 157.97 62.13 129.07
  A 0.81 0.80 90.0 0 1 62.93 128.26
  L 125.46 128.53
  Z"
/>
<path fill="#747474" d="
  M 127.72 128.25
  L 254.56 128.28
  Q 254.82 157.72 254.80 187.00
  Q 254.80 189.35 254.01 192.23
  L 126.04 192.54
  Q 125.81 192.43 125.71 192.29
  Q 125.95 192.31 126.22 192.22
  Q 126.71 192.04 126.63 191.52
  Q 126.30 189.34 126.29 187.13
  Q 126.19 159.42 126.15 129.69
  Q 126.15 129.33 125.95 129.04
  Q 125.76 128.77 125.46 128.53
  L 127.72 128.25
  Z"
/>
<path fill="#686868" d="
  M 254.56 128.28
  L 318.48 128.28
  L 318.74 190.95
  Q 318.74 192.45 320.24 192.42
  Q 326.47 192.30 332.00 192.37
  Q 354.08 192.68 381.00 192.24
  Q 382.63 192.22 382.70 193.71
  L 382.70 255.29
  Q 382.52 256.67 380.50 256.64
  Q 357.87 256.27 320.25 256.62
  Q 319.34 256.63 318.69 256.35
  L 318.67 193.50
  A 1.18 1.18 0.0 0 0 317.49 192.32
  L 254.01 192.23
  Q 254.80 189.35 254.80 187.00
  Q 254.82 157.72 254.56 128.28
  Z"
/>
<path fill="#747474" d="
  M 637.45 128.30
  Q 638.15 128.32 638.57 128.47
  Q 639.01 128.62 639.01 129.08
  L 639.13 191.96
  Q 639.13 192.44 638.66 192.44
  C 625.32 192.34 612.85 192.50 598.51 192.38
  Q 587.88 192.30 577.25 192.57
  Q 575.85 192.60 575.14 191.73
  L 575.12 129.54
  A 1.31 1.30 0.0 0 1 576.43 128.24
  L 637.45 128.30
  Z"
/>
<path fill="#8f8f8f" d="
  M 895.74 192.41
  L 831.34 192.37
  L 831.40 129.86
  A 1.62 1.62 0.0 0 1 833.02 128.24
  L 894.51 128.27
  A 1.05 1.04 -0.0 0 1 895.56 129.31
  L 895.74 192.41
  Z"
/>
<path fill="#7f7f7f" d="
  M 254.01 192.23
  L 317.49 192.32
  A 1.18 1.18 0.0 0 1 318.67 193.50
  L 318.69 256.35
  Q 312.92 256.70 306.96 256.62
  Q 297.60 256.49 297.53 256.49
  Q 244.39 256.53 191.25 256.56
  Q 190.65 256.56 190.46 257.21
  Q 190.10 256.44 189.63 256.44
  Q 160.36 256.58 128.22 256.45
  A 1.80 1.80 0.0 0 1 126.43 254.65
  Q 126.28 226.04 126.20 197.25
  Q 126.19 195.27 126.44 193.31
  Q 126.48 192.99 126.26 192.76
  L 126.04 192.54
  L 254.01 192.23
  Z"
/>
<path fill="#8f8f8f" d="
  M 62.44 192.31
  L 125.71 192.29
  Q 125.81 192.43 126.04 192.54
  L 126.26 192.76
  Q 126.48 192.99 126.44 193.31
  Q 126.19 195.27 126.20 197.25
  Q 126.28 226.04 126.43 254.65
  A 1.80 1.80 0.0 0 0 128.22 256.45
  Q 160.36 256.58 189.63 256.44
  Q 190.10 256.44 190.46 257.21
  L 190.50 320.70
  L 125.21 320.68
  L 61.98 320.45
  Q 62.00 257.09 62.01 193.75
  Q 62.01 193.30 62.44 192.31
  Z"
/>
<path fill="#7f7f7f" d="
  M 446.38 192.56
  L 446.69 256.47
  Q 443.54 256.81 440.32 256.70
  Q 434.74 256.52 434.68 256.52
  Q 409.21 256.45 383.75 256.64
  Q 382.54 256.65 382.70 255.29
  L 382.70 193.71
  Q 382.54 192.39 383.83 192.40
  Q 414.54 192.62 445.25 192.32
  Q 445.91 192.32 446.38 192.56
  Z"
/>
<path fill="#8f8f8f" d="
  M 510.54 192.40
  Q 510.64 192.49 510.73 192.59
  A 0.76 0.73 -66.8 0 1 510.92 193.09
  L 510.95 256.49
  L 446.69 256.47
  L 446.38 192.56
  L 510.54 192.40
  Z"
/>
<path fill="#747474" d="
  M 831.34 192.37
  L 895.74 192.41
  L 958.50 192.53
  A 1.32 1.31 -89.8 0 1 959.81 193.86
  Q 959.61 224.18 960.02 254.75
  Q 960.03 255.80 960.75 256.34
  Q 960.20 256.39 959.75 257.31
  Q 960.30 256.62 959.50 256.65
  C 956.37 256.75 952.83 256.50 950.18 256.50
  Q 795.35 256.50 639.58 256.52
  Q 638.74 249.97 638.95 243.07
  Q 639.11 237.88 639.16 233.41
  Q 639.39 214.37 639.07 193.95
  Q 639.05 192.59 640.42 192.59
  L 831.34 192.37
  Z"
/>
<path fill="#747474" d="
  M 382.70 255.29
  Q 382.54 256.65 383.75 256.64
  Q 409.21 256.45 434.68 256.52
  Q 434.74 256.52 440.32 256.70
  Q 443.54 256.81 446.69 256.47
  L 510.95 256.49
  L 638.22 256.80
  Q 638.75 256.80 638.94 257.29
  Q 639.21 257.96 639.24 258.97
  L 639.26 319.80
  Q 639.26 320.61 638.99 320.70
  C 636.38 320.26 633.35 320.74 631.34 320.71
  Q 603.48 320.35 575.62 320.75
  Q 575.04 320.76 575.10 322.04
  Q 575.29 320.64 573.75 320.63
  Q 542.34 320.45 512.62 320.65
  A 1.62 1.62 0.0 0 0 511.01 322.26
  Q 510.89 352.89 510.97 384.00
  Q 510.97 385.10 509.28 384.79
  L 383.73 384.78
  A 0.95 0.94 -90.0 0 0 382.79 385.73
  L 382.80 447.76
  A 1.19 1.19 0.0 0 0 383.99 448.95
  L 510.75 448.95
  L 574.92 448.93
  Q 575.09 452.25 575.10 455.25
  Q 575.21 483.50 575.11 511.75
  Q 575.10 512.80 575.73 512.99
  Q 575.45 512.91 574.87 513.02
  L 384.17 513.05
  A 1.44 1.43 90.0 0 0 382.74 514.49
  L 382.76 575.51
  A 1.51 1.50 90.0 0 0 384.26 577.02
  L 445.47 577.07
  A 1.34 1.34 0.0 0 1 446.81 578.41
  Q 446.75 609.23 446.96 640.25
  Q 446.97 640.94 446.54 641.25
  L 320.05 641.25
  A 1.35 1.35 0.0 0 0 318.70 642.60
  L 318.74 705.42
  L 318.61 767.40
  A 2.09 2.08 0.1 0 0 320.70 769.49
  Q 399.25 769.54 477.76 769.51
  C 482.54 769.51 490.38 769.73 496.70 769.56
  C 500.38 769.46 506.14 769.75 510.90 769.19
  L 511.09 832.45
  A 1.13 1.12 -0.0 0 0 512.22 833.57
  L 638.06 833.68
  A 1.27 1.27 0.0 0 0 639.33 832.41
  L 639.27 769.80
  Q 639.61 768.61 639.99 768.86
  Q 641.05 769.55 642.30 769.55
  Q 731.03 769.43 819.95 769.60
  Q 822.52 769.60 825.14 769.71
  Q 828.15 769.82 831.28 769.42
  L 959.06 769.50
  Q 959.88 770.53 959.88 772.00
  Q 959.91 793.13 959.87 814.25
  Q 959.85 823.79 959.99 833.51
  L 895.40 833.75
  L 769.01 833.73
  A 1.69 1.69 0.0 0 0 767.32 835.41
  Q 767.23 857.46 767.18 879.20
  Q 767.16 886.77 767.66 896.25
  Q 767.74 897.88 766.28 897.81
  L 703.56 897.81
  L 703.28 834.87
  A 1.28 1.28 0.0 0 0 702.00 833.60
  L 640.51 833.57
  A 1.19 1.19 0.0 0 0 639.32 834.76
  L 639.30 897.69
  Q 639.53 897.75 639.75 897.80
  L 512.56 897.74
  A 1.55 1.55 0.0 0 0 511.01 899.29
  L 510.92 960.25
  A 1.69 1.68 -90.0 0 1 509.24 961.94
  L 446.79 961.98
  Q 383.59 961.98 321.00 961.98
  Q 319.20 961.98 318.48 962.68
  Q 316.55 961.65 314.00 961.68
  Q 287.56 962.02 263.00 961.87
  Q 259.71 961.85 255.85 962.06
  A 1.09 1.09 0.0 0 0 254.81 963.15
  L 254.62 1023.22
  Q 254.62 1023.61 255.00 1023.71
  L 256.16 1024.00
  L 0.00 1024.00
  L 0.00 961.94
  L 188.96 961.96
  Q 189.87 961.96 190.11 961.08
  Q 190.40 960.04 190.43 958.50
  Q 191.06 928.08 189.94 897.74
  L 383.24 897.44
  Q 383.48 897.44 383.63 897.58
  Q 383.79 897.74 384.02 897.74
  L 445.31 897.79
  A 1.61 1.60 -0.0 0 0 446.92 896.19
  L 446.90 835.05
  A 1.28 1.27 0.0 0 0 445.62 833.78
  L 382.78 833.66
  L 62.96 833.57
  Q 62.12 832.22 62.12 830.75
  Q 62.18 800.35 62.04 769.95
  Q 62.04 769.78 61.95 769.72
  Q 61.87 769.65 61.71 769.59
  L 62.28 769.54
  L 253.16 769.50
  A 1.37 1.37 0.0 0 0 254.53 768.12
  L 254.48 707.30
  Q 254.48 705.50 252.68 705.50
  L 190.53 705.47
  L 190.48 642.28
  A 1.03 1.03 0.0 0 0 189.44 641.25
  L 125.69 641.54
  L 63.56 641.01
  Q 62.23 641.00 62.23 639.67
  L 62.11 578.04
  Q 62.11 577.28 62.87 577.22
  L 64.47 577.09
  Q 127.23 576.91 190.00 577.17
  Q 190.33 577.17 190.41 576.53
  Q 190.49 577.24 191.25 577.23
  Q 221.75 576.72 252.25 577.34
  Q 254.78 577.39 254.48 574.46
  Q 254.22 575.57 254.53 576.53
  Q 254.68 577.01 255.19 577.01
  L 317.69 577.11
  A 1.05 1.05 0.0 0 0 318.74 576.06
  L 318.74 513.94
  A 0.91 0.90 -90.0 0 0 317.84 513.03
  L 254.35 513.28
  Q 248.33 512.82 245.74 512.84
  Q 218.70 513.04 191.64 512.99
  A 0.74 0.73 -78.6 0 0 190.96 513.45
  Q 190.71 514.05 190.39 514.23
  Q 190.38 513.79 190.23 513.47
  Q 190.70 510.27 190.70 509.25
  Q 190.52 478.95 190.75 449.51
  A 0.55 0.50 -89.4 0 1 191.25 448.97
  L 317.60 448.93
  A 0.80 0.79 -83.6 0 0 318.37 448.31
  Q 318.64 447.13 318.64 446.00
  Q 318.93 395.28 318.53 334.25
  Q 318.49 327.97 318.46 321.75
  A 1.00 0.99 -0.0 0 0 317.46 320.76
  L 190.50 320.70
  L 190.46 257.21
  Q 190.65 256.56 191.25 256.56
  Q 244.39 256.53 297.53 256.49
  Q 297.60 256.49 306.96 256.62
  Q 312.92 256.70 318.69 256.35
  Q 319.34 256.63 320.25 256.62
  Q 357.87 256.27 380.50 256.64
  Q 382.52 256.67 382.70 255.29
  Z"
/>
<path fill="#686868" d="
  M 1024.00 256.58
  L 1024.00 320.58
  Q 994.00 320.49 964.00 320.86
  Q 961.30 320.90 959.77 319.88
  L 959.75 257.31
  Q 960.20 256.39 960.75 256.34
  L 1024.00 256.58
  Z"
/>
<path fill="#8f8f8f" d="
  M 639.58 256.52
  Q 795.35 256.50 950.18 256.50
  C 952.83 256.50 956.37 256.75 959.50 256.65
  Q 960.30 256.62 959.75 257.31
  L 959.77 319.88
  Q 959.33 320.64 958.25 320.66
  L 894.94 320.68
  L 766.96 320.64
  Q 704.33 320.39 641.50 320.71
  Q 639.88 320.71 639.26 319.80
  L 639.24 258.97
  Q 639.01 257.28 639.58 256.52
  Z"
/>
<path fill="#7f7f7f" d="
  M 639.26 319.80
  Q 639.88 320.71 641.50 320.71
  Q 704.33 320.39 766.96 320.64
  Q 766.71 321.51 767.04 322.91
  Q 767.35 324.26 767.36 325.12
  Q 767.64 359.80 767.17 381.50
  Q 767.12 384.24 769.03 384.73
  Q 767.27 384.19 767.27 385.75
  Q 767.27 417.06 767.24 448.92
  L 639.26 448.97
  L 574.92 448.93
  L 510.75 448.95
  Q 511.22 417.48 510.90 386.00
  Q 510.89 384.70 509.28 384.79
  Q 510.97 385.10 510.97 384.00
  Q 510.89 352.89 511.01 322.26
  A 1.62 1.62 0.0 0 1 512.62 320.65
  Q 542.34 320.45 573.75 320.63
  Q 575.29 320.64 575.10 322.04
  L 575.09 383.57
  A 1.18 1.18 0.0 0 0 576.27 384.75
  L 638.28 384.76
  A 0.93 0.93 0.0 0 0 639.21 383.83
  L 638.99 320.70
  Q 639.26 320.61 639.26 319.80
  Z"
/>
<path fill="#7f7f7f" d="
  M 959.77 319.88
  Q 961.30 320.90 964.00 320.86
  Q 994.00 320.49 1024.00 320.58
  L 1024.00 384.85
  Q 994.27 384.82 964.50 384.54
  Q 963.43 384.53 959.81 384.92
  Q 959.43 384.59 959.01 384.77
  Q 959.76 384.36 959.78 384.00
  Q 960.03 377.25 959.96 370.50
  Q 959.73 346.87 959.99 323.26
  Q 960.02 320.32 958.25 320.66
  Q 959.33 320.64 959.77 319.88
  Z"
/>
<path fill="#747474" d="
  M 0.00 320.75
  L 61.98 320.45
  L 125.21 320.68
  L 125.75 321.27
  Q 126.11 321.65 126.10 322.16
  L 125.98 384.76
  L 0.00 384.75
  L 0.00 320.75
  Z"
/>
<path fill="#7f7f7f" d="
  M 190.50 320.70
  L 317.46 320.76
  A 1.00 0.99 0.0 0 1 318.46 321.75
  Q 318.49 327.97 318.53 334.25
  Q 318.93 395.28 318.64 446.00
  Q 318.64 447.13 318.37 448.31
  A 0.80 0.79 -83.6 0 1 317.60 448.93
  L 191.25 448.97
  A 0.55 0.50 -89.4 0 0 190.75 449.51
  Q 190.52 478.95 190.70 509.25
  Q 190.70 510.27 190.23 513.47
  Q 189.88 513.04 189.50 513.04
  Q 126.85 513.01 63.50 513.02
  A 1.54 1.53 0.0 0 0 61.96 514.55
  L 62.09 576.10
  A 1.00 1.00 0.0 0 0 63.08 577.09
  L 64.47 577.09
  L 62.87 577.22
  Q 62.11 577.28 62.11 578.04
  L 62.23 639.67
  Q 62.23 641.00 63.56 641.01
  L 125.69 641.54
  L 126.22 702.98
  Q 126.24 705.24 128.50 705.25
  L 190.53 705.47
  L 252.68 705.50
  Q 254.48 705.50 254.48 707.30
  L 254.53 768.12
  A 1.37 1.37 0.0 0 1 253.16 769.50
  L 62.28 769.54
  L 62.02 706.59
  A 1.35 1.35 0.0 0 0 60.67 705.25
  L 0.00 705.31
  L 0.00 448.89
  L 124.77 448.96
  A 1.29 1.29 0.0 0 0 126.06 447.67
  L 125.98 384.76
  L 126.10 322.16
  Q 126.11 321.65 125.75 321.27
  L 125.21 320.68
  L 190.50 320.70
  Z"
/>
<path fill="#686868" d="
  M 638.99 320.70
  L 639.21 383.83
  A 0.93 0.93 0.0 0 1 638.28 384.76
  L 576.27 384.75
  A 1.18 1.18 0.0 0 1 575.09 383.57
  L 575.10 322.04
  Q 575.04 320.76 575.62 320.75
  Q 603.48 320.35 631.34 320.71
  C 633.35 320.74 636.38 320.26 638.99 320.70
  Z"
/>
<path fill="#747474" d="
  M 894.94 320.68
  Q 895.88 323.48 895.88 324.88
  Q 895.88 352.69 895.95 380.49
  C 895.95 381.46 895.64 382.44 895.67 383.51
  Q 895.70 384.52 896.79 384.73
  L 769.03 384.73
  Q 767.12 384.24 767.17 381.50
  Q 767.64 359.80 767.36 325.12
  Q 767.35 324.26 767.04 322.91
  Q 766.71 321.51 766.96 320.64
  L 894.94 320.68
  Z"
/>
<path fill="#686868" d="
  M 958.25 320.66
  Q 960.02 320.32 959.99 323.26
  Q 959.73 346.87 959.96 370.50
  Q 960.03 377.25 959.78 384.00
  Q 959.76 384.36 959.01 384.77
  L 896.79 384.73
  Q 895.70 384.52 895.67 383.51
  C 895.64 382.44 895.95 381.46 895.95 380.49
  Q 895.88 352.69 895.88 324.88
  Q 895.88 323.48 894.94 320.68
  L 958.25 320.66
  Z"
/>
<path fill="#686868" d="
  M 1024.00 384.85
  L 1024.00 448.81
  Q 992.63 448.92 961.11 448.93
  A 1.49 1.47 -15.6 0 1 959.85 448.23
  Q 959.83 448.19 959.86 447.47
  L 959.81 384.92
  Q 963.43 384.53 964.50 384.54
  Q 994.27 384.82 1024.00 384.85
  Z"
/>
<path fill="#8f8f8f" d="
  M 0.00 384.75
  L 125.98 384.76
  L 126.06 447.67
  A 1.29 1.29 0.0 0 1 124.77 448.96
  L 0.00 448.89
  L 0.00 384.75
  Z"
/>
<path fill="#8f8f8f" d="
  M 509.28 384.79
  Q 510.89 384.70 510.90 386.00
  Q 511.22 417.48 510.75 448.95
  L 383.99 448.95
  A 1.19 1.19 0.0 0 1 382.80 447.76
  L 382.79 385.73
  A 0.95 0.94 -90.0 0 1 383.73 384.78
  L 509.28 384.79
  Z"
/>
<path fill="#8f8f8f" d="
  M 769.03 384.73
  L 896.79 384.73
  L 959.01 384.77
  Q 959.43 384.59 959.81 384.92
  L 959.86 447.47
  Q 959.99 448.99 958.25 448.97
  Q 933.74 448.82 909.24 449.00
  C 905.68 449.03 899.92 448.73 895.27 449.04
  L 767.24 448.92
  Q 767.27 417.06 767.27 385.75
  Q 767.27 384.19 769.03 384.73
  Z"
/>
<path fill="#7f7f7f" d="
  M 959.86 447.47
  Q 959.83 448.19 959.85 448.23
  A 1.49 1.47 -15.6 0 0 961.11 448.93
  Q 992.63 448.92 1024.00 448.81
  L 1024.00 513.40
  Q 1022.67 512.97 1018.25 512.98
  Q 956.74 513.03 895.75 513.00
  Q 895.84 507.47 895.71 502.00
  C 895.33 485.35 895.55 468.66 895.66 452.01
  Q 895.66 451.68 895.78 450.51
  Q 895.92 449.17 895.27 449.04
  C 899.92 448.73 905.68 449.03 909.24 449.00
  Q 933.74 448.82 958.25 448.97
  Q 959.99 448.99 959.86 447.47
  Z"
/>
<path fill="#686868" d="
  M 639.26 448.97
  Q 639.00 479.75 639.49 510.25
  Q 639.51 511.23 639.90 512.11
  Q 640.11 512.57 639.28 513.00
  L 575.73 512.99
  Q 575.10 512.80 575.11 511.75
  Q 575.21 483.50 575.10 455.25
  Q 575.09 452.25 574.92 448.93
  L 639.26 448.97
  Z"
/>
<path fill="#747474" d="
  M 767.24 448.92
  L 895.27 449.04
  Q 895.92 449.17 895.78 450.51
  Q 895.66 451.68 895.66 452.01
  C 895.55 468.66 895.33 485.35 895.71 502.00
  Q 895.84 507.47 895.75 513.00
  L 639.28 513.00
  Q 640.11 512.57 639.90 512.11
  Q 639.51 511.23 639.49 510.25
  Q 639.00 479.75 639.26 448.97
  L 767.24 448.92
  Z"
/>
<path fill="#8f8f8f" d="
  M 190.23 513.47
  Q 190.38 513.79 190.39 514.23
  L 190.41 576.53
  Q 190.33 577.17 190.00 577.17
  Q 127.23 576.91 64.47 577.09
  L 63.08 577.09
  A 1.00 1.00 0.0 0 1 62.09 576.10
  L 61.96 514.55
  A 1.54 1.53 0.0 0 1 63.50 513.02
  Q 126.85 513.01 189.50 513.04
  Q 189.88 513.04 190.23 513.47
  Z"
/>
<path fill="#686868" d="
  M 254.35 513.28
  L 254.48 574.46
  Q 254.78 577.39 252.25 577.34
  Q 221.75 576.72 191.25 577.23
  Q 190.49 577.24 190.41 576.53
  L 190.39 514.23
  Q 190.71 514.05 190.96 513.45
  A 0.74 0.73 -78.6 0 1 191.64 512.99
  Q 218.70 513.04 245.74 512.84
  Q 248.33 512.82 254.35 513.28
  Z"
/>
<path fill="#8f8f8f" d="
  M 1024.00 513.40
  L 1024.00 577.16
  L 960.55 577.23
  A 0.74 0.74 0.0 0 0 959.81 577.97
  L 959.77 640.17
  A 1.02 1.02 0.0 0 1 958.75 641.19
  Q 931.02 641.35 904.48 641.08
  Q 904.36 641.08 900.53 641.28
  Q 897.75 641.42 895.79 640.50
  L 895.78 578.15
  A 1.11 1.11 0.0 0 0 894.67 577.04
  L 703.36 577.05
  L 577.39 577.03
  Q 574.98 577.03 574.98 574.61
  L 574.87 513.02
  Q 575.45 512.91 575.73 512.99
  L 639.28 513.00
  L 895.75 513.00
  Q 956.74 513.03 1018.25 512.98
  Q 1022.67 512.97 1024.00 513.40
  Z"
/>
<path fill="#8f8f8f" d="
  M 254.48 574.46
  L 254.35 513.28
  L 317.84 513.03
  A 0.91 0.90 90.0 0 1 318.74 513.94
  L 318.74 576.06
  A 1.05 1.05 0.0 0 1 317.69 577.11
  L 255.19 577.01
  Q 254.68 577.01 254.53 576.53
  Q 254.22 575.57 254.48 574.46
  Z"
/>
<path fill="#7f7f7f" d="
  M 574.87 513.02
  L 574.98 574.61
  Q 574.98 577.03 577.39 577.03
  L 703.36 577.05
  Q 703.09 579.07 703.21 581.36
  Q 703.31 583.48 703.32 585.54
  Q 703.46 621.46 703.53 637.43
  Q 703.54 639.10 702.89 640.50
  Q 702.70 640.91 703.15 640.99
  L 704.97 641.27
  Q 672.80 641.13 640.65 641.48
  Q 640.20 641.48 639.86 641.59
  Q 638.99 641.88 639.28 642.19
  Q 636.52 640.92 631.25 641.02
  Q 619.79 641.25 575.10 641.29
  L 575.07 578.81
  A 1.71 1.70 90.0 0 0 573.37 577.10
  L 512.30 577.02
  A 1.33 1.33 0.0 0 0 510.97 578.34
  L 510.71 641.53
  L 446.96 641.47
  Q 447.13 641.20 446.54 641.25
  Q 446.97 640.94 446.96 640.25
  Q 446.75 609.23 446.81 578.41
  A 1.34 1.34 0.0 0 0 445.47 577.07
  L 384.26 577.02
  A 1.51 1.50 90.0 0 1 382.76 575.51
  L 382.74 514.49
  A 1.44 1.43 90.0 0 1 384.17 513.05
  L 574.87 513.02
  Z"
/>
<path fill="#7f7f7f" d="
  M 1024.00 577.16
  L 1024.00 705.41
  Q 977.48 705.16 962.01 705.29
  Q 960.14 705.31 959.84 706.09
  Q 953.40 705.23 944.50 705.28
  Q 913.23 705.44 849.25 705.37
  Q 842.36 705.36 835.02 705.55
  Q 834.16 705.57 832.05 705.03
  Q 831.53 704.89 831.53 704.37
  L 831.52 641.29
  Q 833.67 641.18 835.75 641.18
  Q 864.13 641.17 892.50 641.40
  Q 894.16 641.41 895.79 640.50
  Q 897.75 641.42 900.53 641.28
  Q 904.36 641.08 904.48 641.08
  Q 931.02 641.35 958.75 641.19
  A 1.02 1.02 0.0 0 0 959.77 640.17
  L 959.81 577.97
  A 0.74 0.74 0.0 0 1 960.55 577.23
  L 1024.00 577.16
  Z"
/>
<path fill="#686868" d="
  M 575.10 641.29
  L 575.30 705.43
  L 512.54 705.35
  Q 511.92 705.42 511.47 705.24
  Q 510.99 705.06 510.99 704.54
  L 510.71 641.53
  L 510.97 578.34
  A 1.33 1.33 0.0 0 1 512.30 577.02
  L 573.37 577.10
  A 1.71 1.70 90.0 0 1 575.07 578.81
  L 575.10 641.29
  Z"
/>
<path fill="#747474" d="
  M 895.79 640.50
  Q 894.16 641.41 892.50 641.40
  Q 864.13 641.17 835.75 641.18
  Q 833.67 641.18 831.52 641.29
  L 704.97 641.27
  L 703.15 640.99
  Q 702.70 640.91 702.89 640.50
  Q 703.54 639.10 703.53 637.43
  Q 703.46 621.46 703.32 585.54
  Q 703.31 583.48 703.21 581.36
  Q 703.09 579.07 703.36 577.05
  L 894.67 577.04
  A 1.11 1.11 0.0 0 1 895.78 578.15
  L 895.79 640.50
  Z"
/>
<path fill="#747474" d="
  M 639.28 642.19
  L 639.41 704.53
  Q 639.00 705.16 639.06 705.55
  L 575.30 705.43
  L 575.10 641.29
  Q 619.79 641.25 631.25 641.02
  Q 636.52 640.92 639.28 642.19
  Z"
/>
<path fill="#8f8f8f" d="
  M 190.53 705.47
  L 128.50 705.25
  Q 126.24 705.24 126.22 702.98
  L 125.69 641.54
  L 189.44 641.25
  A 1.03 1.03 0.0 0 1 190.48 642.28
  L 190.53 705.47
  Z"
/>
<path fill="#8f8f8f" d="
  M 446.54 641.25
  Q 447.13 641.20 446.96 641.47
  L 446.98 704.83
  L 446.77 705.09
  Q 446.51 705.43 446.09 705.43
  L 318.74 705.42
  L 318.70 642.60
  A 1.35 1.35 0.0 0 1 320.05 641.25
  L 446.54 641.25
  Z"
/>
<path fill="#747474" d="
  M 510.71 641.53
  L 510.99 704.54
  Q 510.99 705.06 511.47 705.24
  Q 511.92 705.42 512.54 705.35
  L 510.74 705.39
  Q 472.47 705.28 450.50 705.55
  Q 448.13 705.58 446.98 704.83
  L 446.96 641.47
  L 510.71 641.53
  Z"
/>
<path fill="#8f8f8f" d="
  M 704.97 641.27
  L 831.52 641.29
  L 831.53 704.37
  Q 831.53 704.89 832.05 705.03
  Q 834.16 705.57 835.02 705.55
  Q 842.36 705.36 849.25 705.37
  Q 913.23 705.44 944.50 705.28
  Q 953.40 705.23 959.84 706.09
  L 959.82 769.20
  Q 960.16 768.35 959.06 769.50
  L 831.28 769.42
  L 831.26 706.92
  A 1.42 1.42 0.0 0 0 829.81 705.50
  C 824.85 705.59 819.20 705.27 814.73 705.28
  Q 682.85 705.37 639.75 705.25
  Q 639.12 705.24 639.41 704.53
  L 639.28 642.19
  Q 638.99 641.88 639.86 641.59
  Q 640.20 641.48 640.65 641.48
  Q 672.80 641.13 704.97 641.27
  Z"
/>
<path fill="#7f7f7f" d="
  M 639.41 704.53
  Q 639.12 705.24 639.75 705.25
  Q 682.85 705.37 814.73 705.28
  C 819.20 705.27 824.85 705.59 829.81 705.50
  A 1.42 1.42 0.0 0 1 831.26 706.92
  L 831.28 769.42
  Q 828.15 769.82 825.14 769.71
  Q 822.52 769.60 819.95 769.60
  Q 731.03 769.43 642.30 769.55
  Q 641.05 769.55 639.99 768.86
  Q 639.61 768.61 639.27 769.80
  L 639.06 705.55
  Q 639.00 705.16 639.41 704.53
  Z"
/>
<path fill="#7f7f7f" d="
  M 446.98 704.83
  Q 448.13 705.58 450.50 705.55
  Q 472.47 705.28 510.74 705.39
  L 510.90 769.19
  C 506.14 769.75 500.38 769.46 496.70 769.56
  C 490.38 769.73 482.54 769.51 477.76 769.51
  Q 399.25 769.54 320.70 769.49
  A 2.09 2.08 0.1 0 1 318.61 767.40
  L 318.74 705.42
  L 446.09 705.43
  Q 446.51 705.43 446.77 705.09
  L 446.98 704.83
  Z"
/>
<path fill="#686868" d="
  M 0.00 705.31
  L 60.67 705.25
  A 1.35 1.35 0.0 0 1 62.02 706.59
  L 62.28 769.54
  L 61.71 769.59
  L 0.00 769.35
  L 0.00 705.31
  Z"
/>
<path fill="#8f8f8f" d="
  M 575.30 705.43
  L 639.06 705.55
  L 639.27 769.80
  L 639.33 832.41
  A 1.27 1.27 0.0 0 1 638.06 833.68
  L 512.22 833.57
  A 1.13 1.12 -0.0 0 1 511.09 832.45
  L 510.90 769.19
  L 510.74 705.39
  L 512.54 705.35
  L 575.30 705.43
  Z"
/>
<path fill="#686868" d="
  M 1024.00 705.41
  L 1024.00 769.44
  Q 1000.92 769.56 977.82 769.50
  Q 977.71 769.50 970.19 769.63
  Q 964.83 769.73 959.82 769.20
  L 959.84 706.09
  Q 960.14 705.31 962.01 705.29
  Q 977.48 705.16 1024.00 705.41
  Z"
/>
<path fill="#7f7f7f" d="
  M 959.82 769.20
  Q 964.83 769.73 970.19 769.63
  Q 977.71 769.50 977.82 769.50
  Q 1000.92 769.56 1024.00 769.44
  L 1024.00 833.65
  L 959.99 833.51
  Q 959.85 823.79 959.87 814.25
  Q 959.91 793.13 959.88 772.00
  Q 959.88 770.53 959.06 769.50
  Q 960.16 768.35 959.82 769.20
  Z"
/>
<path fill="#7f7f7f" d="
  M 0.00 769.35
  L 61.71 769.59
  Q 61.87 769.65 61.95 769.72
  Q 62.04 769.78 62.04 769.95
  Q 62.18 800.35 62.12 830.75
  Q 62.12 832.22 62.96 833.57
  Q 62.06 834.04 62.05 835.25
  Q 61.85 855.71 62.08 892.75
  Q 62.10 894.63 62.23 895.59
  A 2.45 2.44 86.1 0 0 64.65 897.71
  L 189.94 897.74
  Q 191.06 928.08 190.43 958.50
  Q 190.40 960.04 190.11 961.08
  Q 189.87 961.96 188.96 961.96
  L 0.00 961.94
  L 0.00 769.35
  Z"
/>
<path fill="#8f8f8f" d="
  M 1024.00 833.65
  L 1024.00 897.69
  L 959.82 897.76
  L 895.43 897.62
  L 895.40 833.75
  L 959.99 833.51
  L 1024.00 833.65
  Z"
/>
<path fill="#8f8f8f" d="
  M 62.96 833.57
  L 382.78 833.66
  Q 382.75 864.55 382.76 894.50
  Q 382.76 896.07 383.24 897.44
  L 189.94 897.74
  L 64.65 897.71
  A 2.45 2.44 86.1 0 1 62.23 895.59
  Q 62.10 894.63 62.08 892.75
  Q 61.85 855.71 62.05 835.25
  Q 62.06 834.04 62.96 833.57
  Z"
/>
<path fill="#7f7f7f" d="
  M 383.24 897.44
  Q 382.76 896.07 382.76 894.50
  Q 382.75 864.55 382.78 833.66
  L 445.62 833.78
  A 1.28 1.27 -0.0 0 1 446.90 835.05
  L 446.92 896.19
  A 1.61 1.60 -0.0 0 1 445.31 897.79
  L 384.02 897.74
  Q 383.79 897.74 383.63 897.58
  Q 383.48 897.44 383.24 897.44
  Z"
/>
<path fill="#686868" d="
  M 703.56 897.81
  L 639.30 897.69
  L 639.32 834.76
  A 1.19 1.19 0.0 0 1 640.51 833.57
  L 702.00 833.60
  A 1.28 1.28 0.0 0 1 703.28 834.87
  L 703.56 897.81
  Z"
/>
<path fill="#7f7f7f" d="
  M 895.40 833.75
  L 895.43 897.62
  L 832.79 897.80
  A 1.24 1.24 0.0 0 0 831.55 899.04
  L 831.48 960.23
  A 1.78 1.78 0.0 0 1 829.70 962.01
  L 767.50 961.88
  Q 767.23 929.98 767.27 898.50
  Q 767.27 897.84 766.28 897.81
  Q 767.74 897.88 767.66 896.25
  Q 767.16 886.77 767.18 879.20
  Q 767.23 857.46 767.32 835.41
  A 1.69 1.69 0.0 0 1 769.01 833.73
  L 895.40 833.75
  Z"
/>
<path fill="#7f7f7f" d="
  M 1024.00 897.69
  L 1024.00 1024.00
  L 890.24 1024.00
  C 892.37 1023.61 895.58 1024.72 895.56 1021.56
  Q 895.45 992.91 895.81 963.36
  A 1.48 1.48 0.0 0 1 897.29 961.90
  Q 924.18 961.76 950.30 961.94
  Q 954.15 961.96 958.25 961.75
  A 1.66 1.66 0.0 0 0 959.83 960.09
  L 959.82 897.76
  L 1024.00 897.69
  Z"
/>
<path fill="#747474" d="
  M 895.43 897.62
  L 959.82 897.76
  L 959.83 960.09
  A 1.66 1.66 0.0 0 1 958.25 961.75
  Q 954.15 961.96 950.30 961.94
  Q 924.18 961.76 897.29 961.90
  A 1.48 1.48 0.0 0 0 895.81 963.36
  Q 895.45 992.91 895.56 1021.56
  C 895.58 1024.72 892.37 1023.61 890.24 1024.00
  L 705.13 1024.00
  Q 703.33 1023.97 703.35 1022.00
  Q 703.58 993.87 703.13 965.25
  Q 703.11 964.25 702.80 963.29
  Q 702.63 962.79 702.99 962.41
  L 703.48 961.89
  L 767.50 961.88
  L 829.70 962.01
  A 1.78 1.78 0.0 0 0 831.48 960.23
  L 831.55 899.04
  A 1.24 1.24 0.0 0 1 832.79 897.80
  L 895.43 897.62
  Z"
/>
<path fill="#7f7f7f" d="
  M 639.75 897.80
  Q 638.91 898.01 638.91 898.63
  Q 639.08 922.78 639.17 949.25
  Q 639.19 954.99 639.27 960.25
  A 1.57 1.57 0.0 0 0 640.84 961.80
  L 703.48 961.89
  L 702.99 962.41
  Q 702.63 962.79 702.80 963.29
  Q 703.11 964.25 703.13 965.25
  Q 703.58 993.87 703.35 1022.00
  Q 703.33 1023.97 705.13 1024.00
  L 446.70 1024.00
  L 446.79 961.98
  L 509.24 961.94
  A 1.69 1.68 -90.0 0 0 510.92 960.25
  L 511.01 899.29
  A 1.55 1.55 0.0 0 1 512.56 897.74
  L 639.75 897.80
  Z"
/>
<path fill="#8f8f8f" d="
  M 639.75 897.80
  Q 639.53 897.75 639.30 897.69
  L 703.56 897.81
  L 766.28 897.81
  Q 767.27 897.84 767.27 898.50
  Q 767.23 929.98 767.50 961.88
  L 703.48 961.89
  L 640.84 961.80
  A 1.57 1.57 0.0 0 1 639.27 960.25
  Q 639.19 954.99 639.17 949.25
  Q 639.08 922.78 638.91 898.63
  Q 638.91 898.01 639.75 897.80
  Z"
/>
<path fill="#686868" d="
  M 318.48 962.68
  L 318.58 1024.00
  L 256.16 1024.00
  L 255.00 1023.71
  Q 254.62 1023.61 254.62 1023.22
  L 254.81 963.15
  A 1.09 1.09 0.0 0 1 255.85 962.06
  Q 259.71 961.85 263.00 961.87
  Q 287.56 962.02 314.00 961.68
  Q 316.55 961.65 318.48 962.68
  Z"
/>
<path fill="#8f8f8f" d="
  M 446.79 961.98
  L 446.70 1024.00
  L 318.58 1024.00
  L 318.48 962.68
  Q 319.20 961.98 321.00 961.98
  Q 383.59 961.98 446.79 961.98
  Z"
/>
</svg>
